<svg xmlns="http://www.w3.org/2000/svg" xmlns:xlink="http://www.w3.org/1999/xlink" viewBox="0 0 246.29 246.29"><defs><style>.cls-1{fill:none;}.cls-2{clip-path:url(#clip-path);}.cls-3{clip-path:url(#clip-path-2);}.cls-4{fill:#1e643e;}.cls-5{fill:#ef3e2d;}</style><clipPath id="clip-path"><rect class="cls-1" x="-639.87" y="-272.85" width="612" height="792"/></clipPath><clipPath id="clip-path-2"><rect class="cls-1" x="-786.74" y="-294.1" width="903.51" height="993.68"/></clipPath></defs><title>web_xingones</title><g id="green"><g class="cls-2"><g class="cls-3"><circle class="cls-4" cx="76.1" cy="-1.9" r="1.91"/><circle class="cls-4" cx="119.14" cy="-1.85" r="1.91"/><path class="cls-4" d="M27.22-6c0,1.55-17.94,7.78-23.94,7.78S-7.58-1.66-7.58-6s4.86-7.78,10.86-7.78S27.22-7.72,27.22-6Z"/><path class="cls-4" d="M28.87-2.77c-.4-.55-11.3,3.82-13.45,5.37s-3,4-1.89,5.59,3.75,1.53,5.9,0S29.32-2.13,28.87-2.77Z"/><path class="cls-4" d="M40.25,2.33c1.21.15,2.85,1.24,2.72,2.32s-2,1.72-3.21,1.56a5.47,5.47,0,0,1-3.44-2.4A5.24,5.24,0,0,1,40.25,2.33Z"/><path class="cls-4" d="M57.37,6.81c.55-1.08.56-3.06-.4-3.55a3.5,3.5,0,0,0-3.1,1.79A5.43,5.43,0,0,0,54,9.24,5.19,5.19,0,0,0,57.37,6.81Z"/><path class="cls-4" d="M40.69-7.12c3,1.28,7.25,1.54,10.75,1.17-5.3,3.58-7.95,10-7.54,14.75a.49.49,0,0,0,.58.51.52.52,0,0,0,.46-.5C44.46,3.65,47.8-3.46,54.28-6.36A17.74,17.74,0,0,1,64-7.29a8.44,8.44,0,0,0-3.7,1.59,9.42,9.42,0,0,0-3.59,6.82c0,.23.1.65.46.69.53,0,.57-.43.59-.64a8.31,8.31,0,0,1,3.17-6A7.67,7.67,0,0,1,67.83-6c.39.19.76.52,1.1.09s-.17-.78-.44-.93L68.24-7a.07.07,0,0,0,0,0,18.46,18.46,0,0,0-13.47-.63l-.16.06c-2.9.9-9.14,1.36-13.48-.48-5.68-2.4-8.65-6.49-8.83-12.16a.53.53,0,0,0-.52-.57c-.44,0-.53.43-.53.64C31.42-14.07,34.61-9.69,40.69-7.12Z"/><path class="cls-4" d="M54,1.33c1.06-.58,2.2-2.2,1.68-3.15-.23-.43-2.2-1-3.56-.28A5.48,5.48,0,0,0,49.8,1.39,5.22,5.22,0,0,0,54,1.33Z"/><ellipse class="cls-4" cx="97.36" cy="2.8" rx="1.73" ry="5.35"/><ellipse class="cls-4" cx="88.81" cy="2.98" rx="9.08" ry="1.63" transform="translate(23.64 63.39) rotate(-44.75)"/><ellipse class="cls-4" cx="106.32" cy="3.04" rx="1.63" ry="9.08" transform="translate(29.32 76.41) rotate(-45.25)"/><path class="cls-4" d="M209.37-3.5c.28-.32,6.77,3.11,8,4.21s1.6,2.7.82,3.59-2.43.71-3.67-.39S209-3.13,209.37-3.5Z"/><path class="cls-4" d="M207.17-2.43c.43,0,2.18,7.12,2.18,8.78s-1,3-2.14,3-2.15-1.34-2.15-3S206.69-2.43,207.17-2.43Z"/><path class="cls-4" d="M167.67-5.87c0,1.55,17.93,7.78,23.93,7.78s10.86-3.49,10.86-7.78-4.86-7.78-10.86-7.78S167.67-7.64,167.67-5.87Z"/><path class="cls-4" d="M166-2.68c.4-.56,11.3,3.82,13.45,5.36s3,4.05,1.89,5.59-3.74,1.54-5.9,0S165.56-2,166-2.68Z"/><path class="cls-4" d="M154.63,2.41c-1.2.15-2.85,1.25-2.72,2.32s2,1.72,3.21,1.57a5.43,5.43,0,0,0,3.44-2.41A5.29,5.29,0,0,0,154.63,2.41Z"/><path class="cls-4" d="M137.51,6.9c-.54-1.09-.56-3.07.41-3.55.43-.22,2.39.39,3.09,1.78a5.45,5.45,0,0,1-.08,4.2A5.29,5.29,0,0,1,137.51,6.9Z"/><path class="cls-4" d="M154.19-7a23.32,23.32,0,0,1-10.75,1.16c5.3,3.59,7.95,10,7.55,14.75,0,.31-.22.58-.59.51a.51.51,0,0,1-.46-.5c.48-5.16-2.86-12.27-9.34-15.16a17.53,17.53,0,0,0-9.75-.93,8.27,8.27,0,0,1,3.69,1.58,9.38,9.38,0,0,1,3.59,6.82c0,.23-.09.66-.45.69-.54,0-.58-.43-.59-.64a8.39,8.39,0,0,0-3.18-6A7.7,7.7,0,0,0,127.05-6c-.38.2-.75.52-1.1.09s.17-.78.44-.92l.25-.13,0,0c3.51-1.83,9.29-2.16,13.47-.63l.16.06c2.9.9,9.15,1.36,13.48-.47,5.68-2.4,8.65-6.49,8.84-12.17a.52.52,0,0,1,.51-.57c.45,0,.53.43.53.64C163.46-14,160.28-9.6,154.19-7Z"/><path class="cls-4" d="M140.88,1.41c-1.06-.58-2.2-2.2-1.68-3.15A3.49,3.49,0,0,1,142.76-2a5.47,5.47,0,0,1,2.32,3.5A5.28,5.28,0,0,1,140.88,1.41Z"/><circle class="cls-4" cx="29.2" cy="22.77" r="1.91"/><circle class="cls-4" cx="29.2" cy="30.52" r="1.91"/><circle class="cls-4" cx="72.24" cy="22.82" r="1.91"/><circle class="cls-4" cx="72.24" cy="30.58" r="1.91"/><path class="cls-4" d="M-1,20.26c-1.13.45-2.44,1.93-2,2.93s2.37,1.15,3.5.7a5.38,5.38,0,0,0,2.71-3.2A5.24,5.24,0,0,0-1,20.26Z"/><path class="cls-4" d="M10.47,39.24c.55-1.09.56-3.07-.4-3.55-.43-.22-2.39.39-3.1,1.78a5.45,5.45,0,0,0,.08,4.2A5.27,5.27,0,0,0,10.47,39.24Z"/><path class="cls-4" d="M13.39,18.89c.81.9,1.34,2.81.54,3.53a3.5,3.5,0,0,1-3.46-.92,5.41,5.41,0,0,1-1-4.07A5.32,5.32,0,0,1,13.39,18.89Z"/><path class="cls-4" d="M-6.21,25.31A23.34,23.34,0,0,0,4.54,26.47c-5.3,3.59-7.95,10-7.54,14.75,0,.31.21.58.58.51a.49.49,0,0,0,.46-.5C-2.44,36.07.9,29,7.38,26.07a17.56,17.56,0,0,1,9.76-.93,8.31,8.31,0,0,0-3.7,1.58,9.41,9.41,0,0,0-3.58,6.82c0,.23.09.66.45.69.53,0,.57-.43.59-.64a8.34,8.34,0,0,1,3.17-6,7.7,7.7,0,0,1,6.86-1.17c.39.2.76.52,1.1.09s-.16-.78-.44-.92l-.25-.13,0,0c-3.5-1.83-9.28-2.16-13.47-.63l-.16.06c-2.9.9-9.14,1.36-13.48-.47-5.68-2.4-8.65-6.49-8.83-12.17a.54.54,0,0,0-.52-.57c-.44,0-.53.43-.52.64C-15.48,18.35-12.29,22.74-6.21,25.31Z"/><path class="cls-4" d="M7.1,33.75c1.06-.58,2.2-2.2,1.68-3.15a3.48,3.48,0,0,0-3.56-.28,5.47,5.47,0,0,0-2.32,3.5A5.28,5.28,0,0,0,7.1,33.75Z"/><circle class="cls-4" cx="50.46" cy="26.63" r="1.88"/><ellipse class="cls-4" cx="50.31" cy="18.4" rx="1.73" ry="5.35"/><ellipse class="cls-4" cx="50.46" cy="35.22" rx="1.73" ry="5.35"/><ellipse class="cls-4" cx="42.13" cy="26.63" rx="5.35" ry="1.73"/><ellipse class="cls-4" cx="41.91" cy="18.04" rx="1.63" ry="9.08" transform="translate(-0.4 35.11) rotate(-45.25)"/><ellipse class="cls-4" cx="41.91" cy="35.41" rx="9.08" ry="1.63" transform="translate(-12.78 39.77) rotate(-44.75)"/><ellipse class="cls-4" cx="59.21" cy="26.69" rx="5.35" ry="1.73"/><ellipse class="cls-4" cx="59.42" cy="18.09" rx="9.08" ry="1.63" transform="translate(4.48 47.08) rotate(-44.75)"/><ellipse class="cls-4" cx="59.42" cy="35.46" rx="1.63" ry="9.08" transform="translate(-7.59 52.7) rotate(-45.25)"/><path class="cls-4" d="M163.48,26.77c0,.43,7.13,2.14,8.78,2.14s3-1,3-2.16-1.35-2.14-3-2.13S163.48,26.28,163.48,26.77Z"/><circle class="cls-4" cx="160.24" cy="26.76" r="1.71"/><path class="cls-4" d="M162.54,24.6c.29.31,6.77-3.11,8-4.21s1.6-2.7.81-3.59-2.43-.71-3.66.39S162.22,24.23,162.54,24.6Z"/><path class="cls-4" d="M160.35,23.53c.42,0,2.18-7.12,2.18-8.78s-1-3-2.15-3-2.14,1.34-2.14,3S159.86,23.53,160.35,23.53Z"/><path class="cls-4" d="M162.47,28.93c.28-.32,6.77,3.1,8,4.2s1.6,2.71.82,3.59-2.43.71-3.67-.39S162.15,29.29,162.47,28.93Z"/><path class="cls-4" d="M160.27,30c.43,0,2.18,7.12,2.18,8.78s-1,3-2.14,3-2.15-1.34-2.15-3S159.79,30,160.27,30Z"/><path class="cls-4" d="M120.77,26.55c0,1.55,17.93,7.78,23.93,7.78s10.86-3.49,10.86-7.78-4.86-7.78-10.86-7.78S120.77,24.79,120.77,26.55Z"/><path class="cls-4" d="M119.12,29.74c.4-.56,11.29,3.82,13.44,5.36s3,4,1.89,5.59-3.74,1.54-5.89,0S118.66,30.37,119.12,29.74Z"/><path class="cls-4" d="M119.12,23.9c.4.56,11.29-3.82,13.44-5.36s3-4,1.89-5.59-3.74-1.54-5.89,0S118.66,23.27,119.12,23.9Z"/><circle class="cls-4" cx="115.74" cy="26.55" r="2.6"/><path class="cls-4" d="M107.73,34.84c-1.2.15-2.85,1.24-2.72,2.31s2,1.72,3.21,1.57a5.43,5.43,0,0,0,3.44-2.41A5.26,5.26,0,0,0,107.73,34.84Z"/><path class="cls-4" d="M104.9,28.54c-1.15.4-2.53,1.81-2.17,2.83s2.31,1.27,3.46.87a5.47,5.47,0,0,0,2.86-3.08A5.28,5.28,0,0,0,104.9,28.54Z"/><path class="cls-4" d="M113.28,13.66c.69,1,1,2.95.08,3.57s-2.61-.36-3.3-1.36a5.39,5.39,0,0,1-.49-4.16A5.25,5.25,0,0,1,113.28,13.66Z"/><path class="cls-4" d="M109.07,18.18c.88.84,1.55,2.7.8,3.48s-2.63.18-3.51-.66A5.42,5.42,0,0,1,105,17,5.22,5.22,0,0,1,109.07,18.18Z"/><path class="cls-4" d="M102.09,20.34c1.13.45,2.45,1.93,2,2.93s-2.38,1.16-3.51.7a5.42,5.42,0,0,1-2.71-3.2A5.24,5.24,0,0,1,102.09,20.34Z"/><path class="cls-4" d="M90.62,39.32c-.55-1.09-.57-3.06.4-3.55.43-.22,2.39.4,3.09,1.79A5.39,5.39,0,0,1,94,41.75,5.28,5.28,0,0,1,90.62,39.32Z"/><path class="cls-4" d="M87.7,19c-.81.91-1.34,2.81-.54,3.53.36.33,2.41.24,3.45-.91a5.42,5.42,0,0,0,1-4.07A5.23,5.23,0,0,0,87.7,19Z"/><path class="cls-4" d="M107.3,25.39a23.35,23.35,0,0,1-10.75,1.16c5.29,3.59,7.94,10,7.54,14.76,0,.3-.22.57-.58.51a.52.52,0,0,1-.47-.51c.48-5.15-2.86-12.27-9.34-15.16A17.71,17.71,0,0,0,84,25.22a8.18,8.18,0,0,1,3.69,1.59,9.38,9.38,0,0,1,3.59,6.81c0,.23-.09.66-.45.69-.54,0-.58-.43-.59-.64a8.35,8.35,0,0,0-3.18-6,7.66,7.66,0,0,0-6.86-1.18c-.38.2-.75.52-1.09.1s.16-.78.43-.93l.25-.13,0,0c3.51-1.84,9.29-2.17,13.47-.63l.16,0c2.9.9,9.15,1.36,13.48-.47,5.68-2.4,8.65-6.49,8.84-12.16a.52.52,0,0,1,.51-.57c.45,0,.54.42.53.64C116.56,18.43,113.38,22.82,107.3,25.39Z"/><path class="cls-4" d="M94,33.84c-1.07-.59-2.2-2.21-1.68-3.16a3.48,3.48,0,0,1,3.56-.28,5.44,5.44,0,0,1,2.31,3.5A5.28,5.28,0,0,1,94,33.84Z"/><circle class="cls-4" cx="76.1" cy="53.41" r="1.91"/><circle class="cls-4" cx="76.1" cy="61.16" r="1.91"/><circle class="cls-4" cx="119.15" cy="53.46" r="1.91"/><circle class="cls-4" cx="119.15" cy="61.21" r="1.91"/><path class="cls-4" d="M27.22,57.1c0,1.56-17.93,7.78-23.93,7.78S-7.58,61.4-7.58,57.1s4.87-7.78,10.87-7.78S27.22,55.34,27.22,57.1Z"/><path class="cls-4" d="M28.87,60.3c-.4-.56-11.29,3.81-13.44,5.36s-3,4-1.89,5.59,3.74,1.53,5.89,0S29.33,60.93,28.87,60.3Z"/><path class="cls-4" d="M28.87,54.46c-.4.55-11.29-3.82-13.44-5.37s-3-4-1.89-5.58,3.74-1.54,5.89,0S29.33,53.82,28.87,54.46Z"/><circle class="cls-4" cx="32.25" cy="57.1" r="2.6"/><path class="cls-4" d="M40.26,65.39c1.2.15,2.85,1.24,2.72,2.32s-2,1.72-3.21,1.56a5.47,5.47,0,0,1-3.44-2.4A5.23,5.23,0,0,1,40.26,65.39Z"/><path class="cls-4" d="M43.09,59.1c1.15.4,2.53,1.81,2.17,2.83s-2.32,1.26-3.46.86a5.43,5.43,0,0,1-2.86-3.07A5.2,5.2,0,0,1,43.09,59.1Z"/><path class="cls-4" d="M34.71,44.21c-.69,1-1,3-.08,3.57s2.61-.35,3.3-1.35a5.42,5.42,0,0,0,.49-4.17A5.25,5.25,0,0,0,34.71,44.21Z"/><path class="cls-4" d="M38.91,48.74c-.87.84-1.54,2.7-.79,3.48s2.63.18,3.51-.66a5.43,5.43,0,0,0,1.32-4A5.25,5.25,0,0,0,38.91,48.74Z"/><path class="cls-4" d="M45.89,50.9c-1.12.45-2.44,1.92-2,2.93s2.38,1.15,3.51.7a5.48,5.48,0,0,0,2.71-3.2A5.26,5.26,0,0,0,45.89,50.9Z"/><path class="cls-4" d="M57.37,69.87c.55-1.08.57-3.06-.4-3.54-.43-.22-2.39.39-3.09,1.78a5.41,5.41,0,0,0,.08,4.2A5.27,5.27,0,0,0,57.37,69.87Z"/><path class="cls-4" d="M60.29,49.53c.81.9,1.34,2.81.54,3.53a3.48,3.48,0,0,1-3.45-.92,5.41,5.41,0,0,1-1-4.07A5.25,5.25,0,0,1,60.29,49.53Z"/><path class="cls-4" d="M40.69,56a23.35,23.35,0,0,0,10.75,1.16c-5.29,3.58-7.94,10-7.54,14.75,0,.31.22.57.58.51a.52.52,0,0,0,.47-.5c-.48-5.16,2.85-12.27,9.34-15.17A17.61,17.61,0,0,1,64,55.78a8.22,8.22,0,0,0-3.69,1.58,9.38,9.38,0,0,0-3.59,6.82c0,.23.09.66.45.69.54,0,.58-.43.59-.64a8.37,8.37,0,0,1,3.18-6A7.66,7.66,0,0,1,67.84,57c.38.2.75.52,1.09.09s-.16-.78-.43-.92l-.25-.14,0,0a18.46,18.46,0,0,0-13.47-.63l-.16.06c-2.9.9-9.15,1.36-13.48-.48-5.68-2.39-8.65-6.49-8.84-12.16a.53.53,0,0,0-.52-.57c-.44,0-.53.43-.52.64C31.43,49,34.61,53.38,40.69,56Z"/><path class="cls-4" d="M54,64.39c1.07-.58,2.2-2.2,1.68-3.15-.23-.43-2.19-1-3.56-.28a5.44,5.44,0,0,0-2.31,3.5A5.26,5.26,0,0,0,54,64.39Z"/><circle class="cls-4" cx="97.36" cy="57.27" r="1.88"/><ellipse class="cls-4" cx="97.22" cy="49.04" rx="1.73" ry="5.35"/><ellipse class="cls-4" cx="97.36" cy="65.86" rx="1.73" ry="5.35"/><ellipse class="cls-4" cx="89.03" cy="57.27" rx="5.35" ry="1.73"/><ellipse class="cls-4" cx="88.82" cy="48.68" rx="1.63" ry="9.08" transform="translate(-8.28 77.49) rotate(-45.25)"/><ellipse class="cls-4" cx="88.82" cy="66.04" rx="9.08" ry="1.63" transform="translate(-20.76 81.67) rotate(-44.75)"/><ellipse class="cls-4" cx="106.11" cy="57.32" rx="5.35" ry="1.73"/><ellipse class="cls-4" cx="106.33" cy="48.73" rx="9.08" ry="1.63" transform="translate(-3.49 88.98) rotate(-44.75)"/><ellipse class="cls-4" cx="106.33" cy="66.1" rx="1.63" ry="9.08" transform="translate(-15.47 95.08) rotate(-45.25)"/><path class="cls-4" d="M210.38,57.41c0,.43,7.13,2.14,8.79,2.13s3-1,3-2.16-1.35-2.13-3-2.13S210.38,56.92,210.38,57.41Z"/><circle class="cls-4" cx="207.15" cy="57.4" r="1.71"/><path class="cls-4" d="M209.45,55.23c.28.32,6.77-3.1,8-4.2s1.6-2.71.82-3.59-2.43-.71-3.67.39S209.12,54.87,209.45,55.23Z"/><path class="cls-4" d="M207.25,54.17c.43,0,2.18-7.12,2.18-8.78s-1-3-2.14-3-2.15,1.34-2.15,3S206.77,54.17,207.25,54.17Z"/><path class="cls-4" d="M209.37,59.57c.29-.32,6.77,3.1,8,4.2s1.6,2.7.81,3.59-2.43.71-3.66-.39S209.05,59.93,209.37,59.57Z"/><path class="cls-4" d="M207.18,60.63c.43,0,2.18,7.12,2.18,8.78s-1,3-2.15,3-2.14-1.34-2.14-3S206.69,60.63,207.18,60.63Z"/><path class="cls-4" d="M167.67,57.19c0,1.55,17.94,7.78,23.94,7.78s10.86-3.49,10.86-7.78-4.86-7.78-10.86-7.78S167.67,55.43,167.67,57.19Z"/><path class="cls-4" d="M166,60.38c.4-.56,11.3,3.82,13.45,5.36s3,4.05,1.89,5.59-3.75,1.54-5.9,0S165.57,61,166,60.38Z"/><path class="cls-4" d="M166,54.54c.4.56,11.3-3.82,13.45-5.36s3-4,1.89-5.59-3.75-1.54-5.9,0S165.57,53.91,166,54.54Z"/><circle class="cls-4" cx="162.65" cy="57.19" r="2.6"/><path class="cls-4" d="M154.64,65.47c-1.21.16-2.86,1.25-2.72,2.32s2,1.72,3.21,1.57A5.4,5.4,0,0,0,158.56,67,5.26,5.26,0,0,0,154.64,65.47Z"/><path class="cls-4" d="M151.8,59.18c-1.14.4-2.53,1.81-2.17,2.83s2.32,1.27,3.47.86A5.44,5.44,0,0,0,156,59.8,5.27,5.27,0,0,0,151.8,59.18Z"/><path class="cls-4" d="M160.19,44.29c.68,1,1,3,.08,3.57s-2.62-.35-3.31-1.35a5.44,5.44,0,0,1-.49-4.16A5.2,5.2,0,0,1,160.19,44.29Z"/><path class="cls-4" d="M156,48.82c.87.84,1.55,2.7.8,3.48s-2.64.18-3.51-.66a5.42,5.42,0,0,1-1.32-4A5.24,5.24,0,0,1,156,48.82Z"/><path class="cls-4" d="M149,51c1.13.45,2.44,1.93,2,2.93s-2.37,1.15-3.5.7a5.38,5.38,0,0,1-2.71-3.2A5.24,5.24,0,0,1,149,51Z"/><path class="cls-4" d="M137.52,70c-.55-1.09-.56-3.06.4-3.55.43-.22,2.39.39,3.09,1.78a5.42,5.42,0,0,1-.07,4.2A5.27,5.27,0,0,1,137.52,70Z"/><path class="cls-4" d="M134.6,49.61c-.81.9-1.34,2.81-.54,3.53a3.5,3.5,0,0,0,3.46-.92,5.44,5.44,0,0,0,1-4.06A5.25,5.25,0,0,0,134.6,49.61Z"/><path class="cls-4" d="M154.2,56a23.34,23.34,0,0,1-10.75,1.16c5.3,3.59,7.94,10,7.54,14.75,0,.31-.21.58-.58.52A.51.51,0,0,1,150,72c.48-5.16-2.86-12.27-9.34-15.16a17.74,17.74,0,0,0-9.76-.93,8.31,8.31,0,0,1,3.7,1.58,9.41,9.41,0,0,1,3.58,6.82c0,.23-.09.66-.45.69-.53,0-.57-.43-.59-.64a8.32,8.32,0,0,0-3.18-6,7.67,7.67,0,0,0-6.85-1.17c-.39.2-.76.52-1.1.1s.16-.79.44-.93l.25-.13,0,0c3.5-1.83,9.28-2.16,13.47-.63l.16.06c2.9.9,9.14,1.36,13.48-.47,5.68-2.4,8.65-6.49,8.83-12.16a.54.54,0,0,1,.52-.58c.44,0,.53.43.52.64C163.47,49.07,160.28,53.46,154.2,56Z"/><path class="cls-4" d="M140.89,64.47c-1.07-.58-2.2-2.2-1.68-3.15a3.48,3.48,0,0,1,3.56-.28,5.4,5.4,0,0,1,2.31,3.5A5.25,5.25,0,0,1,140.89,64.47Z"/><circle class="cls-4" cx="28.96" cy="85.48" r="1.91"/><circle class="cls-4" cx="28.96" cy="93.23" r="1.91"/><circle class="cls-4" cx="72" cy="85.53" r="1.91"/><circle class="cls-4" cx="72" cy="93.29" r="1.91"/><path class="cls-4" d="M-1.25,83c-1.13.45-2.45,1.93-2,2.93s2.38,1.15,3.51.7a5.42,5.42,0,0,0,2.71-3.2A5.24,5.24,0,0,0-1.25,83Z"/><path class="cls-4" d="M10.22,102c.55-1.09.57-3.06-.4-3.55-.43-.22-2.39.39-3.09,1.78a5.45,5.45,0,0,0,.08,4.2A5.28,5.28,0,0,0,10.22,102Z"/><path class="cls-4" d="M13.14,81.6c.81.9,1.34,2.81.54,3.53a3.48,3.48,0,0,1-3.45-.92,5.39,5.39,0,0,1-1-4.06A5.23,5.23,0,0,1,13.14,81.6Z"/><path class="cls-4" d="M-6.46,88A23.35,23.35,0,0,0,4.29,89.18c-5.29,3.59-7.94,10-7.54,14.75,0,.31.22.58.58.52a.53.53,0,0,0,.47-.51C-2.68,98.78.66,91.67,7.14,88.78a17.71,17.71,0,0,1,9.75-.93,8.18,8.18,0,0,0-3.69,1.59,9.36,9.36,0,0,0-3.59,6.81c0,.23.09.66.45.69.54,0,.58-.43.59-.64a8.39,8.39,0,0,1,3.18-6,7.69,7.69,0,0,1,6.86-1.17c.38.2.75.52,1.09.1s-.16-.78-.43-.93l-.25-.13,0,0c-3.51-1.83-9.29-2.16-13.47-.63l-.16.06c-2.9.9-9.15,1.36-13.48-.47-5.68-2.4-8.65-6.49-8.84-12.16a.53.53,0,0,0-.51-.58c-.45,0-.54.43-.53.64C-15.72,81.06-12.54,85.45-6.46,88Z"/><path class="cls-4" d="M6.85,96.46c1.07-.58,2.2-2.2,1.69-3.15A3.5,3.5,0,0,0,5,93a5.44,5.44,0,0,0-2.31,3.5A5.26,5.26,0,0,0,6.85,96.46Z"/><circle class="cls-4" cx="50.21" cy="89.34" r="1.88"/><ellipse class="cls-4" cx="50.07" cy="81.12" rx="1.73" ry="5.35"/><ellipse class="cls-4" cx="50.21" cy="97.93" rx="1.73" ry="5.35"/><ellipse class="cls-4" cx="41.88" cy="89.34" rx="5.35" ry="1.73"/><ellipse class="cls-4" cx="41.67" cy="80.75" rx="1.63" ry="9.08" transform="translate(-45.01 53.5) rotate(-45.25)"/><ellipse class="cls-4" cx="41.67" cy="98.12" rx="9.08" ry="1.63" transform="translate(-57 57.77) rotate(-44.75)"/><ellipse class="cls-4" cx="58.97" cy="89.4" rx="5.35" ry="1.73"/><ellipse class="cls-4" cx="59.18" cy="80.8" rx="9.08" ry="1.63" transform="translate(-39.73 65.08) rotate(-44.75)"/><ellipse class="cls-4" cx="59.18" cy="98.17" rx="1.63" ry="9.08" transform="translate(-52.2 71.09) rotate(-45.25)"/><path class="cls-4" d="M163.23,89.48c0,.43,7.14,2.15,8.79,2.14s3-1,3-2.16-1.35-2.14-3-2.13S163.23,89,163.23,89.48Z"/><circle class="cls-4" cx="160" cy="89.47" r="1.71"/><path class="cls-4" d="M162.3,87.31c.28.32,6.77-3.11,8-4.2s1.6-2.71.82-3.6-2.43-.71-3.67.39S162,86.94,162.3,87.31Z"/><path class="cls-4" d="M160.1,86.24c.43,0,2.18-7.12,2.18-8.77s-1-3-2.14-3-2.15,1.34-2.15,3S159.62,86.24,160.1,86.24Z"/><path class="cls-4" d="M162.22,91.64c.29-.32,6.77,3.1,8,4.2s1.6,2.71.81,3.59-2.42.72-3.66-.38S161.9,92,162.22,91.64Z"/><path class="cls-4" d="M160,92.71c.43,0,2.18,7.12,2.18,8.77s-1,3-2.15,3-2.14-1.34-2.14-3S159.54,92.71,160,92.71Z"/><path class="cls-4" d="M120.52,89.26c0,1.55,17.94,7.78,23.94,7.78s10.86-3.48,10.86-7.78-4.86-7.78-10.86-7.78S120.52,87.5,120.52,89.26Z"/><path class="cls-4" d="M118.87,92.45c.4-.55,11.3,3.82,13.45,5.37s3,4,1.89,5.58-3.75,1.54-5.9,0S118.42,93.08,118.87,92.45Z"/><path class="cls-4" d="M118.87,86.61c.4.56,11.3-3.82,13.45-5.36s3-4,1.89-5.59-3.75-1.54-5.9,0S118.42,86,118.87,86.61Z"/><circle class="cls-4" cx="115.5" cy="89.26" r="2.6"/><path class="cls-4" d="M107.49,97.55c-1.21.15-2.86,1.24-2.72,2.31s2,1.72,3.21,1.57A5.4,5.4,0,0,0,111.41,99,5.23,5.23,0,0,0,107.49,97.55Z"/><path class="cls-4" d="M104.66,91.25c-1.15.4-2.54,1.82-2.18,2.84s2.32,1.26,3.47.86a5.4,5.4,0,0,0,2.85-3.07A5.2,5.2,0,0,0,104.66,91.25Z"/><path class="cls-4" d="M113,76.37c.69,1,1,2.95.08,3.57s-2.62-.35-3.31-1.35a5.46,5.46,0,0,1-.49-4.17A5.25,5.25,0,0,1,113,76.37Z"/><path class="cls-4" d="M108.83,80.89c.88.84,1.55,2.7.8,3.48s-2.64.19-3.51-.66a5.41,5.41,0,0,1-1.32-4A5.24,5.24,0,0,1,108.83,80.89Z"/><path class="cls-4" d="M101.85,83.05c1.13.46,2.45,1.93,2,2.93s-2.37,1.16-3.5.7a5.38,5.38,0,0,1-2.71-3.2A5.28,5.28,0,0,1,101.85,83.05Z"/><path class="cls-4" d="M90.37,102c-.55-1.08-.56-3.06.4-3.55.44-.22,2.39.4,3.1,1.79a5.43,5.43,0,0,1-.08,4.19A5.19,5.19,0,0,1,90.37,102Z"/><path class="cls-4" d="M87.45,81.68c-.81.91-1.34,2.81-.53,3.53.36.33,2.41.25,3.45-.91a5.42,5.42,0,0,0,1-4.07A5.26,5.26,0,0,0,87.45,81.68Z"/><path class="cls-4" d="M107.05,88.1A23.34,23.34,0,0,1,96.3,89.26c5.3,3.59,8,10,7.54,14.76a.49.49,0,0,1-.58.51.5.5,0,0,1-.46-.5c.48-5.16-2.86-12.28-9.34-15.17a17.74,17.74,0,0,0-9.76-.93,8.33,8.33,0,0,1,3.7,1.59A9.4,9.4,0,0,1,91,96.33c0,.23-.09.66-.45.69-.53,0-.57-.43-.59-.64a8.3,8.3,0,0,0-3.17-6,7.67,7.67,0,0,0-6.86-1.18c-.39.2-.76.53-1.1.1s.16-.78.44-.93l.25-.13a.07.07,0,0,1,0,0C83,86.35,88.82,86,93,87.56l.16.06c2.9.9,9.14,1.35,13.48-.48,5.68-2.4,8.65-6.49,8.83-12.16a.53.53,0,0,1,.52-.57c.44,0,.53.43.52.64C116.32,81.14,113.13,85.53,107.05,88.1Z"/><path class="cls-4" d="M93.74,96.55c-1.06-.59-2.2-2.21-1.68-3.15.23-.43,2.2-1,3.56-.29a5.47,5.47,0,0,1,2.32,3.5A5.22,5.22,0,0,1,93.74,96.55Z"/><circle class="cls-4" cx="76.04" cy="116.36" r="1.91"/><circle class="cls-4" cx="76.04" cy="124.11" r="1.91"/><circle class="cls-4" cx="119.08" cy="116.41" r="1.91"/><circle class="cls-4" cx="119.08" cy="124.17" r="1.91"/><path class="cls-4" d="M27.15,120.06c0,1.55-17.93,7.78-23.93,7.78s-10.86-3.49-10.86-7.78,4.86-7.78,10.86-7.78S27.15,118.3,27.15,120.06Z"/><path class="cls-4" d="M28.8,123.25c-.4-.56-11.29,3.82-13.44,5.36s-3,4-1.89,5.59,3.74,1.54,5.89,0S29.26,123.88,28.8,123.25Z"/><path class="cls-4" d="M28.8,117.41c-.4.55-11.29-3.82-13.44-5.37s-3-4-1.89-5.58,3.74-1.54,5.89,0S29.26,116.78,28.8,117.41Z"/><circle class="cls-4" cx="32.18" cy="120.06" r="2.6"/><path class="cls-4" d="M40.19,128.34c1.2.16,2.85,1.25,2.72,2.32s-2,1.72-3.21,1.57a5.43,5.43,0,0,1-3.44-2.41A5.29,5.29,0,0,1,40.19,128.34Z"/><path class="cls-4" d="M43,122.05c1.15.4,2.53,1.81,2.17,2.83s-2.32,1.26-3.46.86a5.43,5.43,0,0,1-2.86-3.07A5.28,5.28,0,0,1,43,122.05Z"/><path class="cls-4" d="M34.64,107.16c-.69,1-1,3-.08,3.57s2.61-.35,3.3-1.35a5.39,5.39,0,0,0,.49-4.16A5.19,5.19,0,0,0,34.64,107.16Z"/><path class="cls-4" d="M38.85,111.69c-.88.84-1.55,2.7-.8,3.48s2.63.18,3.51-.66a5.43,5.43,0,0,0,1.32-4A5.22,5.22,0,0,0,38.85,111.69Z"/><path class="cls-4" d="M45.82,113.85c-1.12.45-2.44,1.93-2,2.93s2.38,1.15,3.51.7a5.42,5.42,0,0,0,2.71-3.2A5.26,5.26,0,0,0,45.82,113.85Z"/><path class="cls-4" d="M57.3,132.83c.55-1.09.57-3.07-.4-3.55-.43-.22-2.39.39-3.09,1.78a5.41,5.41,0,0,0,.08,4.2A5.28,5.28,0,0,0,57.3,132.83Z"/><path class="cls-4" d="M60.22,112.48c.81.9,1.34,2.81.54,3.53a3.48,3.48,0,0,1-3.45-.92,5.39,5.39,0,0,1-1-4.06A5.23,5.23,0,0,1,60.22,112.48Z"/><path class="cls-4" d="M40.62,118.9a23.35,23.35,0,0,0,10.75,1.16c-5.29,3.59-7.94,10-7.54,14.75,0,.31.22.58.58.52a.53.53,0,0,0,.47-.51c-.48-5.16,2.86-12.27,9.34-15.16a17.62,17.62,0,0,1,9.75-.93,8.27,8.27,0,0,0-3.69,1.58,9.38,9.38,0,0,0-3.59,6.82c0,.23.09.66.45.69.54.05.58-.43.59-.64a8.39,8.39,0,0,1,3.18-6A7.69,7.69,0,0,1,67.77,120c.38.2.75.52,1.09.1s-.16-.79-.43-.93l-.25-.13,0,0c-3.51-1.83-9.29-2.16-13.47-.63l-.16.06c-2.9.9-9.15,1.36-13.48-.47-5.68-2.4-8.65-6.49-8.84-12.17a.53.53,0,0,0-.52-.57c-.44,0-.53.43-.52.64C31.36,111.94,34.54,116.33,40.62,118.9Z"/><path class="cls-4" d="M53.93,127.34c1.07-.58,2.2-2.2,1.68-3.15a3.48,3.48,0,0,0-3.56-.28,5.44,5.44,0,0,0-2.31,3.5A5.26,5.26,0,0,0,53.93,127.34Z"/><circle class="cls-4" cx="97.29" cy="120.22" r="1.88"/><ellipse class="cls-4" cx="97.15" cy="111.99" rx="1.73" ry="5.35"/><ellipse class="cls-4" cx="97.29" cy="128.81" rx="1.73" ry="5.35"/><ellipse class="cls-4" cx="88.96" cy="120.22" rx="5.35" ry="1.73"/><ellipse class="cls-4" cx="88.75" cy="111.63" rx="1.63" ry="9.08" transform="translate(-53.01 96.07) rotate(-45.25)"/><ellipse class="cls-4" cx="88.75" cy="129" rx="9.08" ry="1.63" transform="translate(-65.09 99.86) rotate(-44.75)"/><ellipse class="cls-4" cx="106.05" cy="120.28" rx="5.35" ry="1.73"/><ellipse class="cls-4" cx="106.26" cy="111.68" rx="9.08" ry="1.63" transform="translate(-47.83 107.17) rotate(-44.75)"/><ellipse class="cls-4" cx="106.26" cy="129.05" rx="1.63" ry="9.08" transform="translate(-60.2 113.67) rotate(-45.25)"/><path class="cls-4" d="M210.31,120.36c0,.43,7.14,2.14,8.79,2.14s3-1,3-2.16-1.35-2.14-3-2.13S210.31,119.88,210.31,120.36Z"/><circle class="cls-4" cx="207.08" cy="120.35" r="1.71"/><path class="cls-4" d="M209.38,118.19c.28.32,6.77-3.11,8-4.21s1.6-2.7.82-3.59-2.43-.71-3.67.39S209.06,117.82,209.38,118.19Z"/><path class="cls-4" d="M207.18,117.12c.43,0,2.18-7.12,2.18-8.78s-1-3-2.14-3-2.15,1.34-2.15,3S206.7,117.12,207.18,117.12Z"/><path class="cls-4" d="M209.3,122.52c.29-.32,6.77,3.1,8,4.2s1.6,2.71.81,3.59-2.42.71-3.66-.38S209,122.88,209.3,122.52Z"/><path class="cls-4" d="M207.11,123.58c.43,0,2.18,7.12,2.18,8.78s-1,3-2.15,3-2.14-1.34-2.14-3S206.62,123.58,207.11,123.58Z"/><path class="cls-4" d="M167.6,120.14c0,1.55,17.94,7.78,23.94,7.78s10.86-3.48,10.86-7.78-4.86-7.78-10.86-7.78S167.6,118.38,167.6,120.14Z"/><path class="cls-4" d="M166,123.33c.4-.56,11.3,3.82,13.45,5.36s3,4.05,1.89,5.59-3.75,1.54-5.9,0S165.5,124,166,123.33Z"/><path class="cls-4" d="M166,117.49c.4.56,11.3-3.82,13.45-5.36s3-4,1.89-5.59-3.75-1.54-5.9,0S165.5,116.86,166,117.49Z"/><circle class="cls-4" cx="162.58" cy="120.14" r="2.6"/><path class="cls-4" d="M154.57,128.43c-1.21.15-2.86,1.24-2.72,2.31s2,1.72,3.21,1.57a5.4,5.4,0,0,0,3.43-2.41A5.23,5.23,0,0,0,154.57,128.43Z"/><path class="cls-4" d="M151.73,122.13c-1.14.4-2.53,1.81-2.17,2.84s2.32,1.26,3.47.86a5.43,5.43,0,0,0,2.85-3.07A5.22,5.22,0,0,0,151.73,122.13Z"/><path class="cls-4" d="M160.12,107.25c.68,1,1,3,.08,3.57s-2.62-.35-3.31-1.36a5.44,5.44,0,0,1-.49-4.16A5.25,5.25,0,0,1,160.12,107.25Z"/><path class="cls-4" d="M155.91,111.77c.88.84,1.55,2.7.8,3.48s-2.64.19-3.51-.66a5.41,5.41,0,0,1-1.32-4A5.24,5.24,0,0,1,155.91,111.77Z"/><path class="cls-4" d="M148.93,113.93c1.13.46,2.44,1.93,2,2.93s-2.37,1.16-3.5.7a5.38,5.38,0,0,1-2.71-3.2A5.24,5.24,0,0,1,148.93,113.93Z"/><path class="cls-4" d="M137.45,132.91c-.55-1.08-.56-3.06.4-3.55.43-.22,2.39.4,3.1,1.79a5.43,5.43,0,0,1-.08,4.19A5.23,5.23,0,0,1,137.45,132.91Z"/><path class="cls-4" d="M134.53,112.56c-.81.91-1.34,2.81-.54,3.53.37.33,2.42.25,3.46-.91a5.47,5.47,0,0,0,1-4.07A5.25,5.25,0,0,0,134.53,112.56Z"/><path class="cls-4" d="M154.13,119a23.34,23.34,0,0,1-10.75,1.16c5.3,3.59,8,10,7.54,14.76a.49.49,0,0,1-.58.51.5.5,0,0,1-.46-.51c.48-5.15-2.86-12.27-9.34-15.16a17.74,17.74,0,0,0-9.76-.93,8.21,8.21,0,0,1,3.7,1.59,9.4,9.4,0,0,1,3.58,6.81c0,.23-.09.66-.45.69-.53,0-.57-.43-.59-.64a8.3,8.3,0,0,0-3.17-6,7.67,7.67,0,0,0-6.86-1.18c-.39.2-.76.53-1.1.1s.16-.78.44-.93l.25-.13a.07.07,0,0,1,0,0c3.5-1.84,9.28-2.17,13.47-.63l.16,0c2.9.91,9.14,1.36,13.48-.47,5.68-2.4,8.65-6.49,8.83-12.16a.53.53,0,0,1,.52-.57c.44,0,.53.43.52.64C163.4,112,160.21,116.41,154.13,119Z"/><path class="cls-4" d="M140.82,127.43c-1.06-.59-2.2-2.21-1.68-3.16a3.48,3.48,0,0,1,3.56-.28,5.4,5.4,0,0,1,2.31,3.5A5.23,5.23,0,0,1,140.82,127.43Z"/><circle class="cls-4" cx="29.14" cy="148.78" r="1.91"/><circle class="cls-4" cx="29.14" cy="156.54" r="1.91"/><circle class="cls-4" cx="72.18" cy="148.83" r="1.91"/><circle class="cls-4" cx="72.18" cy="156.59" r="1.91"/><path class="cls-4" d="M-1.07,146.27c-1.13.46-2.45,1.93-2,2.93s2.37,1.16,3.5.7a5.42,5.42,0,0,0,2.71-3.2A5.24,5.24,0,0,0-1.07,146.27Z"/><path class="cls-4" d="M10.41,165.25c.54-1.09.56-3.06-.41-3.55-.43-.22-2.39.4-3.09,1.79A5.43,5.43,0,0,0,7,167.68,5.29,5.29,0,0,0,10.41,165.25Z"/><path class="cls-4" d="M13.32,144.9c.81.91,1.35,2.81.54,3.53-.36.33-2.41.25-3.45-.91a5.42,5.42,0,0,1-1-4.07A5.23,5.23,0,0,1,13.32,144.9Z"/><path class="cls-4" d="M-6.27,151.32a23.32,23.32,0,0,0,10.75,1.16c-5.3,3.59-8,10-7.55,14.76a.5.5,0,0,0,.59.51.52.52,0,0,0,.46-.51C-2.5,162.09.84,155,7.32,152.08a17.72,17.72,0,0,1,9.75-.93,8.18,8.18,0,0,0-3.69,1.59,9.38,9.38,0,0,0-3.59,6.81c0,.23.09.66.45.69.54,0,.58-.43.59-.64a8.35,8.35,0,0,1,3.18-6,7.66,7.66,0,0,1,6.86-1.18c.38.2.75.52,1.1.1s-.17-.78-.44-.93l-.25-.13,0,0c-3.51-1.84-9.29-2.17-13.47-.63l-.16.05c-2.9.91-9.15,1.36-13.48-.47-5.68-2.4-8.65-6.49-8.84-12.16a.51.51,0,0,0-.51-.57c-.45,0-.53.43-.53.64C-15.54,144.36-12.36,148.75-6.27,151.32Z"/><path class="cls-4" d="M7,159.77c1.06-.59,2.2-2.21,1.68-3.16a3.49,3.49,0,0,0-3.56-.28,5.47,5.47,0,0,0-2.32,3.5A5.26,5.26,0,0,0,7,159.77Z"/><circle class="cls-4" cx="50.4" cy="152.64" r="1.88"/><ellipse class="cls-4" cx="50.25" cy="144.42" rx="1.73" ry="5.35"/><ellipse class="cls-4" cx="50.4" cy="161.24" rx="1.73" ry="5.35"/><ellipse class="cls-4" cx="42.06" cy="152.64" rx="5.35" ry="1.73"/><ellipse class="cls-4" cx="41.85" cy="144.05" rx="1.63" ry="9.08" transform="translate(-89.92 72.36) rotate(-45.25)"/><ellipse class="cls-4" cx="41.85" cy="161.42" rx="9.08" ry="1.63" transform="translate(-101.51 76.24) rotate(-44.75)"/><ellipse class="cls-4" cx="59.15" cy="152.7" rx="5.35" ry="1.73"/><ellipse class="cls-4" cx="59.36" cy="144.1" rx="9.08" ry="1.63" transform="translate(-84.25 83.55) rotate(-44.75)"/><ellipse class="cls-4" cx="59.36" cy="161.47" rx="1.63" ry="9.08" transform="translate(-97.11 89.96) rotate(-45.25)"/><path class="cls-4" d="M163.42,152.78c0,.43,7.13,2.15,8.78,2.14s3-1,3-2.16-1.36-2.14-3-2.13S163.41,152.3,163.42,152.78Z"/><circle class="cls-4" cx="160.18" cy="152.77" r="1.71"/><path class="cls-4" d="M162.48,150.61c.28.32,6.77-3.1,8-4.2s1.61-2.71.82-3.6-2.43-.71-3.67.39S162.16,150.25,162.48,150.61Z"/><path class="cls-4" d="M160.28,149.54c.43,0,2.18-7.12,2.18-8.77s-1-3-2.14-3-2.15,1.34-2.15,3S159.8,149.54,160.28,149.54Z"/><path class="cls-4" d="M162.41,154.94c.28-.32,6.76,3.1,8,4.2s1.6,2.71.81,3.59-2.42.72-3.66-.38S162.08,155.3,162.41,154.94Z"/><path class="cls-4" d="M160.21,156c.43,0,2.18,7.12,2.18,8.77s-1,3-2.15,3-2.14-1.34-2.14-3S159.72,156,160.21,156Z"/><path class="cls-4" d="M120.7,152.56c0,1.55,17.94,7.78,23.94,7.78s10.86-3.48,10.86-7.78-4.86-7.78-10.86-7.78S120.7,150.8,120.7,152.56Z"/><path class="cls-4" d="M119.05,155.75c.4-.55,11.3,3.82,13.45,5.37s3,4,1.89,5.58-3.75,1.54-5.9,0S118.6,156.39,119.05,155.75Z"/><path class="cls-4" d="M119.05,149.91c.4.56,11.3-3.81,13.45-5.36s3-4.05,1.89-5.59-3.75-1.53-5.9,0S118.6,149.28,119.05,149.91Z"/><circle class="cls-4" cx="115.68" cy="152.56" r="2.6"/><path class="cls-4" d="M107.67,160.85c-1.21.15-2.86,1.24-2.72,2.31s2,1.72,3.21,1.57a5.47,5.47,0,0,0,3.44-2.4A5.24,5.24,0,0,0,107.67,160.85Z"/><path class="cls-4" d="M104.84,154.55c-1.15.41-2.53,1.82-2.18,2.84s2.32,1.26,3.47.86a5.4,5.4,0,0,0,2.85-3.07A5.2,5.2,0,0,0,104.84,154.55Z"/><path class="cls-4" d="M113.22,139.67c.69,1,1,3,.08,3.57s-2.62-.35-3.31-1.35a5.46,5.46,0,0,1-.49-4.17A5.25,5.25,0,0,1,113.22,139.67Z"/><path class="cls-4" d="M109,144.19c.88.85,1.55,2.71.8,3.49s-2.64.18-3.51-.66a5.44,5.44,0,0,1-1.32-4A5.27,5.27,0,0,1,109,144.19Z"/><path class="cls-4" d="M102,146.35c1.13.46,2.45,1.93,2,2.94s-2.37,1.15-3.5.7a5.48,5.48,0,0,1-2.71-3.2A5.23,5.23,0,0,1,102,146.35Z"/><path class="cls-4" d="M90.55,165.33c-.55-1.08-.56-3.06.4-3.55a3.5,3.5,0,0,1,3.1,1.79,5.43,5.43,0,0,1-.08,4.19A5.19,5.19,0,0,1,90.55,165.33Z"/><path class="cls-4" d="M87.64,145c-.82.91-1.35,2.81-.54,3.54a3.48,3.48,0,0,0,3.45-.92,5.41,5.41,0,0,0,1-4.07A5.23,5.23,0,0,0,87.64,145Z"/><path class="cls-4" d="M107.23,151.4c-3,1.28-7.25,1.54-10.75,1.17,5.3,3.58,8,10,7.54,14.75a.49.49,0,0,1-.58.51.51.51,0,0,1-.46-.5c.48-5.16-2.86-12.28-9.34-15.17a17.74,17.74,0,0,0-9.76-.93,8.44,8.44,0,0,1,3.7,1.59,9.42,9.42,0,0,1,3.59,6.82c0,.22-.1.65-.46.68-.53.05-.57-.42-.59-.64a8.3,8.3,0,0,0-3.17-6,7.67,7.67,0,0,0-6.86-1.18c-.39.2-.76.53-1.1.1s.17-.78.44-.93l.25-.13,0,0c3.51-1.84,9.28-2.17,13.47-.63l.16.06c2.9.9,9.14,1.36,13.48-.48,5.68-2.4,8.65-6.49,8.83-12.16a.53.53,0,0,1,.52-.57c.44,0,.53.43.53.64C116.5,144.44,113.31,148.83,107.23,151.4Z"/><path class="cls-4" d="M93.92,159.85c-1.06-.58-2.2-2.2-1.68-3.15.23-.43,2.2-1,3.56-.28a5.46,5.46,0,0,1,2.32,3.49A5.22,5.22,0,0,1,93.92,159.85Z"/><circle class="cls-4" cx="76.04" cy="179.42" r="1.91"/><circle class="cls-4" cx="76.04" cy="187.17" r="1.91"/><circle class="cls-4" cx="119.09" cy="179.47" r="1.91"/><circle class="cls-4" cx="119.09" cy="187.23" r="1.91"/><path class="cls-4" d="M27.16,183.12c0,1.55-17.94,7.78-23.94,7.78s-10.86-3.49-10.86-7.78,4.86-7.78,10.86-7.78S27.16,181.36,27.16,183.12Z"/><path class="cls-4" d="M28.81,186.31c-.4-.56-11.3,3.82-13.45,5.36s-3,4.05-1.89,5.59,3.75,1.54,5.9,0S29.26,186.94,28.81,186.31Z"/><path class="cls-4" d="M28.81,180.47c-.4.56-11.3-3.82-13.45-5.36s-3-4.05-1.89-5.59,3.75-1.54,5.9,0S29.26,179.84,28.81,180.47Z"/><circle class="cls-4" cx="32.18" cy="183.12" r="2.6"/><path class="cls-4" d="M40.19,191.4c1.21.16,2.86,1.25,2.72,2.32s-2,1.72-3.21,1.57a5.4,5.4,0,0,1-3.43-2.41A5.26,5.26,0,0,1,40.19,191.4Z"/><path class="cls-4" d="M43,185.11c1.14.4,2.53,1.81,2.17,2.83s-2.32,1.27-3.47.86a5.44,5.44,0,0,1-2.85-3.07A5.27,5.27,0,0,1,43,185.11Z"/><path class="cls-4" d="M34.64,170.22c-.68,1-1,3-.08,3.57s2.62-.35,3.31-1.35a5.44,5.44,0,0,0,.49-4.16A5.2,5.2,0,0,0,34.64,170.22Z"/><path class="cls-4" d="M38.85,174.75c-.87.84-1.55,2.7-.8,3.48s2.64.18,3.51-.66a5.42,5.42,0,0,0,1.32-4A5.24,5.24,0,0,0,38.85,174.75Z"/><path class="cls-4" d="M45.83,176.91c-1.13.45-2.44,1.93-2,2.93s2.37,1.15,3.5.7a5.38,5.38,0,0,0,2.71-3.2A5.24,5.24,0,0,0,45.83,176.91Z"/><path class="cls-4" d="M57.31,195.89c.55-1.09.56-3.06-.4-3.55-.43-.22-2.39.39-3.09,1.78a5.42,5.42,0,0,0,.07,4.2A5.27,5.27,0,0,0,57.31,195.89Z"/><path class="cls-4" d="M60.23,175.54c.81.9,1.34,2.81.54,3.53a3.5,3.5,0,0,1-3.46-.92,5.44,5.44,0,0,1-1-4.06A5.25,5.25,0,0,1,60.23,175.54Z"/><path class="cls-4" d="M40.63,182a23.34,23.34,0,0,0,10.75,1.16c-5.3,3.59-7.94,10-7.54,14.75,0,.31.21.58.58.52a.51.51,0,0,0,.46-.51c-.48-5.16,2.86-12.27,9.34-15.16a17.74,17.74,0,0,1,9.76-.93,8.21,8.21,0,0,0-3.7,1.59,9.38,9.38,0,0,0-3.58,6.81c0,.23.09.66.45.69.53.05.57-.43.59-.64a8.32,8.32,0,0,1,3.18-6A7.67,7.67,0,0,1,67.77,183c.39.2.76.52,1.1.1s-.16-.78-.44-.93l-.25-.13,0,0c-3.5-1.83-9.28-2.16-13.47-.63l-.16.06c-2.9.9-9.14,1.36-13.48-.47-5.68-2.4-8.65-6.49-8.83-12.16a.54.54,0,0,0-.52-.58c-.44,0-.53.43-.52.64C31.36,175,34.55,179.39,40.63,182Z"/><path class="cls-4" d="M53.94,190.4c1.07-.58,2.2-2.2,1.68-3.15a3.48,3.48,0,0,0-3.56-.28,5.4,5.4,0,0,0-2.31,3.5A5.25,5.25,0,0,0,53.94,190.4Z"/><circle class="cls-4" cx="97.3" cy="183.28" r="1.88"/><ellipse class="cls-4" cx="97.15" cy="175.06" rx="1.73" ry="5.35"/><ellipse class="cls-4" cx="97.3" cy="191.87" rx="1.73" ry="5.35"/><ellipse class="cls-4" cx="88.97" cy="183.28" rx="5.35" ry="1.73"/><ellipse class="cls-4" cx="88.75" cy="174.69" rx="1.63" ry="9.08" transform="translate(-97.79 114.74) rotate(-45.25)"/><ellipse class="cls-4" cx="88.75" cy="192.06" rx="9.08" ry="1.63" transform="translate(-109.49 118.14) rotate(-44.75)"/><ellipse class="cls-4" cx="106.05" cy="183.34" rx="5.35" ry="1.73"/><ellipse class="cls-4" cx="106.27" cy="174.74" rx="9.08" ry="1.63" transform="translate(-92.22 125.45) rotate(-44.75)"/><ellipse class="cls-4" cx="106.27" cy="192.11" rx="1.63" ry="9.08" transform="translate(-104.98 132.34) rotate(-45.25)"/><path class="cls-4" d="M210.32,183.42c0,.43,7.13,2.15,8.78,2.14s3-1,3-2.16-1.35-2.14-3-2.13S210.32,182.94,210.32,183.42Z"/><circle class="cls-4" cx="207.08" cy="183.41" r="1.71"/><path class="cls-4" d="M209.38,181.25c.29.32,6.77-3.11,8-4.2s1.6-2.71.81-3.6-2.42-.71-3.66.39S209.06,180.88,209.38,181.25Z"/><path class="cls-4" d="M207.19,180.18c.43,0,2.18-7.12,2.18-8.77s-1-3-2.15-3-2.14,1.34-2.14,3S206.7,180.18,207.19,180.18Z"/><path class="cls-4" d="M209.31,185.58c.28-.32,6.77,3.1,8,4.2s1.6,2.71.81,3.59-2.43.72-3.66-.38S209,185.94,209.31,185.58Z"/><path class="cls-4" d="M207.11,186.65c.43,0,2.18,7.12,2.18,8.77s-1,3-2.14,3-2.15-1.34-2.15-3S206.63,186.65,207.11,186.65Z"/><path class="cls-4" d="M167.61,183.2c0,1.55,17.93,7.78,23.93,7.78s10.87-3.48,10.87-7.78-4.87-7.78-10.87-7.78S167.61,181.44,167.61,183.2Z"/><path class="cls-4" d="M166,186.39c.4-.55,11.29,3.82,13.44,5.37s3,4,1.89,5.58-3.74,1.54-5.89,0S165.5,187,166,186.39Z"/><path class="cls-4" d="M166,180.55c.4.56,11.29-3.82,13.44-5.36s3-4.05,1.89-5.59-3.74-1.54-5.89,0S165.5,179.92,166,180.55Z"/><circle class="cls-4" cx="162.58" cy="183.2" r="2.6"/><path class="cls-4" d="M154.57,191.49c-1.2.15-2.85,1.24-2.72,2.31s2,1.72,3.21,1.57A5.43,5.43,0,0,0,158.5,193,5.24,5.24,0,0,0,154.57,191.49Z"/><path class="cls-4" d="M151.74,185.19c-1.15.4-2.53,1.82-2.17,2.84s2.32,1.26,3.46.86a5.43,5.43,0,0,0,2.86-3.07A5.23,5.23,0,0,0,151.74,185.19Z"/><path class="cls-4" d="M160.12,170.31c.69,1,1,2.95.08,3.57s-2.61-.35-3.3-1.35a5.42,5.42,0,0,1-.49-4.17A5.25,5.25,0,0,1,160.12,170.31Z"/><path class="cls-4" d="M155.92,174.83c.87.84,1.54,2.7.79,3.48s-2.63.19-3.51-.66a5.41,5.41,0,0,1-1.32-4A5.25,5.25,0,0,1,155.92,174.83Z"/><path class="cls-4" d="M148.94,177c1.12.46,2.44,1.93,2,2.93s-2.38,1.16-3.51.7a5.42,5.42,0,0,1-2.71-3.2A5.3,5.3,0,0,1,148.94,177Z"/><path class="cls-4" d="M137.46,196c-.55-1.08-.57-3.06.4-3.55.43-.22,2.39.4,3.09,1.79a5.38,5.38,0,0,1-.08,4.19A5.2,5.2,0,0,1,137.46,196Z"/><path class="cls-4" d="M134.54,175.62c-.81.91-1.34,2.81-.54,3.53.36.33,2.41.25,3.45-.91a5.42,5.42,0,0,0,1-4.07A5.23,5.23,0,0,0,134.54,175.62Z"/><path class="cls-4" d="M154.14,182a23.35,23.35,0,0,1-10.75,1.16c5.29,3.59,7.94,10,7.54,14.76,0,.3-.22.57-.58.51a.52.52,0,0,1-.47-.5c.48-5.16-2.85-12.28-9.34-15.17a17.71,17.71,0,0,0-9.75-.93,8.24,8.24,0,0,1,3.69,1.59,9.38,9.38,0,0,1,3.59,6.81c0,.23-.09.66-.45.69-.54,0-.58-.43-.59-.64a8.35,8.35,0,0,0-3.18-6,7.66,7.66,0,0,0-6.86-1.18c-.38.2-.75.53-1.09.1s.16-.78.43-.93l.25-.13,0,0c3.51-1.84,9.29-2.17,13.47-.63l.16.06c2.9.9,9.15,1.35,13.48-.48,5.68-2.4,8.65-6.49,8.84-12.16a.53.53,0,0,1,.52-.57c.44,0,.53.43.52.64C163.4,175.08,160.22,179.47,154.14,182Z"/><path class="cls-4" d="M140.83,190.49c-1.07-.59-2.2-2.21-1.68-3.15.23-.43,2.19-1,3.56-.29a5.44,5.44,0,0,1,2.31,3.5A5.19,5.19,0,0,1,140.83,190.49Z"/><circle class="cls-4" cx="29.2" cy="211.86" r="1.91"/><circle class="cls-4" cx="29.2" cy="219.61" r="1.91"/><circle class="cls-4" cx="72.25" cy="211.91" r="1.91"/><circle class="cls-4" cx="72.25" cy="219.66" r="1.91"/><path class="cls-4" d="M-1,209.35c-1.13.45-2.44,1.92-2,2.93s2.37,1.15,3.5.7a5.44,5.44,0,0,0,2.71-3.2A5.23,5.23,0,0,0-1,209.35Z"/><path class="cls-4" d="M10.47,228.32c.55-1.08.56-3.06-.4-3.54-.43-.22-2.39.39-3.09,1.78a5.43,5.43,0,0,0,.07,4.2A5.26,5.26,0,0,0,10.47,228.32Z"/><path class="cls-4" d="M13.39,208c.81.9,1.34,2.8.54,3.53a3.5,3.5,0,0,1-3.46-.92,5.45,5.45,0,0,1-1-4.07A5.23,5.23,0,0,1,13.39,208Z"/><path class="cls-4" d="M-6.21,214.4a23.34,23.34,0,0,0,10.75,1.16c-5.29,3.58-7.94,10-7.54,14.75a.49.49,0,0,0,.58.51.5.5,0,0,0,.46-.5c-.48-5.16,2.86-12.27,9.34-15.17a17.65,17.65,0,0,1,9.76-.92,8.31,8.31,0,0,0-3.7,1.58,9.41,9.41,0,0,0-3.58,6.82c0,.23.09.66.45.69.53,0,.57-.43.59-.64a8.3,8.3,0,0,1,3.18-6,7.64,7.64,0,0,1,6.85-1.17c.39.19.76.52,1.1.09s-.16-.78-.44-.92l-.25-.14a.07.07,0,0,0,0,0c-3.5-1.83-9.28-2.17-13.47-.63l-.16.06c-2.9.9-9.14,1.36-13.47-.48-5.69-2.39-8.66-6.49-8.84-12.16a.53.53,0,0,0-.52-.57c-.44,0-.53.43-.52.64C-15.48,207.44-12.29,211.83-6.21,214.4Z"/><path class="cls-4" d="M7.1,222.84c1.07-.58,2.2-2.2,1.68-3.15-.23-.43-2.19-1-3.56-.28a5.4,5.4,0,0,0-2.31,3.5A5.25,5.25,0,0,0,7.1,222.84Z"/><circle class="cls-4" cx="50.46" cy="215.72" r="1.88"/><ellipse class="cls-4" cx="50.31" cy="207.49" rx="1.73" ry="5.35"/><ellipse class="cls-4" cx="50.46" cy="224.31" rx="1.73" ry="5.35"/><ellipse class="cls-4" cx="42.13" cy="215.72" rx="5.35" ry="1.73"/><ellipse class="cls-4" cx="41.91" cy="207.13" rx="1.63" ry="9.08" transform="translate(-134.69 91.08) rotate(-45.25)"/><ellipse class="cls-4" cx="41.91" cy="224.49" rx="9.08" ry="1.63" transform="translate(-145.9 94.56) rotate(-44.75)"/><ellipse class="cls-4" cx="59.21" cy="215.77" rx="5.35" ry="1.73"/><ellipse class="cls-4" cx="59.43" cy="207.18" rx="9.08" ry="1.63" transform="translate(-128.63 101.87) rotate(-44.75)"/><ellipse class="cls-4" cx="59.43" cy="224.55" rx="1.63" ry="9.08" transform="translate(-141.89 108.67) rotate(-45.25)"/><path class="cls-4" d="M163.48,215.86c0,.43,7.13,2.14,8.79,2.13s3-1,3-2.16-1.35-2.13-3-2.13S163.48,215.37,163.48,215.86Z"/><circle class="cls-4" cx="160.24" cy="215.85" r="1.71"/><path class="cls-4" d="M162.54,213.68c.29.32,6.77-3.1,8-4.2s1.6-2.71.81-3.59-2.42-.71-3.66.39S162.22,213.32,162.54,213.68Z"/><path class="cls-4" d="M160.35,212.62c.43,0,2.18-7.12,2.18-8.78s-1-3-2.15-3-2.14,1.34-2.14,3S159.86,212.62,160.35,212.62Z"/><path class="cls-4" d="M162.47,218c.28-.31,6.77,3.11,8,4.21s1.6,2.7.81,3.59-2.43.71-3.66-.39S162.15,218.38,162.47,218Z"/><path class="cls-4" d="M160.27,219.08c.43,0,2.18,7.12,2.18,8.78s-1,3-2.14,3-2.15-1.34-2.15-3S159.79,219.08,160.27,219.08Z"/><path class="cls-4" d="M120.77,215.64c0,1.55,17.93,7.78,23.93,7.78s10.87-3.49,10.87-7.78-4.87-7.78-10.87-7.78S120.77,213.88,120.77,215.64Z"/><path class="cls-4" d="M119.12,218.83c.4-.56,11.29,3.82,13.44,5.36s3,4.05,1.89,5.59-3.74,1.54-5.89,0S118.66,219.46,119.12,218.83Z"/><path class="cls-4" d="M119.12,213c.4.55,11.29-3.82,13.44-5.37s3-4,1.89-5.58-3.74-1.54-5.89,0S118.66,212.36,119.12,213Z"/><circle class="cls-4" cx="115.74" cy="215.64" r="2.6"/><path class="cls-4" d="M107.73,223.92c-1.2.16-2.85,1.25-2.72,2.32s2,1.72,3.21,1.57a5.43,5.43,0,0,0,3.44-2.41A5.27,5.27,0,0,0,107.73,223.92Z"/><path class="cls-4" d="M104.9,217.63c-1.15.4-2.53,1.81-2.17,2.83s2.32,1.26,3.46.86a5.43,5.43,0,0,0,2.86-3.07A5.28,5.28,0,0,0,104.9,217.63Z"/><path class="cls-4" d="M113.28,202.74c.69,1,1,3,.08,3.57s-2.61-.35-3.3-1.35a5.39,5.39,0,0,1-.49-4.16A5.19,5.19,0,0,1,113.28,202.74Z"/><path class="cls-4" d="M109.08,207.27c.87.84,1.54,2.7.79,3.48s-2.63.18-3.51-.66a5.42,5.42,0,0,1-1.32-4A5.25,5.25,0,0,1,109.08,207.27Z"/><path class="cls-4" d="M102.1,209.43c1.12.45,2.44,1.93,2,2.93s-2.38,1.15-3.51.7a5.42,5.42,0,0,1-2.71-3.2A5.26,5.26,0,0,1,102.1,209.43Z"/><path class="cls-4" d="M90.62,228.41c-.55-1.09-.57-3.06.4-3.55.43-.22,2.39.39,3.09,1.78a5.41,5.41,0,0,1-.08,4.2A5.28,5.28,0,0,1,90.62,228.41Z"/><path class="cls-4" d="M87.7,208.06c-.81.9-1.34,2.81-.54,3.53a3.48,3.48,0,0,0,3.45-.92,5.39,5.39,0,0,0,1-4.06A5.23,5.23,0,0,0,87.7,208.06Z"/><path class="cls-4" d="M107.3,214.48a23.35,23.35,0,0,1-10.75,1.16c5.29,3.59,7.94,10,7.54,14.75,0,.31-.22.58-.58.52a.53.53,0,0,1-.47-.51c.48-5.16-2.85-12.27-9.34-15.16a17.71,17.71,0,0,0-9.75-.93,8.22,8.22,0,0,1,3.69,1.58,9.38,9.38,0,0,1,3.59,6.82c0,.23-.09.66-.45.69-.54,0-.58-.43-.59-.64a8.39,8.39,0,0,0-3.18-6,7.69,7.69,0,0,0-6.86-1.17c-.38.2-.75.52-1.09.1s.16-.79.44-.93l.24-.13,0,0c3.51-1.83,9.29-2.16,13.47-.63l.16.06c2.9.9,9.15,1.36,13.48-.47,5.68-2.4,8.65-6.49,8.84-12.16a.54.54,0,0,1,.52-.58c.44,0,.53.43.52.64C116.56,207.52,113.38,211.91,107.3,214.48Z"/><path class="cls-4" d="M94,222.92c-1.07-.58-2.2-2.2-1.68-3.15a3.48,3.48,0,0,1,3.56-.28,5.44,5.44,0,0,1,2.31,3.5A5.26,5.26,0,0,1,94,222.92Z"/><circle class="cls-4" cx="76.28" cy="242.73" r="1.91"/><circle class="cls-4" cx="119.32" cy="242.79" r="1.91"/><path class="cls-4" d="M27.4,246.43c0,1.55-17.94,7.78-23.94,7.78S-7.4,250.73-7.4,246.43s4.86-7.78,10.86-7.78S27.4,244.67,27.4,246.43Z"/><path class="cls-4" d="M29.05,243.78c-.4.56-11.3-3.81-13.45-5.36s-3-4-1.89-5.59,3.75-1.53,5.9,0S29.5,243.15,29.05,243.78Z"/><circle class="cls-4" cx="32.42" cy="246.43" r="2.6"/><path class="cls-4" d="M34.88,233.54c-.68,1-1,3-.08,3.57s2.62-.35,3.31-1.35a5.46,5.46,0,0,0,.49-4.17A5.25,5.25,0,0,0,34.88,233.54Z"/><path class="cls-4" d="M39.09,238.07c-.87.84-1.55,2.7-.8,3.48s2.64.18,3.51-.66a5.43,5.43,0,0,0,1.32-4A5.19,5.19,0,0,0,39.09,238.07Z"/><path class="cls-4" d="M46.07,240.23c-1.13.45-2.44,1.92-2,2.93s2.37,1.15,3.5.7a5.44,5.44,0,0,0,2.71-3.2A5.2,5.2,0,0,0,46.07,240.23Z"/><path class="cls-4" d="M60.47,238.86c.81.9,1.34,2.8.54,3.53a3.5,3.5,0,0,1-3.46-.92,5.45,5.45,0,0,1-1-4.07A5.23,5.23,0,0,1,60.47,238.86Z"/><path class="cls-4" d="M40.87,245.27c3,1.28,7.26,1.54,10.75,1.17-5.3,3.58-7.95,10-7.54,14.75a.49.49,0,0,0,.58.51.5.5,0,0,0,.46-.5C44.64,256,48,248.93,54.46,246a17.74,17.74,0,0,1,9.76-.93,8.44,8.44,0,0,0-3.7,1.59,9.41,9.41,0,0,0-3.58,6.82c0,.22.09.65.45.69.53,0,.57-.43.59-.65a8.28,8.28,0,0,1,3.18-6A7.61,7.61,0,0,1,68,246.35c.39.19.76.52,1.1.09s-.16-.78-.44-.93l-.25-.13,0,0c-3.5-1.84-9.28-2.17-13.47-.63l-.16.06c-2.9.9-9.14,1.36-13.48-.48-5.68-2.4-8.65-6.49-8.83-12.16a.53.53,0,0,0-.52-.57c-.44,0-.53.43-.52.64C31.6,238.32,34.79,242.7,40.87,245.27Z"/><circle class="cls-4" cx="97.54" cy="246.6" r="1.88"/><ellipse class="cls-4" cx="97.39" cy="238.37" rx="1.73" ry="5.35"/><ellipse class="cls-4" cx="89.21" cy="246.6" rx="5.35" ry="1.73"/><ellipse class="cls-4" cx="88.99" cy="238" rx="1.63" ry="9.08" transform="translate(-142.69 133.66) rotate(-45.25)"/><ellipse class="cls-4" cx="106.29" cy="246.65" rx="5.35" ry="1.73"/><ellipse class="cls-4" cx="106.5" cy="238.06" rx="9.08" ry="1.63" transform="translate(-136.73 143.97) rotate(-44.75)"/><path class="cls-4" d="M210.56,246.74c0,.42,7.13,2.14,8.78,2.13s3-1,3-2.16-1.35-2.13-3-2.13S210.56,246.25,210.56,246.74Z"/><circle class="cls-4" cx="207.32" cy="246.73" r="1.71"/><path class="cls-4" d="M209.62,244.56c.29.32,6.77-3.1,8-4.2s1.6-2.71.81-3.59-2.42-.71-3.66.38S209.3,244.2,209.62,244.56Z"/><path class="cls-4" d="M207.43,243.5c.43,0,2.18-7.12,2.18-8.78s-1-3-2.15-3-2.14,1.34-2.14,3S206.94,243.5,207.43,243.5Z"/><path class="cls-4" d="M167.85,246.52c0,1.55,17.93,7.78,23.93,7.78s10.87-3.49,10.87-7.78-4.87-7.78-10.87-7.78S167.85,244.75,167.85,246.52Z"/><path class="cls-4" d="M166.2,243.87c.4.55,11.29-3.82,13.44-5.37s3-4,1.89-5.58-3.74-1.54-5.89,0S165.74,243.24,166.2,243.87Z"/><circle class="cls-4" cx="162.82" cy="246.52" r="2.6"/><path class="cls-4" d="M160.36,233.62c.69,1,1,3,.08,3.57s-2.61-.35-3.3-1.35a5.39,5.39,0,0,1-.49-4.16A5.19,5.19,0,0,1,160.36,233.62Z"/><path class="cls-4" d="M156.15,238.15c.88.84,1.55,2.7.8,3.48s-2.63.18-3.51-.66a5.43,5.43,0,0,1-1.32-4A5.22,5.22,0,0,1,156.15,238.15Z"/><path class="cls-4" d="M149.18,240.31c1.12.45,2.44,1.93,2,2.93s-2.38,1.15-3.51.7a5.42,5.42,0,0,1-2.71-3.2A5.26,5.26,0,0,1,149.18,240.31Z"/><path class="cls-4" d="M134.78,238.94c-.81.9-1.34,2.81-.54,3.53a3.48,3.48,0,0,0,3.45-.92,5.41,5.41,0,0,0,1-4.07A5.3,5.3,0,0,0,134.78,238.94Z"/><path class="cls-4" d="M154.38,245.36a23.35,23.35,0,0,1-10.75,1.16c5.29,3.59,7.94,10,7.54,14.75,0,.31-.22.58-.58.51a.51.51,0,0,1-.47-.5c.48-5.16-2.86-12.27-9.34-15.16a17.53,17.53,0,0,0-9.75-.93,8.27,8.27,0,0,1,3.69,1.58,9.38,9.38,0,0,1,3.59,6.82c0,.23-.09.66-.45.69-.54,0-.58-.43-.59-.64a8.39,8.39,0,0,0-3.18-6,7.69,7.69,0,0,0-6.86-1.17c-.38.2-.75.52-1.09.09s.16-.78.43-.92l.25-.13,0,0c3.51-1.83,9.29-2.16,13.47-.63l.16.06c2.9.9,9.15,1.36,13.48-.47,5.68-2.4,8.65-6.49,8.84-12.17a.53.53,0,0,1,.52-.57c.44,0,.53.43.52.64C163.64,238.4,160.46,242.79,154.38,245.36Z"/></g></g><path class="cls-5" d="M187.22,39.94a40.42,40.42,0,0,0-29,68.59H18.66v7.31H37.54l15.93,49.81V178.6A7.43,7.43,0,0,0,60,186a10.59,10.59,0,1,0,8.22.06h63.21a10.59,10.59,0,1,0,8.36,0h9.62v-6.87H60.9a.56.56,0,0,1-.56-.56V165.65h89.21l10.5-55.36a40.42,40.42,0,1,0,27.17-70.35Z"/></g></svg>