<svg xmlns="http://www.w3.org/2000/svg" xmlns:xlink="http://www.w3.org/1999/xlink" viewBox="0 0 65.59 1237.02"><defs><style>.cls-1{fill:none;}.cls-2{clip-path:url(#clip-path);}.cls-3{fill:#cbdf7d;}.cls-4{clip-path:url(#clip-path-2);}.cls-5{fill:#cc352d;}</style><clipPath id="clip-path"><rect class="cls-1" width="67.29" height="1237.02"/></clipPath><clipPath id="clip-path-2"><rect class="cls-1" x="-558.66" y="832.2" width="382.41" height="382.41"/></clipPath></defs><title>web_xingones</title><g id="green"><g class="cls-2"><polygon class="cls-3" points="55.34 147.55 56.56 145.3 58.81 144.07 56.56 142.84 55.34 140.6 54.11 142.84 51.86 144.07 54.11 145.3 55.34 147.55"/><polygon class="cls-3" points="55.34 133.31 56.56 131.07 58.81 129.84 56.56 128.61 55.34 126.37 54.11 128.61 51.86 129.84 54.11 131.07 55.34 133.31"/><polygon class="cls-3" points="55.34 119.39 56.56 117.15 58.81 115.92 56.56 114.69 55.34 112.45 54.11 114.69 51.86 115.92 54.11 117.15 55.34 119.39"/><polygon class="cls-3" points="55.34 105.19 56.56 102.95 58.81 101.72 56.56 100.5 55.34 98.25 54.11 100.5 51.86 101.72 54.11 102.95 55.34 105.19"/><polygon class="cls-3" points="55.34 90.96 56.56 88.72 58.81 87.49 56.56 86.26 55.34 84.02 54.11 86.26 51.86 87.49 54.11 88.72 55.34 90.96"/><polygon class="cls-3" points="55.34 77.04 56.56 74.8 58.81 73.57 56.56 72.34 55.34 70.1 54.11 72.34 51.86 73.57 54.11 74.8 55.34 77.04"/><polygon class="cls-3" points="55.94 6.46 57.16 4.21 59.41 2.99 57.16 1.76 55.94 -0.49 54.71 1.76 52.46 2.99 54.71 4.21 55.94 6.46"/><polygon class="cls-3" points="55.34 21.03 56.56 18.79 58.81 17.56 56.56 16.33 55.34 14.09 54.11 16.33 51.86 17.56 54.11 18.79 55.34 21.03"/><circle class="cls-3" cx="36.57" cy="1223.86" r="1.93"/><circle class="cls-3" cx="28.74" cy="1223.86" r="1.93"/><ellipse class="cls-3" cx="32.67" cy="1237.02" rx="1.75" ry="5.4"/><ellipse class="cls-3" cx="41.34" cy="1236.8" rx="9.17" ry="1.64" transform="translate(-866.15 395.47) rotate(-45.25)"/><ellipse class="cls-3" cx="23.81" cy="1236.8" rx="1.64" ry="9.17" transform="translate(-863.8 375.18) rotate(-44.75)"/><path class="cls-3" d="M32.58,1131.79c-.43,0-2.16-7.2-2.15-8.87s1-3,2.18-3,2.16,1.36,2.15,3S33.07,1131.79,32.58,1131.79Z"/><circle class="cls-3" cx="32.59" cy="1135.06" r="1.73"/><path class="cls-3" d="M34.78,1132.73c-.32-.28,3.13-6.83,4.24-8.08s2.73-1.61,3.63-.82.71,2.45-.39,3.7S35.15,1133.06,34.78,1132.73Z"/><path class="cls-3" d="M35.86,1135c0-.43,7.18-2.2,8.85-2.2s3,1,3,2.17-1.35,2.16-3,2.16S35.86,1135.44,35.86,1135Z"/><path class="cls-3" d="M30.41,1132.81c.32-.29-3.13-6.83-4.24-8.08s-2.74-1.62-3.63-.82-.72,2.45.39,3.7S30,1133.13,30.41,1132.81Z"/><path class="cls-3" d="M29.33,1135c0-.43-7.19-2.19-8.85-2.19s-3,1-3,2.16,1.36,2.16,3,2.17S29.33,1135.51,29.33,1135Z"/><path class="cls-3" d="M32.81,1174.89c-1.57,0-7.85-18.1-7.85-24.15s3.51-11,7.85-11,7.85,4.9,7.85,11S34.58,1174.89,32.81,1174.89Z"/><path class="cls-3" d="M29.59,1176.56c.56-.4-3.86-11.4-5.42-13.57s-4.08-3-5.64-1.91-1.55,3.78,0,6S29,1177,29.59,1176.56Z"/><path class="cls-3" d="M35.48,1176.56c-.56-.4,3.85-11.4,5.41-13.57s4.09-3,5.64-1.91,1.55,3.78,0,6S36.12,1177,35.48,1176.56Z"/><circle class="cls-3" cx="32.81" cy="1179.97" r="2.62"/><path class="cls-3" d="M24.44,1188.05c-.15,1.22-1.25,2.88-2.33,2.74s-1.74-2-1.58-3.24a5.5,5.5,0,0,1,2.42-3.46A5.26,5.26,0,0,1,24.44,1188.05Z"/><path class="cls-3" d="M30.8,1190.91c-.41,1.16-1.83,2.55-2.86,2.19s-1.28-2.34-.87-3.5a5.48,5.48,0,0,1,3.1-2.88A5.32,5.32,0,0,1,30.8,1190.91Z"/><path class="cls-3" d="M45.82,1182.45c-1-.7-3-1-3.6-.08s.35,2.64,1.36,3.33a5.46,5.46,0,0,0,4.2.5A5.26,5.26,0,0,0,45.82,1182.45Z"/><path class="cls-3" d="M41.25,1186.69c-.85-.88-2.72-1.56-3.51-.8s-.19,2.66.66,3.54a5.5,5.5,0,0,0,4,1.33A5.26,5.26,0,0,0,41.25,1186.69Z"/><path class="cls-3" d="M39.07,1193.74c-.46-1.14-1.94-2.47-3-2.06s-1.16,2.4-.7,3.53a5.49,5.49,0,0,0,3.23,2.74A5.29,5.29,0,0,0,39.07,1193.74Z"/><path class="cls-3" d="M19.92,1205.32c1.09.56,3.09.57,3.58-.4.22-.44-.4-2.42-1.8-3.12a5.49,5.49,0,0,0-4.23.07A5.24,5.24,0,0,0,19.92,1205.32Z"/><path class="cls-3" d="M40.45,1208.27c-.91.82-2.83,1.35-3.56.54a3.52,3.52,0,0,1,.93-3.48,5.46,5.46,0,0,1,4.1-1A5.29,5.29,0,0,1,40.45,1208.27Z"/><path class="cls-3" d="M34,1188.49a23.49,23.49,0,0,0-1.18,10.85c-3.62-5.34-10.09-8-14.89-7.61a.49.49,0,0,0-.51.58.5.5,0,0,0,.51.47c5.2-.48,12.38,2.89,15.3,9.43a17.84,17.84,0,0,1,.94,9.84,8.37,8.37,0,0,0-1.6-3.72,9.51,9.51,0,0,0-6.88-3.63c-.23,0-.67.1-.7.46,0,.54.44.58.65.6a8.39,8.39,0,0,1,6.09,3.2,7.75,7.75,0,0,1,1.19,6.92c-.2.39-.53.77-.1,1.11s.79-.16.93-.44l.14-.25,0,0c1.85-3.54,2.19-9.37.64-13.6l-.06-.16c-.91-2.93-1.37-9.23.48-13.6,2.42-5.74,6.55-8.73,12.27-8.92a.54.54,0,0,0,.58-.52c0-.45-.44-.54-.65-.53C41,1179.14,36.57,1182.35,34,1188.49Z"/><path class="cls-3" d="M25.45,1201.92c.59,1.08,2.23,2.22,3.18,1.7a3.51,3.51,0,0,0,.29-3.59,5.46,5.46,0,0,0-3.53-2.34A5.29,5.29,0,0,0,25.45,1201.92Z"/><circle class="cls-3" cx="36.61" cy="996.1" r="1.93"/><circle class="cls-3" cx="28.78" cy="996.1" r="1.93"/><circle class="cls-3" cx="36.56" cy="952.66" r="1.93"/><circle class="cls-3" cx="28.73" cy="952.66" r="1.93"/><path class="cls-3" d="M32.88,1045.44c-1.57,0-7.85,18.1-7.85,24.15s3.51,11,7.85,11,7.85-4.91,7.85-11S34.65,1045.44,32.88,1045.44Z"/><path class="cls-3" d="M29.66,1043.77c.56.4-3.86,11.4-5.42,13.57s-4.08,3-5.63,1.91-1.56-3.78,0-6S29,1043.31,29.66,1043.77Z"/><path class="cls-3" d="M35.55,1043.77c-.56.4,3.85,11.4,5.41,13.57s4.09,3,5.64,1.91,1.55-3.78,0-6S36.19,1043.31,35.55,1043.77Z"/><circle class="cls-3" cx="32.88" cy="1040.37" r="2.62"/><path class="cls-3" d="M24.51,1032.28c-.15-1.21-1.25-2.88-2.33-2.74s-1.74,2-1.58,3.24a5.53,5.53,0,0,0,2.42,3.47A5.31,5.31,0,0,0,24.51,1032.28Z"/><path class="cls-3" d="M30.87,1029.42c-.41-1.15-1.83-2.55-2.86-2.19s-1.28,2.34-.87,3.5a5.48,5.48,0,0,0,3.1,2.88A5.31,5.31,0,0,0,30.87,1029.42Z"/><path class="cls-3" d="M45.89,1037.88c-1,.7-3,1-3.6.08s.35-2.64,1.36-3.33a5.49,5.49,0,0,1,4.21-.5A5.33,5.33,0,0,1,45.89,1037.88Z"/><path class="cls-3" d="M41.32,1033.64c-.85.88-2.72,1.56-3.51.8s-.19-2.66.66-3.54a5.5,5.5,0,0,1,4-1.33A5.26,5.26,0,0,1,41.32,1033.64Z"/><path class="cls-3" d="M39.14,1026.59c-.46,1.14-1.94,2.47-3,2.06s-1.16-2.39-.7-3.53a5.49,5.49,0,0,1,3.23-2.74A5.29,5.29,0,0,1,39.14,1026.59Z"/><path class="cls-3" d="M20,1015c1.09-.55,3.09-.57,3.58.4.22.44-.4,2.42-1.8,3.12a5.49,5.49,0,0,1-4.23-.07A5.26,5.26,0,0,1,20,1015Z"/><path class="cls-3" d="M40.53,1012.06c-.92-.81-2.84-1.35-3.57-.54a3.52,3.52,0,0,0,.93,3.48,5.53,5.53,0,0,0,4.1,1A5.31,5.31,0,0,0,40.53,1012.06Z"/><path class="cls-3" d="M34.05,1031.84A23.49,23.49,0,0,1,32.87,1021c-3.62,5.35-10.09,8-14.89,7.61a.49.49,0,0,1-.51-.58.52.52,0,0,1,.51-.47c5.2.48,12.38-2.89,15.3-9.43a17.84,17.84,0,0,0,.94-9.84,8.45,8.45,0,0,1-1.6,3.73,9.5,9.5,0,0,1-6.88,3.62c-.23,0-.66-.1-.7-.46,0-.54.44-.58.65-.59a8.44,8.44,0,0,0,6.09-3.21,7.75,7.75,0,0,0,1.19-6.92c-.2-.39-.53-.76-.1-1.11s.79.17.93.44l.14.25a.12.12,0,0,1,0,.05c1.85,3.53,2.19,9.37.64,13.59l-.06.16c-.91,2.93-1.37,9.23.48,13.6,2.42,5.74,6.55,8.73,12.27,8.92a.54.54,0,0,1,.58.52c0,.45-.44.54-.65.53C41.07,1041.19,36.64,1038,34.05,1031.84Z"/><path class="cls-3" d="M25.52,1018.41c.59-1.08,2.23-2.22,3.18-1.7.43.24,1,2.22.29,3.6a5.47,5.47,0,0,1-3.53,2.33A5.29,5.29,0,0,1,25.52,1018.41Z"/><circle class="cls-3" cx="32.71" cy="974.65" r="1.89"/><ellipse class="cls-3" cx="41.01" cy="974.8" rx="5.4" ry="1.75"/><ellipse class="cls-3" cx="24.04" cy="974.65" rx="5.4" ry="1.75"/><ellipse class="cls-3" cx="32.71" cy="983.06" rx="1.75" ry="5.4"/><ellipse class="cls-3" cx="41.38" cy="983.27" rx="1.64" ry="9.17" transform="translate(-680.22 314.08) rotate(-44.75)"/><ellipse class="cls-3" cx="23.85" cy="983.27" rx="9.17" ry="1.64" transform="translate(-691.27 308) rotate(-45.25)"/><ellipse class="cls-3" cx="32.66" cy="965.82" rx="1.75" ry="5.4"/><ellipse class="cls-3" cx="41.33" cy="965.6" rx="9.17" ry="1.64" transform="translate(-673.54 315.18) rotate(-45.25)"/><ellipse class="cls-3" cx="23.8" cy="965.6" rx="1.64" ry="9.17" transform="translate(-672.88 296.58) rotate(-44.75)"/><path class="cls-3" d="M32.65,1090c-.44,0-2.17,7.22-2.17,8.89s1,3,2.19,3,2.16-1.36,2.16-3S33.14,1090,32.65,1090Z"/><circle class="cls-3" cx="32.65" cy="1086.73" r="1.73"/><path class="cls-3" d="M34.85,1089.06c-.33.29,3.14,6.86,4.25,8.11s2.74,1.62,3.64.82.72-2.46-.4-3.71S35.21,1088.74,34.85,1089.06Z"/><path class="cls-3" d="M35.93,1086.84c0,.43,7.2,2.21,8.88,2.21s3-1,3-2.17-1.36-2.18-3-2.18S35.93,1086.35,35.93,1086.84Z"/><path class="cls-3" d="M30.46,1089c.33.29-3.14,6.85-4.25,8.1s-2.74,1.62-3.64.82-.72-2.45.39-3.7S30.1,1088.66,30.46,1089Z"/><path class="cls-3" d="M29.38,1086.77c0,.43-7.2,2.2-8.88,2.2s-3-1-3-2.17,1.36-2.17,3-2.17S29.38,1086.27,29.38,1086.77Z"/><path class="cls-3" d="M32.57,860.59c-.43,0-2.16-7.2-2.16-8.87s1-3,2.18-3,2.16,1.36,2.15,3S33.06,860.59,32.57,860.59Z"/><circle class="cls-3" cx="32.58" cy="863.86" r="1.73"/><path class="cls-3" d="M34.77,861.53c-.33-.28,3.13-6.83,4.24-8.08s2.73-1.61,3.62-.82.72,2.45-.39,3.7S35.13,861.86,34.77,861.53Z"/><path class="cls-3" d="M35.84,863.75c0-.43,7.19-2.2,8.86-2.2s3,1,3,2.16-1.35,2.17-3,2.17S35.84,864.24,35.84,863.75Z"/><path class="cls-3" d="M30.39,861.61c.33-.29-3.13-6.83-4.24-8.08s-2.73-1.62-3.62-.82-.72,2.45.39,3.69S30,861.93,30.39,861.61Z"/><path class="cls-3" d="M29.32,863.82c0-.43-7.19-2.2-8.86-2.2s-3,1-3,2.17,1.35,2.16,3,2.16S29.32,864.31,29.32,863.82Z"/><path class="cls-3" d="M32.79,903.69c-1.56,0-7.85-18.1-7.85-24.15s3.52-11,7.85-11,7.86,4.9,7.86,11S34.57,903.69,32.79,903.69Z"/><path class="cls-3" d="M29.57,905.36c.56-.4-3.85-11.4-5.41-13.57s-4.08-3-5.64-1.91-1.55,3.78,0,6S28.94,905.82,29.57,905.36Z"/><path class="cls-3" d="M35.47,905.36c-.56-.4,3.85-11.4,5.41-13.57s4.08-3,5.64-1.91,1.55,3.78,0,6S36.1,905.82,35.47,905.36Z"/><circle class="cls-3" cx="32.79" cy="908.76" r="2.62"/><path class="cls-3" d="M24.43,916.85c-.15,1.21-1.25,2.88-2.34,2.74s-1.73-2-1.58-3.24a5.46,5.46,0,0,1,2.43-3.46A5.3,5.3,0,0,1,24.43,916.85Z"/><path class="cls-3" d="M30.78,919.71c-.4,1.15-1.83,2.55-2.86,2.19s-1.27-2.34-.87-3.5a5.5,5.5,0,0,1,3.1-2.88A5.27,5.27,0,0,1,30.78,919.71Z"/><path class="cls-3" d="M45.81,911.25c-1-.7-3-1-3.61-.08s.36,2.64,1.37,3.33a5.46,5.46,0,0,0,4.2.5A5.26,5.26,0,0,0,45.81,911.25Z"/><path class="cls-3" d="M41.24,915.49c-.85-.88-2.73-1.56-3.51-.8s-.19,2.66.66,3.54a5.49,5.49,0,0,0,4,1.33A5.3,5.3,0,0,0,41.24,915.49Z"/><path class="cls-3" d="M39.06,922.54c-.46-1.14-2-2.47-3-2.06s-1.16,2.39-.71,3.53a5.52,5.52,0,0,0,3.23,2.74A5.27,5.27,0,0,0,39.06,922.54Z"/><path class="cls-3" d="M19.91,934.12c1.09.56,3.09.57,3.58-.4.22-.44-.4-2.42-1.8-3.12a5.52,5.52,0,0,0-4.24.07A5.29,5.29,0,0,0,19.91,934.12Z"/><path class="cls-3" d="M40.44,937.07c-.91.82-2.83,1.35-3.56.54-.33-.36-.25-2.43.92-3.48a5.48,5.48,0,0,1,4.11-1A5.29,5.29,0,0,1,40.44,937.07Z"/><path class="cls-3" d="M34,917.29a23.62,23.62,0,0,0-1.17,10.85c-3.62-5.35-10.1-8-14.89-7.61-.31,0-.58.21-.52.58a.52.52,0,0,0,.51.47c5.21-.48,12.39,2.89,15.31,9.43a17.84,17.84,0,0,1,.93,9.84,8.34,8.34,0,0,0-1.6-3.73,9.5,9.5,0,0,0-6.88-3.62c-.23,0-.66.1-.69.46-.05.54.43.58.65.59a8.44,8.44,0,0,1,6.09,3.21,7.76,7.76,0,0,1,1.18,6.92c-.2.39-.53.77-.09,1.11s.78-.17.93-.44c0-.09.09-.17.13-.25l0-.05c1.85-3.53,2.18-9.36.63-13.59l-.06-.16c-.91-2.93-1.37-9.23.48-13.6,2.42-5.74,6.55-8.73,12.28-8.92a.53.53,0,0,0,.57-.52c0-.45-.43-.54-.64-.53C41,907.94,36.56,911.15,34,917.29Z"/><path class="cls-3" d="M25.44,930.72c.59,1.08,2.22,2.22,3.18,1.7.43-.24,1-2.22.29-3.6a5.48,5.48,0,0,0-3.54-2.33A5.3,5.3,0,0,0,25.44,930.72Z"/><polygon class="cls-3" points="24.44 1113.67 25.67 1111.43 27.91 1110.2 25.67 1108.97 24.44 1106.73 23.21 1108.97 20.96 1110.2 23.21 1111.43 24.44 1113.67"/><polygon class="cls-3" points="41.2 1113.67 42.43 1111.43 44.68 1110.2 42.43 1108.97 41.2 1106.73 39.98 1108.97 37.73 1110.2 39.98 1111.43 41.2 1113.67"/><circle class="cls-3" cx="36.58" cy="726.68" r="1.93"/><circle class="cls-3" cx="28.76" cy="726.68" r="1.93"/><circle class="cls-3" cx="36.53" cy="683.24" r="1.93"/><circle class="cls-3" cx="28.7" cy="683.24" r="1.93"/><path class="cls-3" d="M32.85,776c-1.57,0-7.85,18.1-7.85,24.16s3.51,11,7.85,11,7.85-4.91,7.85-11S34.63,776,32.85,776Z"/><path class="cls-3" d="M29.63,774.35c.56.4-3.85,11.4-5.41,13.57s-4.09,3-5.64,1.91-1.55-3.79,0-6S29,773.89,29.63,774.35Z"/><path class="cls-3" d="M35.52,774.35c-.56.4,3.86,11.4,5.42,13.57s4.08,3,5.63,1.91,1.56-3.79,0-6S36.16,773.89,35.52,774.35Z"/><circle class="cls-3" cx="32.85" cy="770.94" r="2.62"/><path class="cls-3" d="M24.49,762.86c-.16-1.22-1.26-2.88-2.34-2.75s-1.74,2-1.58,3.24A5.46,5.46,0,0,0,23,766.82,5.3,5.3,0,0,0,24.49,762.86Z"/><path class="cls-3" d="M30.84,760c-.4-1.16-1.83-2.56-2.86-2.2s-1.27,2.35-.87,3.5a5.5,5.5,0,0,0,3.1,2.89A5.29,5.29,0,0,0,30.84,760Z"/><path class="cls-3" d="M45.86,768.46c-1,.69-3,1-3.6.08s.35-2.64,1.36-3.34a5.51,5.51,0,0,1,4.21-.49A5.3,5.3,0,0,1,45.86,768.46Z"/><path class="cls-3" d="M41.3,764.21c-.85.89-2.73,1.56-3.52.81s-.18-2.66.67-3.55a5.49,5.49,0,0,1,4-1.33A5.3,5.3,0,0,1,41.3,764.21Z"/><path class="cls-3" d="M39.11,757.17c-.45,1.14-1.94,2.47-3,2.06s-1.17-2.4-.71-3.54A5.46,5.46,0,0,1,38.68,753,5.29,5.29,0,0,1,39.11,757.17Z"/><path class="cls-3" d="M20,745.58c1.1-.55,3.09-.57,3.58.41.22.44-.4,2.41-1.8,3.12a5.43,5.43,0,0,1-4.23-.08A5.28,5.28,0,0,1,20,745.58Z"/><path class="cls-3" d="M40.5,742.64c-.91-.82-2.84-1.36-3.57-.54a3.52,3.52,0,0,0,.93,3.48,5.47,5.47,0,0,0,4.1,1A5.25,5.25,0,0,0,40.5,742.64Z"/><path class="cls-3" d="M34,762.42c-1.29-3-1.55-7.33-1.17-10.85-3.62,5.34-10.1,8-14.89,7.61-.31,0-.58-.22-.52-.59a.52.52,0,0,1,.51-.47c5.2.49,12.39-2.88,15.3-9.42a17.79,17.79,0,0,0,.94-9.85,8.29,8.29,0,0,1-1.6,3.73,9.45,9.45,0,0,1-6.88,3.62c-.23,0-.66-.09-.69-.45-.05-.54.43-.58.64-.6a8.4,8.4,0,0,0,6.09-3.21A7.71,7.71,0,0,0,32.94,735c-.2-.39-.53-.76-.1-1.1s.79.16.94.44c0,.08.08.17.13.25l0,0c1.86,3.54,2.19,9.37.64,13.6l-.06.16c-.91,2.92-1.37,9.22.48,13.6,2.42,5.73,6.55,8.73,12.27,8.92a.53.53,0,0,1,.58.52c0,.45-.43.53-.65.53C41,771.77,36.61,768.55,34,762.42Z"/><path class="cls-3" d="M25.5,749c.59-1.07,2.22-2.22,3.18-1.69.43.23,1,2.21.28,3.59a5.5,5.5,0,0,1-3.53,2.34A5.33,5.33,0,0,1,25.5,749Z"/><circle class="cls-3" cx="32.68" cy="705.23" r="1.89"/><ellipse class="cls-3" cx="40.99" cy="705.37" rx="5.4" ry="1.75"/><ellipse class="cls-3" cx="24.01" cy="705.23" rx="5.4" ry="1.75"/><ellipse class="cls-3" cx="32.68" cy="713.63" rx="1.75" ry="5.4"/><ellipse class="cls-3" cx="41.36" cy="713.85" rx="1.64" ry="9.17" transform="translate(-490.56 235.98) rotate(-44.75)"/><ellipse class="cls-3" cx="23.83" cy="713.85" rx="9.17" ry="1.64" transform="translate(-499.93 228.23) rotate(-45.25)"/><ellipse class="cls-3" cx="32.63" cy="696.39" rx="1.75" ry="5.4"/><ellipse class="cls-3" cx="41.3" cy="696.18" rx="9.17" ry="1.64" transform="translate(-482.2 235.41) rotate(-45.25)"/><ellipse class="cls-3" cx="23.77" cy="696.18" rx="1.64" ry="9.17" transform="translate(-483.21 218.48) rotate(-44.75)"/><path class="cls-3" d="M32.62,820.59c-.43,0-2.17,7.21-2.16,8.89s1,3,2.18,3,2.17-1.37,2.16-3S33.11,820.58,32.62,820.59Z"/><circle class="cls-3" cx="32.63" cy="817.31" r="1.73"/><path class="cls-3" d="M34.82,819.64c-.32.29,3.14,6.85,4.25,8.1s2.74,1.62,3.64.83.72-2.46-.39-3.71S35.19,819.31,34.82,819.64Z"/><path class="cls-3" d="M35.9,817.42c0,.43,7.21,2.2,8.88,2.2s3-1,3-2.17-1.36-2.17-3-2.17S35.9,816.93,35.9,817.42Z"/><path class="cls-3" d="M30.44,819.56c.32.29-3.15,6.86-4.26,8.11s-2.74,1.62-3.63.82-.72-2.46.39-3.71S30.07,819.24,30.44,819.56Z"/><path class="cls-3" d="M29.36,817.34c0,.43-7.21,2.21-8.89,2.21s-3-1-3-2.17,1.36-2.17,3-2.17S29.36,816.85,29.36,817.34Z"/><path class="cls-3" d="M32.54,591.16c-.43,0-2.16-7.19-2.15-8.86s1-3,2.18-3,2.15,1.36,2.15,3S33,591.17,32.54,591.16Z"/><circle class="cls-3" cx="32.55" cy="594.43" r="1.73"/><path class="cls-3" d="M34.74,592.11c-.32-.29,3.13-6.83,4.24-8.08s2.73-1.62,3.62-.82.72,2.45-.39,3.69S35.1,592.43,34.74,592.11Z"/><path class="cls-3" d="M35.81,594.32c0-.43,7.19-2.19,8.86-2.19s3,1,3,2.16-1.35,2.16-3,2.16S35.81,594.81,35.81,594.32Z"/><path class="cls-3" d="M30.37,592.18c.32-.28-3.13-6.83-4.24-8.08s-2.74-1.61-3.63-.82-.72,2.45.39,3.7S30,592.51,30.37,592.18Z"/><path class="cls-3" d="M29.29,594.4c0-.43-7.19-2.2-8.86-2.2s-3,1-3,2.16,1.36,2.17,3,2.17S29.29,594.89,29.29,594.4Z"/><path class="cls-3" d="M32.77,634.27c-1.57,0-7.85-18.1-7.85-24.16s3.51-11,7.85-11,7.85,4.91,7.85,11S34.54,634.27,32.77,634.27Z"/><path class="cls-3" d="M29.55,635.94c.56-.41-3.86-11.4-5.42-13.58s-4.08-3-5.64-1.9-1.55,3.78,0,5.95S28.91,636.39,29.55,635.94Z"/><path class="cls-3" d="M35.44,635.94c-.56-.41,3.85-11.4,5.41-13.58s4.09-3,5.64-1.9,1.55,3.78,0,5.95S36.08,636.39,35.44,635.94Z"/><circle class="cls-3" cx="32.77" cy="639.34" r="2.62"/><path class="cls-3" d="M24.4,647.42c-.15,1.22-1.25,2.88-2.33,2.75s-1.74-2-1.59-3.24a5.5,5.5,0,0,1,2.43-3.47A5.26,5.26,0,0,1,24.4,647.42Z"/><path class="cls-3" d="M30.76,650.28c-.41,1.16-1.83,2.56-2.86,2.2s-1.28-2.34-.87-3.5a5.44,5.44,0,0,1,3.1-2.88A5.33,5.33,0,0,1,30.76,650.28Z"/><path class="cls-3" d="M45.78,641.82c-1-.69-3-1-3.6-.08s.35,2.64,1.36,3.34a5.49,5.49,0,0,0,4.2.49A5.27,5.27,0,0,0,45.78,641.82Z"/><path class="cls-3" d="M41.21,646.07c-.85-.88-2.73-1.56-3.51-.81s-.19,2.66.66,3.55a5.5,5.5,0,0,0,4,1.33A5.3,5.3,0,0,0,41.21,646.07Z"/><path class="cls-3" d="M39,653.11c-.46-1.13-1.94-2.46-3-2.06s-1.16,2.4-.7,3.54a5.46,5.46,0,0,0,3.23,2.73A5.29,5.29,0,0,0,39,653.11Z"/><path class="cls-3" d="M19.88,664.7c1.09.55,3.09.57,3.58-.41.22-.43-.4-2.41-1.8-3.12a5.48,5.48,0,0,0-4.23.08A5.26,5.26,0,0,0,19.88,664.7Z"/><path class="cls-3" d="M40.41,667.64c-.91.82-2.83,1.36-3.56.55-.33-.37-.24-2.44.93-3.49a5.45,5.45,0,0,1,4.1-1A5.27,5.27,0,0,1,40.41,667.64Z"/><path class="cls-3" d="M33.94,647.86a23.5,23.5,0,0,0-1.18,10.85c-3.62-5.34-10.1-8-14.89-7.61a.5.5,0,0,0-.51.59.52.52,0,0,0,.51.47c5.2-.49,12.38,2.88,15.3,9.42a17.88,17.88,0,0,1,.94,9.85,8.41,8.41,0,0,0-1.6-3.73,9.47,9.47,0,0,0-6.88-3.62c-.23,0-.67.09-.7.45,0,.55.43.58.65.6a8.44,8.44,0,0,1,6.09,3.21,7.74,7.74,0,0,1,1.18,6.92c-.2.39-.52.76-.09,1.1s.79-.16.93-.44l.14-.25a.07.07,0,0,0,0,0c1.85-3.54,2.19-9.37.64-13.59l-.06-.16c-.91-2.93-1.37-9.23.48-13.61,2.42-5.73,6.55-8.73,12.27-8.92a.53.53,0,0,0,.58-.52c0-.44-.44-.53-.65-.53C41,638.51,36.53,641.73,33.94,647.86Z"/><path class="cls-3" d="M25.41,661.3c.59,1.07,2.23,2.22,3.18,1.69.43-.23,1-2.21.29-3.59a5.55,5.55,0,0,0-3.53-2.34A5.27,5.27,0,0,0,25.41,661.3Z"/><polygon class="cls-3" points="24.41 844.25 25.64 842 27.88 840.78 25.64 839.55 24.41 837.3 23.18 839.55 20.94 840.78 23.18 842 24.41 844.25"/><polygon class="cls-3" points="41.18 844.25 42.41 842 44.65 840.78 42.41 839.55 41.18 837.3 39.95 839.55 37.7 840.78 39.95 842 41.18 844.25"/><circle class="cls-3" cx="36.59" cy="455.09" r="1.93"/><circle class="cls-3" cx="28.76" cy="455.09" r="1.93"/><circle class="cls-3" cx="36.54" cy="411.65" r="1.93"/><circle class="cls-3" cx="28.71" cy="411.65" r="1.93"/><path class="cls-3" d="M32.86,504.42c-1.57,0-7.85,18.1-7.85,24.16s3.51,11,7.85,11,7.85-4.91,7.85-11S34.63,504.42,32.86,504.42Z"/><path class="cls-3" d="M29.64,502.75c.56.41-3.86,11.4-5.42,13.57s-4.08,3-5.64,1.91-1.55-3.78,0-6S29,502.3,29.64,502.75Z"/><path class="cls-3" d="M35.53,502.75c-.56.41,3.85,11.4,5.41,13.57s4.09,3,5.64,1.91,1.55-3.78,0-6S36.17,502.3,35.53,502.75Z"/><circle class="cls-3" cx="32.86" cy="499.35" r="2.62"/><path class="cls-3" d="M24.49,491.27c-.15-1.22-1.25-2.88-2.33-2.75s-1.74,2-1.59,3.24A5.5,5.5,0,0,0,23,495.23,5.26,5.26,0,0,0,24.49,491.27Z"/><path class="cls-3" d="M30.85,488.41c-.41-1.16-1.83-2.56-2.86-2.2s-1.28,2.34-.87,3.5a5.44,5.44,0,0,0,3.1,2.88A5.33,5.33,0,0,0,30.85,488.41Z"/><path class="cls-3" d="M45.87,496.87c-1,.69-3,1-3.6.08s.35-2.64,1.36-3.34a5.44,5.44,0,0,1,4.2-.49A5.29,5.29,0,0,1,45.87,496.87Z"/><path class="cls-3" d="M41.3,492.62c-.85.88-2.72,1.56-3.51.8s-.19-2.65.66-3.54a5.5,5.5,0,0,1,4-1.33A5.3,5.3,0,0,1,41.3,492.62Z"/><path class="cls-3" d="M39.12,485.58c-.46,1.13-1.94,2.46-3,2.06s-1.16-2.4-.7-3.54a5.46,5.46,0,0,1,3.23-2.73A5.28,5.28,0,0,1,39.12,485.58Z"/><path class="cls-3" d="M20,474c1.09-.55,3.09-.57,3.58.41.22.43-.4,2.41-1.8,3.12a5.48,5.48,0,0,1-4.23-.08A5.26,5.26,0,0,1,20,474Z"/><path class="cls-3" d="M40.5,471.05c-.91-.82-2.83-1.36-3.56-.55-.33.37-.24,2.44.93,3.49a5.45,5.45,0,0,0,4.1,1A5.27,5.27,0,0,0,40.5,471.05Z"/><path class="cls-3" d="M34,490.82A23.44,23.44,0,0,1,32.85,480c-3.62,5.34-10.09,8-14.89,7.61a.5.5,0,0,1-.51-.59.52.52,0,0,1,.51-.47c5.2.49,12.38-2.88,15.3-9.43a17.84,17.84,0,0,0,.94-9.84A8.41,8.41,0,0,1,32.6,471a9.47,9.47,0,0,1-6.88,3.62c-.23,0-.67-.09-.7-.45,0-.55.44-.58.65-.6a8.44,8.44,0,0,0,6.09-3.21A7.77,7.77,0,0,0,33,463.43c-.2-.39-.53-.76-.1-1.1s.79.16.93.44l.14.25a.07.07,0,0,1,0,0c1.85,3.54,2.19,9.37.64,13.59l-.06.16c-.91,2.93-1.37,9.23.48,13.61,2.42,5.73,6.55,8.73,12.27,8.92a.53.53,0,0,1,.58.52c0,.44-.44.53-.65.53C41.05,500.18,36.62,497,34,490.82Z"/><path class="cls-3" d="M25.5,477.39c.59-1.07,2.23-2.22,3.18-1.69.43.23,1,2.21.29,3.59a5.55,5.55,0,0,1-3.53,2.34A5.31,5.31,0,0,1,25.5,477.39Z"/><circle class="cls-3" cx="32.69" cy="433.63" r="1.89"/><ellipse class="cls-3" cx="40.99" cy="433.78" rx="5.4" ry="1.75"/><ellipse class="cls-3" cx="24.02" cy="433.63" rx="5.4" ry="1.75"/><ellipse class="cls-3" cx="32.69" cy="442.04" rx="1.75" ry="5.4"/><ellipse class="cls-3" cx="41.36" cy="442.26" rx="1.64" ry="9.17" transform="translate(-299.36 157.28) rotate(-44.75)"/><ellipse class="cls-3" cx="23.83" cy="442.26" rx="9.17" ry="1.64" transform="translate(-307.04 147.84) rotate(-45.25)"/><ellipse class="cls-3" cx="32.64" cy="424.8" rx="1.75" ry="5.4"/><ellipse class="cls-3" cx="41.31" cy="424.58" rx="9.17" ry="1.64" transform="translate(-289.32 155.02) rotate(-45.25)"/><ellipse class="cls-3" cx="23.78" cy="424.58" rx="1.64" ry="9.17" transform="translate(-292.01 139.78) rotate(-44.75)"/><path class="cls-3" d="M32.63,549c-.44,0-2.17,7.22-2.17,8.9s1,3,2.19,3,2.16-1.37,2.16-3S33.12,549,32.63,549Z"/><circle class="cls-3" cx="32.63" cy="545.72" r="1.73"/><path class="cls-3" d="M34.83,548.05c-.33.28,3.14,6.85,4.25,8.1s2.74,1.62,3.64.82.72-2.45-.4-3.7S35.19,547.72,34.83,548.05Z"/><path class="cls-3" d="M35.91,545.82c0,.44,7.2,2.21,8.88,2.21s3-1,3-2.17-1.36-2.17-3-2.17S35.91,545.33,35.91,545.82Z"/><path class="cls-3" d="M30.44,548c.33.29-3.14,6.85-4.25,8.1s-2.74,1.62-3.64.83-.72-2.46.39-3.71S30.07,547.65,30.44,548Z"/><path class="cls-3" d="M29.36,545.75c0,.43-7.2,2.2-8.88,2.2s-3-1-3-2.17,1.36-2.17,3-2.17S29.36,545.26,29.36,545.75Z"/><path class="cls-3" d="M32.55,319.57c-.43,0-2.16-7.2-2.16-8.87s1-3,2.18-3,2.16,1.37,2.15,3S33,319.57,32.55,319.57Z"/><circle class="cls-3" cx="32.56" cy="322.84" r="1.73"/><path class="cls-3" d="M34.75,320.52c-.33-.29,3.13-6.84,4.24-8.08s2.73-1.62,3.62-.82.72,2.44-.39,3.69S35.11,320.84,34.75,320.52Z"/><path class="cls-3" d="M35.82,322.73c0-.43,7.19-2.2,8.86-2.2s3,1,3,2.17-1.35,2.16-3,2.16S35.82,323.22,35.82,322.73Z"/><path class="cls-3" d="M30.37,320.59c.33-.29-3.13-6.83-4.24-8.08s-2.73-1.61-3.62-.82-.72,2.45.39,3.7S30,320.92,30.37,320.59Z"/><path class="cls-3" d="M29.3,322.81c0-.44-7.19-2.2-8.86-2.2s-3,1-3,2.16,1.35,2.17,3,2.17S29.3,323.3,29.3,322.81Z"/><path class="cls-3" d="M32.77,362.68c-1.56,0-7.85-18.11-7.85-24.16s3.52-11,7.85-11,7.85,4.91,7.85,11S34.55,362.68,32.77,362.68Z"/><path class="cls-3" d="M29.55,364.34c.56-.4-3.85-11.4-5.41-13.57s-4.08-3-5.64-1.91-1.55,3.79,0,6S28.91,364.8,29.55,364.34Z"/><path class="cls-3" d="M35.45,364.34c-.57-.4,3.85-11.4,5.41-13.57s4.08-3,5.64-1.91,1.55,3.79,0,6S36.08,364.8,35.45,364.34Z"/><circle class="cls-3" cx="32.77" cy="367.75" r="2.62"/><path class="cls-3" d="M24.41,375.83c-.15,1.22-1.25,2.88-2.34,2.74s-1.73-2-1.58-3.23a5.46,5.46,0,0,1,2.43-3.47A5.3,5.3,0,0,1,24.41,375.83Z"/><path class="cls-3" d="M30.76,378.69c-.4,1.16-1.83,2.55-2.86,2.19s-1.27-2.34-.87-3.49a5.5,5.5,0,0,1,3.1-2.89A5.29,5.29,0,0,1,30.76,378.69Z"/><path class="cls-3" d="M45.79,370.23c-1-.69-3-1-3.61-.08s.36,2.64,1.37,3.34a5.49,5.49,0,0,0,4.2.49A5.3,5.3,0,0,0,45.79,370.23Z"/><path class="cls-3" d="M41.22,374.48c-.85-.89-2.73-1.56-3.52-.81s-.18,2.66.67,3.54a5.47,5.47,0,0,0,4,1.34A5.3,5.3,0,0,0,41.22,374.48Z"/><path class="cls-3" d="M39,381.52c-.46-1.14-1.95-2.47-3-2.06s-1.16,2.4-.71,3.54a5.49,5.49,0,0,0,3.23,2.73A5.27,5.27,0,0,0,39,381.52Z"/><path class="cls-3" d="M19.89,393.11c1.09.55,3.09.56,3.58-.41.22-.44-.4-2.41-1.81-3.12a5.43,5.43,0,0,0-4.23.08A5.31,5.31,0,0,0,19.89,393.11Z"/><path class="cls-3" d="M40.42,396.05c-.91.82-2.83,1.36-3.56.54-.33-.36-.25-2.43.92-3.48a5.48,5.48,0,0,1,4.11-1A5.27,5.27,0,0,1,40.42,396.05Z"/><path class="cls-3" d="M33.94,376.27a23.63,23.63,0,0,0-1.17,10.85c-3.62-5.34-10.1-8-14.89-7.61-.31,0-.58.22-.52.59a.51.51,0,0,0,.51.46c5.21-.48,12.39,2.89,15.31,9.43a17.84,17.84,0,0,1,.93,9.84,8.3,8.3,0,0,0-1.6-3.72,9.43,9.43,0,0,0-6.88-3.62c-.23,0-.66.09-.69.45-.05.54.43.58.65.6a8.39,8.39,0,0,1,6.09,3.2,7.77,7.77,0,0,1,1.18,6.93c-.2.38-.53.76-.1,1.1s.79-.16.94-.44l.13-.25,0,0c1.85-3.54,2.18-9.37.63-13.6l-.06-.16c-.91-2.92-1.37-9.23.48-13.6,2.42-5.73,6.55-8.73,12.28-8.92a.53.53,0,0,0,.57-.52c0-.45-.43-.54-.64-.53C41,366.92,36.54,370.13,33.94,376.27Z"/><path class="cls-3" d="M25.42,389.7c.59,1.08,2.22,2.22,3.18,1.7.43-.23,1-2.21.28-3.59a5.48,5.48,0,0,0-3.53-2.34A5.3,5.3,0,0,0,25.42,389.7Z"/><polygon class="cls-3" points="24.42 572.66 25.65 570.41 27.89 569.18 25.65 567.96 24.42 565.71 23.19 567.96 20.95 569.18 23.19 570.41 24.42 572.66"/><polygon class="cls-3" points="41.18 572.66 42.41 570.41 44.66 569.18 42.41 567.96 41.18 565.71 39.96 567.96 37.71 569.18 39.96 570.41 41.18 572.66"/><circle class="cls-3" cx="36.56" cy="185.66" r="1.93"/><circle class="cls-3" cx="28.74" cy="185.66" r="1.93"/><circle class="cls-3" cx="36.51" cy="142.22" r="1.93"/><circle class="cls-3" cx="28.68" cy="142.22" r="1.93"/><path class="cls-3" d="M32.83,235C31.26,235,25,253.1,25,259.15s3.51,11,7.85,11,7.85-4.9,7.85-11S34.61,235,32.83,235Z"/><path class="cls-3" d="M29.61,233.33c.56.4-3.86,11.4-5.41,13.57s-4.09,3-5.64,1.91-1.55-3.78,0-5.95S29,232.87,29.61,233.33Z"/><path class="cls-3" d="M35.5,233.33c-.56.4,3.86,11.4,5.42,13.57s4.08,3,5.63,1.91,1.56-3.78,0-5.95S36.14,232.87,35.5,233.33Z"/><circle class="cls-3" cx="32.83" cy="229.92" r="2.62"/><path class="cls-3" d="M24.47,221.84c-.16-1.21-1.26-2.88-2.34-2.74s-1.74,2-1.58,3.24A5.46,5.46,0,0,0,23,225.8,5.3,5.3,0,0,0,24.47,221.84Z"/><path class="cls-3" d="M30.82,219c-.41-1.15-1.83-2.55-2.86-2.19s-1.27,2.34-.87,3.5a5.5,5.5,0,0,0,3.1,2.88A5.27,5.27,0,0,0,30.82,219Z"/><path class="cls-3" d="M45.84,227.44c-1,.7-3,1-3.6.08s.35-2.64,1.36-3.33a5.49,5.49,0,0,1,4.21-.5A5.29,5.29,0,0,1,45.84,227.44Z"/><path class="cls-3" d="M41.27,223.2c-.84.88-2.72,1.56-3.51.8s-.18-2.66.67-3.54a5.48,5.48,0,0,1,4-1.33A5.33,5.33,0,0,1,41.27,223.2Z"/><path class="cls-3" d="M39.09,216.15c-.45,1.14-1.94,2.47-3,2.06s-1.17-2.4-.71-3.53a5.49,5.49,0,0,1,3.23-2.74A5.29,5.29,0,0,1,39.09,216.15Z"/><path class="cls-3" d="M19.94,204.57C21,204,23,204,23.52,205c.22.44-.4,2.42-1.8,3.12a5.5,5.5,0,0,1-4.23-.07A5.24,5.24,0,0,1,19.94,204.57Z"/><path class="cls-3" d="M40.48,201.62c-.92-.82-2.84-1.35-3.57-.54a3.52,3.52,0,0,0,.93,3.48,5.47,5.47,0,0,0,4.1,1A5.3,5.3,0,0,0,40.48,201.62Z"/><path class="cls-3" d="M34,221.4a23.35,23.35,0,0,1-1.17-10.85c-3.62,5.34-10.1,8-14.89,7.61-.31,0-.58-.21-.52-.58a.5.5,0,0,1,.51-.47c5.2.48,12.38-2.89,15.3-9.43a17.75,17.75,0,0,0,.94-9.84,8.26,8.26,0,0,1-1.6,3.72,9.5,9.5,0,0,1-6.88,3.63c-.23,0-.66-.1-.69-.46-.05-.54.43-.58.64-.59a8.4,8.4,0,0,0,6.09-3.21A7.72,7.72,0,0,0,32.92,194c-.2-.39-.53-.77-.1-1.11s.79.16.94.44a2,2,0,0,0,.13.25l0,0c1.85,3.54,2.19,9.37.64,13.6l-.06.16c-.91,2.93-1.37,9.23.48,13.6,2.42,5.74,6.55,8.73,12.27,8.92a.54.54,0,0,1,.58.52c0,.45-.43.54-.65.53C41,230.75,36.59,227.54,34,221.4Z"/><path class="cls-3" d="M25.48,208c.59-1.08,2.22-2.22,3.18-1.7a3.5,3.5,0,0,1,.28,3.59,5.46,5.46,0,0,1-3.53,2.34A5.3,5.3,0,0,1,25.48,208Z"/><circle class="cls-3" cx="32.66" cy="164.21" r="1.89"/><ellipse class="cls-3" cx="40.97" cy="164.36" rx="5.4" ry="1.75"/><ellipse class="cls-3" cx="23.99" cy="164.21" rx="5.4" ry="1.75"/><ellipse class="cls-3" cx="32.66" cy="172.62" rx="1.75" ry="5.4"/><ellipse class="cls-3" cx="41.34" cy="172.83" rx="1.64" ry="9.17" transform="translate(-109.69 79.19) rotate(-44.75)"/><ellipse class="cls-3" cx="23.81" cy="172.83" rx="9.17" ry="1.64" transform="translate(-115.7 68.07) rotate(-45.25)"/><ellipse class="cls-3" cx="32.61" cy="155.38" rx="1.75" ry="5.4"/><ellipse class="cls-3" cx="41.28" cy="155.16" rx="9.17" ry="1.64" transform="translate(-97.98 75.25) rotate(-45.25)"/><ellipse class="cls-3" cx="23.75" cy="155.16" rx="1.64" ry="9.17" transform="translate(-102.35 61.69) rotate(-44.75)"/><path class="cls-3" d="M32.6,279.57c-.43,0-2.17,7.22-2.16,8.89s1,3,2.18,3,2.17-1.37,2.16-3S33.09,279.57,32.6,279.57Z"/><circle class="cls-3" cx="32.61" cy="276.29" r="1.73"/><path class="cls-3" d="M34.8,278.62c-.32.29,3.14,6.85,4.25,8.1s2.74,1.62,3.64.83.72-2.46-.39-3.71S35.17,278.3,34.8,278.62Z"/><path class="cls-3" d="M35.88,276.4c0,.43,7.21,2.2,8.88,2.2s3-1,3-2.17-1.36-2.17-3-2.17S35.88,275.91,35.88,276.4Z"/><path class="cls-3" d="M30.42,278.55c.32.29-3.15,6.85-4.26,8.1s-2.74,1.62-3.63.82-.72-2.45.39-3.7S30.05,278.22,30.42,278.55Z"/><path class="cls-3" d="M29.34,276.32c0,.44-7.21,2.21-8.89,2.21s-3-1-3-2.17,1.36-2.17,3-2.17S29.34,275.83,29.34,276.32Z"/><path class="cls-3" d="M32.52,50.15c-.43,0-2.16-7.2-2.15-8.87s1-3,2.18-3,2.15,1.36,2.15,3S33,50.15,32.52,50.15Z"/><circle class="cls-3" cx="32.53" cy="53.41" r="1.73"/><path class="cls-3" d="M34.72,51.09C34.4,50.8,37.85,44.26,39,43s2.73-1.61,3.62-.82.72,2.45-.39,3.7S35.08,51.42,34.72,51.09Z"/><path class="cls-3" d="M35.79,53.31c0-.43,7.19-2.2,8.86-2.2s3,1,3,2.16-1.35,2.17-3,2.17S35.79,53.8,35.79,53.31Z"/><path class="cls-3" d="M30.35,51.17c.32-.29-3.14-6.84-4.24-8.08s-2.74-1.62-3.63-.82-.72,2.44.39,3.69S30,51.49,30.35,51.17Z"/><path class="cls-3" d="M29.27,53.38c0-.43-7.19-2.2-8.86-2.2s-3,1-3,2.17,1.35,2.16,3,2.16S29.27,53.87,29.27,53.38Z"/><path class="cls-3" d="M32.75,93.25c-1.57,0-7.85-18.1-7.85-24.15s3.51-11,7.85-11S40.6,63,40.6,69.1,34.52,93.25,32.75,93.25Z"/><path class="cls-3" d="M29.52,94.92c.57-.41-3.85-11.4-5.41-13.57s-4.08-3-5.64-1.91-1.55,3.78,0,6S28.89,95.38,29.52,94.92Z"/><path class="cls-3" d="M35.42,94.92c-.56-.41,3.85-11.4,5.41-13.57s4.09-3,5.64-1.91,1.55,3.78,0,6S36.06,95.38,35.42,94.92Z"/><circle class="cls-3" cx="32.75" cy="98.32" r="2.62"/><path class="cls-3" d="M24.38,106.41c-.15,1.21-1.25,2.88-2.33,2.74s-1.74-2-1.59-3.24a5.53,5.53,0,0,1,2.43-3.47A5.29,5.29,0,0,1,24.38,106.41Z"/><path class="cls-3" d="M30.74,109.27c-.41,1.15-1.83,2.55-2.86,2.19S26.6,109.12,27,108a5.48,5.48,0,0,1,3.1-2.88A5.35,5.35,0,0,1,30.74,109.27Z"/><path class="cls-3" d="M45.76,100.81c-1-.7-3-1-3.6-.09s.35,2.65,1.36,3.34a5.46,5.46,0,0,0,4.2.5A5.26,5.26,0,0,0,45.76,100.81Z"/><path class="cls-3" d="M41.19,105.05c-.85-.88-2.73-1.56-3.51-.8s-.19,2.66.66,3.54a5.5,5.5,0,0,0,4,1.33A5.3,5.3,0,0,0,41.19,105.05Z"/><path class="cls-3" d="M39,112.1c-.46-1.14-1.95-2.47-3-2.06s-1.16,2.39-.7,3.53a5.49,5.49,0,0,0,3.23,2.74A5.29,5.29,0,0,0,39,112.1Z"/><path class="cls-3" d="M19.86,123.68c1.09.55,3.09.57,3.58-.4.22-.44-.4-2.42-1.8-3.13a5.51,5.51,0,0,0-4.24.08A5.33,5.33,0,0,0,19.86,123.68Z"/><path class="cls-3" d="M40.39,126.62c-.91.82-2.83,1.36-3.56.55-.33-.37-.24-2.44.92-3.49a5.53,5.53,0,0,1,4.11-1A5.26,5.26,0,0,1,40.39,126.62Z"/><path class="cls-3" d="M33.92,106.85a23.49,23.49,0,0,0-1.18,10.85c-3.62-5.35-10.1-8-14.89-7.62-.31,0-.58.22-.51.59a.52.52,0,0,0,.5.47c5.21-.48,12.39,2.88,15.31,9.43a17.84,17.84,0,0,1,.94,9.84,8.45,8.45,0,0,0-1.6-3.73,9.5,9.5,0,0,0-6.88-3.62c-.23,0-.67.09-.7.46,0,.54.43.58.65.59a8.44,8.44,0,0,1,6.09,3.21,7.76,7.76,0,0,1,1.18,6.92c-.2.39-.52.76-.09,1.11s.79-.17.93-.44l.13-.25s0,0,0,0c1.85-3.53,2.19-9.37.64-13.59l-.06-.16c-.91-2.93-1.37-9.23.48-13.6,2.42-5.74,6.54-8.74,12.27-8.92a.54.54,0,0,0,.58-.52c0-.45-.44-.54-.65-.53C40.94,97.5,36.51,100.71,33.92,106.85Z"/><path class="cls-3" d="M25.39,120.28c.59,1.08,2.23,2.22,3.18,1.7.43-.24,1-2.22.29-3.6a5.47,5.47,0,0,0-3.53-2.33A5.24,5.24,0,0,0,25.39,120.28Z"/><polygon class="cls-3" points="24.39 303.23 25.62 300.99 27.86 299.76 25.62 298.53 24.39 296.29 23.16 298.53 20.92 299.76 23.16 300.99 24.39 303.23"/><polygon class="cls-3" points="41.16 303.23 42.38 300.99 44.63 299.76 42.38 298.53 41.16 296.29 39.93 298.53 37.68 299.76 39.93 300.99 41.16 303.23"/><path class="cls-3" d="M32.58,8.37c-.43,0-2.17,7.22-2.16,8.89s1,3,2.19,3,2.16-1.37,2.15-3S33.08,8.37,32.58,8.37Z"/><circle class="cls-3" cx="32.59" cy="5.09" r="1.73"/><path class="cls-3" d="M34.79,7.42c-.33.29,3.14,6.85,4.25,8.1s2.74,1.62,3.63.83.73-2.46-.39-3.71S35.15,7.1,34.79,7.42Z"/><path class="cls-3" d="M35.87,5.2c0,.43,7.2,2.2,8.88,2.2s3-1,3-2.17-1.36-2.17-3-2.17S35.87,4.71,35.87,5.2Z"/><path class="cls-3" d="M30.4,7.35c.33.28-3.14,6.85-4.25,8.1s-2.74,1.62-3.64.82-.72-2.45.39-3.71S30,7,30.4,7.35Z"/><path class="cls-3" d="M29.32,5.12c0,.44-7.21,2.21-8.88,2.21s-3-1-3-2.17S18.77,3,20.44,3,29.32,4.63,29.32,5.12Z"/><polygon class="cls-3" points="24.38 32.03 25.61 29.79 27.85 28.56 25.61 27.33 24.38 25.09 23.15 27.33 20.9 28.56 23.15 29.79 24.38 32.03"/><polygon class="cls-3" points="41.14 32.03 42.37 29.79 44.62 28.56 42.37 27.33 41.14 25.09 39.91 27.33 37.67 28.56 39.91 29.79 41.14 32.03"/><polygon class="cls-3" points="55.34 1233.34 56.56 1231.09 58.81 1229.86 56.56 1228.64 55.34 1226.39 54.11 1228.64 51.86 1229.86 54.11 1231.09 55.34 1233.34"/><polygon class="cls-3" points="55.34 1219.42 56.56 1217.17 58.81 1215.94 56.56 1214.72 55.34 1212.47 54.11 1214.72 51.86 1215.94 54.11 1217.17 55.34 1219.42"/><polygon class="cls-3" points="55.34 1205.22 56.56 1202.97 58.81 1201.75 56.56 1200.52 55.34 1198.27 54.11 1200.52 51.86 1201.75 54.11 1202.97 55.34 1205.22"/><polygon class="cls-3" points="55.34 1190.99 56.56 1188.74 58.81 1187.51 56.56 1186.29 55.34 1184.04 54.11 1186.29 51.86 1187.51 54.11 1188.74 55.34 1190.99"/><polygon class="cls-3" points="55.34 1177.07 56.56 1174.82 58.81 1173.59 56.56 1172.37 55.34 1170.12 54.11 1172.37 51.86 1173.59 54.11 1174.82 55.34 1177.07"/><polygon class="cls-3" points="55.34 1162.74 56.56 1160.49 58.81 1159.27 56.56 1158.04 55.34 1155.79 54.11 1158.04 51.86 1159.27 54.11 1160.49 55.34 1162.74"/><polygon class="cls-3" points="55.34 1148.51 56.56 1146.26 58.81 1145.03 56.56 1143.81 55.34 1141.56 54.11 1143.81 51.86 1145.03 54.11 1146.26 55.34 1148.51"/><polygon class="cls-3" points="55.34 1134.59 56.56 1132.34 58.81 1131.11 56.56 1129.88 55.34 1127.64 54.11 1129.88 51.86 1131.11 54.11 1132.34 55.34 1134.59"/><polygon class="cls-3" points="55.34 1120.39 56.56 1118.14 58.81 1116.92 56.56 1115.69 55.34 1113.44 54.11 1115.69 51.86 1116.92 54.11 1118.14 55.34 1120.39"/><polygon class="cls-3" points="55.34 1106.15 56.56 1103.91 58.81 1102.68 56.56 1101.45 55.34 1099.21 54.11 1101.45 51.86 1102.68 54.11 1103.91 55.34 1106.15"/><polygon class="cls-3" points="55.34 1092.24 56.56 1089.99 58.81 1088.76 56.56 1087.54 55.34 1085.29 54.11 1087.54 51.86 1088.76 54.11 1089.99 55.34 1092.24"/><polygon class="cls-3" points="55.34 1078.6 56.56 1076.35 58.81 1075.12 56.56 1073.89 55.34 1071.65 54.11 1073.89 51.86 1075.12 54.11 1076.35 55.34 1078.6"/><polygon class="cls-3" points="55.34 1064.36 56.56 1062.12 58.81 1060.89 56.56 1059.66 55.34 1057.42 54.11 1059.66 51.86 1060.89 54.11 1062.12 55.34 1064.36"/><polygon class="cls-3" points="55.34 1050.44 56.56 1048.2 58.81 1046.97 56.56 1045.74 55.34 1043.5 54.11 1045.74 51.86 1046.97 54.11 1048.2 55.34 1050.44"/><polygon class="cls-3" points="55.34 1036.24 56.56 1034 58.81 1032.77 56.56 1031.54 55.34 1029.3 54.11 1031.54 51.86 1032.77 54.11 1034 55.34 1036.24"/><polygon class="cls-3" points="55.34 1022.01 56.56 1019.77 58.81 1018.54 56.56 1017.31 55.34 1015.07 54.11 1017.31 51.86 1018.54 54.11 1019.77 55.34 1022.01"/><polygon class="cls-3" points="55.34 1008.09 56.56 1005.85 58.81 1004.62 56.56 1003.39 55.34 1001.15 54.11 1003.39 51.86 1004.62 54.11 1005.85 55.34 1008.09"/><polygon class="cls-3" points="55.34 993.3 56.56 991.06 58.81 989.83 56.56 988.6 55.34 986.36 54.11 988.6 51.86 989.83 54.11 991.06 55.34 993.3"/><polygon class="cls-3" points="55.34 979.07 56.56 976.83 58.81 975.6 56.56 974.37 55.34 972.13 54.11 974.37 51.86 975.6 54.11 976.83 55.34 979.07"/><polygon class="cls-3" points="55.34 965.15 56.56 962.91 58.81 961.68 56.56 960.45 55.34 958.21 54.11 960.45 51.86 961.68 54.11 962.91 55.34 965.15"/><polygon class="cls-3" points="55.34 950.96 56.56 948.71 58.81 947.48 56.56 946.25 55.34 944.01 54.11 946.25 51.86 947.48 54.11 948.71 55.34 950.96"/><polygon class="cls-3" points="55.34 936.72 56.56 934.48 58.81 933.25 56.56 932.02 55.34 929.78 54.11 932.02 51.86 933.25 54.11 934.48 55.34 936.72"/><polygon class="cls-3" points="55.34 922.8 56.56 920.56 58.81 919.33 56.56 918.1 55.34 915.86 54.11 918.1 51.86 919.33 54.11 920.56 55.34 922.8"/><polygon class="cls-3" points="55.34 909.16 56.56 906.92 58.81 905.69 56.56 904.46 55.34 902.22 54.11 904.46 51.86 905.69 54.11 906.92 55.34 909.16"/><polygon class="cls-3" points="55.34 894.93 56.56 892.68 58.81 891.46 56.56 890.23 55.34 887.98 54.11 890.23 51.86 891.46 54.11 892.68 55.34 894.93"/><polygon class="cls-3" points="55.34 881.01 56.56 878.76 58.81 877.54 56.56 876.31 55.34 874.06 54.11 876.31 51.86 877.54 54.11 878.76 55.34 881.01"/><polygon class="cls-3" points="55.34 866.81 56.56 864.57 58.81 863.34 56.56 862.11 55.34 859.87 54.11 862.11 51.86 863.34 54.11 864.57 55.34 866.81"/><polygon class="cls-3" points="55.34 852.58 56.56 850.33 58.81 849.11 56.56 847.88 55.34 845.63 54.11 847.88 51.86 849.11 54.11 850.33 55.34 852.58"/><polygon class="cls-3" points="55.34 838.66 56.56 836.41 58.81 835.19 56.56 833.96 55.34 831.71 54.11 833.96 51.86 835.19 54.11 836.41 55.34 838.66"/><polygon class="cls-3" points="55.34 824.33 56.56 822.09 58.81 820.86 56.56 819.63 55.34 817.38 54.11 819.63 51.86 820.86 54.11 822.09 55.34 824.33"/><polygon class="cls-3" points="55.34 810.1 56.56 807.85 58.81 806.62 56.56 805.4 55.34 803.15 54.11 805.4 51.86 806.62 54.11 807.85 55.34 810.1"/><polygon class="cls-3" points="55.34 796.18 56.56 793.93 58.81 792.7 56.56 791.48 55.34 789.23 54.11 791.48 51.86 792.7 54.11 793.93 55.34 796.18"/><polygon class="cls-3" points="55.34 781.98 56.56 779.74 58.81 778.51 56.56 777.28 55.34 775.03 54.11 777.28 51.86 778.51 54.11 779.74 55.34 781.98"/><polygon class="cls-3" points="55.34 767.75 56.56 765.5 58.81 764.27 56.56 763.05 55.34 760.8 54.11 763.05 51.86 764.27 54.11 765.5 55.34 767.75"/><polygon class="cls-3" points="55.34 753.83 56.56 751.58 58.81 750.35 56.56 749.13 55.34 746.88 54.11 749.13 51.86 750.35 54.11 751.58 55.34 753.83"/><polygon class="cls-3" points="55.34 740.19 56.56 737.94 58.81 736.71 56.56 735.49 55.34 733.24 54.11 735.49 51.86 736.71 54.11 737.94 55.34 740.19"/><polygon class="cls-3" points="55.34 725.95 56.56 723.71 58.81 722.48 56.56 721.25 55.34 719.01 54.11 721.25 51.86 722.48 54.11 723.71 55.34 725.95"/><polygon class="cls-3" points="55.34 712.03 56.56 709.79 58.81 708.56 56.56 707.33 55.34 705.09 54.11 707.33 51.86 708.56 54.11 709.79 55.34 712.03"/><polygon class="cls-3" points="55.34 697.84 56.56 695.59 58.81 694.36 56.56 693.14 55.34 690.89 54.11 693.14 51.86 694.36 54.11 695.59 55.34 697.84"/><polygon class="cls-3" points="55.34 683.6 56.56 681.36 58.81 680.13 56.56 678.9 55.34 676.66 54.11 678.9 51.86 680.13 54.11 681.36 55.34 683.6"/><polygon class="cls-3" points="55.34 669.68 56.56 667.44 58.81 666.21 56.56 664.98 55.34 662.74 54.11 664.98 51.86 666.21 54.11 667.44 55.34 669.68"/><polygon class="cls-3" points="55.34 653.96 56.56 651.71 58.81 650.49 56.56 649.26 55.34 647.01 54.11 649.26 51.86 650.49 54.11 651.71 55.34 653.96"/><polygon class="cls-3" points="55.34 639.73 56.56 637.48 58.81 636.25 56.56 635.02 55.34 632.78 54.11 635.02 51.86 636.25 54.11 637.48 55.34 639.73"/><polygon class="cls-3" points="55.34 625.8 56.56 623.56 58.81 622.33 56.56 621.1 55.34 618.86 54.11 621.1 51.86 622.33 54.11 623.56 55.34 625.8"/><polygon class="cls-3" points="55.34 611.61 56.56 609.36 58.81 608.13 56.56 606.91 55.34 604.66 54.11 606.91 51.86 608.13 54.11 609.36 55.34 611.61"/><polygon class="cls-3" points="55.34 597.38 56.56 595.13 58.81 593.9 56.56 592.67 55.34 590.43 54.11 592.67 51.86 593.9 54.11 595.13 55.34 597.38"/><polygon class="cls-3" points="55.34 583.46 56.56 581.21 58.81 579.98 56.56 578.75 55.34 576.51 54.11 578.75 51.86 579.98 54.11 581.21 55.34 583.46"/><polygon class="cls-3" points="55.34 569.82 56.56 567.57 58.81 566.34 56.56 565.11 55.34 562.87 54.11 565.11 51.86 566.34 54.11 567.57 55.34 569.82"/><polygon class="cls-3" points="55.34 555.58 56.56 553.34 58.81 552.11 56.56 550.88 55.34 548.63 54.11 550.88 51.86 552.11 54.11 553.34 55.34 555.58"/><polygon class="cls-3" points="55.34 541.66 56.56 539.42 58.81 538.19 56.56 536.96 55.34 534.72 54.11 536.96 51.86 538.19 54.11 539.42 55.34 541.66"/><polygon class="cls-3" points="55.34 527.47 56.56 525.22 58.81 523.99 56.56 522.76 55.34 520.52 54.11 522.76 51.86 523.99 54.11 525.22 55.34 527.47"/><polygon class="cls-3" points="55.34 513.23 56.56 510.99 58.81 509.76 56.56 508.53 55.34 506.29 54.11 508.53 51.86 509.76 54.11 510.99 55.34 513.23"/><polygon class="cls-3" points="55.34 499.31 56.56 497.07 58.81 495.84 56.56 494.61 55.34 492.37 54.11 494.61 51.86 495.84 54.11 497.07 55.34 499.31"/><polygon class="cls-3" points="55.34 484.98 56.56 482.74 58.81 481.51 56.56 480.28 55.34 478.04 54.11 480.28 51.86 481.51 54.11 482.74 55.34 484.98"/><polygon class="cls-3" points="55.34 470.75 56.56 468.5 58.81 467.28 56.56 466.05 55.34 463.8 54.11 466.05 51.86 467.28 54.11 468.5 55.34 470.75"/><polygon class="cls-3" points="55.34 456.83 56.56 454.58 58.81 453.36 56.56 452.13 55.34 449.88 54.11 452.13 51.86 453.36 54.11 454.58 55.34 456.83"/><polygon class="cls-3" points="55.34 442.63 56.56 440.39 58.81 439.16 56.56 437.93 55.34 435.69 54.11 437.93 51.86 439.16 54.11 440.39 55.34 442.63"/><polygon class="cls-3" points="55.34 428.4 56.56 426.15 58.81 424.93 56.56 423.7 55.34 421.45 54.11 423.7 51.86 424.93 54.11 426.15 55.34 428.4"/><polygon class="cls-3" points="55.34 414.48 56.56 412.23 58.81 411.01 56.56 409.78 55.34 407.53 54.11 409.78 51.86 411.01 54.11 412.23 55.34 414.48"/><polygon class="cls-3" points="55.34 400.84 56.56 398.6 58.81 397.37 56.56 396.14 55.34 393.89 54.11 396.14 51.86 397.37 54.11 398.6 55.34 400.84"/><polygon class="cls-3" points="55.34 386.61 56.56 384.36 58.81 383.13 56.56 381.9 55.34 379.66 54.11 381.9 51.86 383.13 54.11 384.36 55.34 386.61"/><polygon class="cls-3" points="55.34 372.69 56.56 370.44 58.81 369.21 56.56 367.99 55.34 365.74 54.11 367.99 51.86 369.21 54.11 370.44 55.34 372.69"/><polygon class="cls-3" points="55.34 358.49 56.56 356.24 58.81 355.02 56.56 353.79 55.34 351.54 54.11 353.79 51.86 355.02 54.11 356.24 55.34 358.49"/><polygon class="cls-3" points="55.34 344.26 56.56 342.01 58.81 340.78 56.56 339.56 55.34 337.31 54.11 339.56 51.86 340.78 54.11 342.01 55.34 344.26"/><polygon class="cls-3" points="55.34 330.34 56.56 328.09 58.81 326.86 56.56 325.63 55.34 323.39 54.11 325.63 51.86 326.86 54.11 328.09 55.34 330.34"/><polygon class="cls-3" points="55.34 316.52 56.56 314.28 58.81 313.05 56.56 311.82 55.34 309.57 54.11 311.82 51.86 313.05 54.11 314.28 55.34 316.52"/><polygon class="cls-3" points="55.34 302.29 56.56 300.04 58.81 298.81 56.56 297.59 55.34 295.34 54.11 297.59 51.86 298.81 54.11 300.04 55.34 302.29"/><polygon class="cls-3" points="55.34 288.37 56.56 286.12 58.81 284.89 56.56 283.67 55.34 281.42 54.11 283.67 51.86 284.89 54.11 286.12 55.34 288.37"/><polygon class="cls-3" points="55.34 274.17 56.56 271.93 58.81 270.7 56.56 269.47 55.34 267.22 54.11 269.47 51.86 270.7 54.11 271.93 55.34 274.17"/><polygon class="cls-3" points="55.34 259.94 56.56 257.69 58.81 256.46 56.56 255.24 55.34 252.99 54.11 255.24 51.86 256.46 54.11 257.69 55.34 259.94"/><polygon class="cls-3" points="55.34 246.02 56.56 243.77 58.81 242.54 56.56 241.32 55.34 239.07 54.11 241.32 51.86 242.54 54.11 243.77 55.34 246.02"/><polygon class="cls-3" points="55.34 232.38 56.56 230.13 58.81 228.91 56.56 227.68 55.34 225.43 54.11 227.68 51.86 228.91 54.11 230.13 55.34 232.38"/><polygon class="cls-3" points="55.34 218.14 56.56 215.9 58.81 214.67 56.56 213.44 55.34 211.2 54.11 213.44 51.86 214.67 54.11 215.9 55.34 218.14"/><polygon class="cls-3" points="55.34 204.22 56.56 201.98 58.81 200.75 56.56 199.52 55.34 197.28 54.11 199.52 51.86 200.75 54.11 201.98 55.34 204.22"/><polygon class="cls-3" points="55.34 190.03 56.56 187.78 58.81 186.55 56.56 185.33 55.34 183.08 54.11 185.33 51.86 186.55 54.11 187.78 55.34 190.03"/><polygon class="cls-3" points="55.34 175.79 56.56 173.55 58.81 172.32 56.56 171.09 55.34 168.85 54.11 171.09 51.86 172.32 54.11 173.55 55.34 175.79"/><polygon class="cls-3" points="55.34 161.87 56.56 159.63 58.81 158.4 56.56 157.17 55.34 154.93 54.11 157.17 51.86 158.4 54.11 159.63 55.34 161.87"/><polygon class="cls-3" points="55.34 63.4 56.56 61.16 58.81 59.93 56.56 58.7 55.34 56.46 54.11 58.7 51.86 59.93 54.11 61.16 55.34 63.4"/><polygon class="cls-3" points="55.34 49.17 56.56 46.92 58.81 45.7 56.56 44.47 55.34 42.22 54.11 44.47 51.86 45.7 54.11 46.92 55.34 49.17"/><polygon class="cls-3" points="55.34 35.25 56.56 33 58.81 31.78 56.56 30.55 55.34 28.3 54.11 30.55 51.86 31.78 54.11 33 55.34 35.25"/><polygon class="cls-3" points="10.03 1233.34 11.26 1231.09 13.5 1229.86 11.26 1228.64 10.03 1226.39 8.8 1228.64 6.56 1229.86 8.8 1231.09 10.03 1233.34"/><polygon class="cls-3" points="10.03 1219.42 11.26 1217.17 13.5 1215.94 11.26 1214.72 10.03 1212.47 8.8 1214.72 6.56 1215.94 8.8 1217.17 10.03 1219.42"/><polygon class="cls-3" points="10.03 1205.22 11.26 1202.97 13.5 1201.75 11.26 1200.52 10.03 1198.27 8.8 1200.52 6.56 1201.75 8.8 1202.97 10.03 1205.22"/><polygon class="cls-3" points="10.03 1190.99 11.26 1188.74 13.5 1187.51 11.26 1186.29 10.03 1184.04 8.8 1186.29 6.56 1187.51 8.8 1188.74 10.03 1190.99"/><polygon class="cls-3" points="10.03 1177.07 11.26 1174.82 13.5 1173.59 11.26 1172.37 10.03 1170.12 8.8 1172.37 6.56 1173.59 8.8 1174.82 10.03 1177.07"/><polygon class="cls-3" points="10.03 1162.74 11.26 1160.49 13.5 1159.27 11.26 1158.04 10.03 1155.79 8.8 1158.04 6.56 1159.27 8.8 1160.49 10.03 1162.74"/><polygon class="cls-3" points="10.03 1148.51 11.26 1146.26 13.5 1145.03 11.26 1143.81 10.03 1141.56 8.8 1143.81 6.56 1145.03 8.8 1146.26 10.03 1148.51"/><polygon class="cls-3" points="10.03 1134.59 11.26 1132.34 13.5 1131.11 11.26 1129.88 10.03 1127.64 8.8 1129.88 6.56 1131.11 8.8 1132.34 10.03 1134.59"/><polygon class="cls-3" points="10.03 1120.39 11.26 1118.14 13.5 1116.92 11.26 1115.69 10.03 1113.44 8.8 1115.69 6.56 1116.92 8.8 1118.14 10.03 1120.39"/><polygon class="cls-3" points="10.03 1106.15 11.26 1103.91 13.5 1102.68 11.26 1101.45 10.03 1099.21 8.8 1101.45 6.56 1102.68 8.8 1103.91 10.03 1106.15"/><polygon class="cls-3" points="10.03 1092.24 11.26 1089.99 13.5 1088.76 11.26 1087.54 10.03 1085.29 8.8 1087.54 6.56 1088.76 8.8 1089.99 10.03 1092.24"/><polygon class="cls-3" points="10.03 1078.6 11.26 1076.35 13.5 1075.12 11.26 1073.89 10.03 1071.65 8.8 1073.89 6.56 1075.12 8.8 1076.35 10.03 1078.6"/><polygon class="cls-3" points="10.03 1064.36 11.26 1062.12 13.5 1060.89 11.26 1059.66 10.03 1057.42 8.8 1059.66 6.56 1060.89 8.8 1062.12 10.03 1064.36"/><polygon class="cls-3" points="10.03 1050.44 11.26 1048.2 13.5 1046.97 11.26 1045.74 10.03 1043.5 8.8 1045.74 6.56 1046.97 8.8 1048.2 10.03 1050.44"/><polygon class="cls-3" points="10.03 1036.24 11.26 1034 13.5 1032.77 11.26 1031.54 10.03 1029.3 8.8 1031.54 6.56 1032.77 8.8 1034 10.03 1036.24"/><polygon class="cls-3" points="10.03 1022.01 11.26 1019.77 13.5 1018.54 11.26 1017.31 10.03 1015.07 8.8 1017.31 6.56 1018.54 8.8 1019.77 10.03 1022.01"/><polygon class="cls-3" points="10.03 1008.09 11.26 1005.85 13.5 1004.62 11.26 1003.39 10.03 1001.15 8.8 1003.39 6.56 1004.62 8.8 1005.85 10.03 1008.09"/><polygon class="cls-3" points="10.03 993.3 11.26 991.06 13.5 989.83 11.26 988.6 10.03 986.36 8.8 988.6 6.56 989.83 8.8 991.06 10.03 993.3"/><polygon class="cls-3" points="10.03 979.07 11.26 976.83 13.5 975.6 11.26 974.37 10.03 972.13 8.8 974.37 6.56 975.6 8.8 976.83 10.03 979.07"/><polygon class="cls-3" points="10.03 965.15 11.26 962.91 13.5 961.68 11.26 960.45 10.03 958.21 8.8 960.45 6.56 961.68 8.8 962.91 10.03 965.15"/><polygon class="cls-3" points="10.03 950.96 11.26 948.71 13.5 947.48 11.26 946.25 10.03 944.01 8.8 946.25 6.56 947.48 8.8 948.71 10.03 950.96"/><polygon class="cls-3" points="10.03 936.72 11.26 934.48 13.5 933.25 11.26 932.02 10.03 929.78 8.8 932.02 6.56 933.25 8.8 934.48 10.03 936.72"/><polygon class="cls-3" points="10.03 922.8 11.26 920.56 13.5 919.33 11.26 918.1 10.03 915.86 8.8 918.1 6.56 919.33 8.8 920.56 10.03 922.8"/><polygon class="cls-3" points="10.03 909.16 11.26 906.92 13.5 905.69 11.26 904.46 10.03 902.22 8.8 904.46 6.56 905.69 8.8 906.92 10.03 909.16"/><polygon class="cls-3" points="10.03 894.93 11.26 892.68 13.5 891.46 11.26 890.23 10.03 887.98 8.8 890.23 6.56 891.46 8.8 892.68 10.03 894.93"/><polygon class="cls-3" points="10.03 881.01 11.26 878.76 13.5 877.54 11.26 876.31 10.03 874.06 8.8 876.31 6.56 877.54 8.8 878.76 10.03 881.01"/><polygon class="cls-3" points="10.03 866.81 11.26 864.57 13.5 863.34 11.26 862.11 10.03 859.87 8.8 862.11 6.56 863.34 8.8 864.57 10.03 866.81"/><polygon class="cls-3" points="10.03 852.58 11.26 850.33 13.5 849.11 11.26 847.88 10.03 845.63 8.8 847.88 6.56 849.11 8.8 850.33 10.03 852.58"/><polygon class="cls-3" points="10.03 838.66 11.26 836.41 13.5 835.19 11.26 833.96 10.03 831.71 8.8 833.96 6.56 835.19 8.8 836.41 10.03 838.66"/><polygon class="cls-3" points="10.03 824.33 11.26 822.09 13.5 820.86 11.26 819.63 10.03 817.38 8.8 819.63 6.56 820.86 8.8 822.09 10.03 824.33"/><polygon class="cls-3" points="10.03 810.1 11.26 807.85 13.5 806.62 11.26 805.4 10.03 803.15 8.8 805.4 6.56 806.62 8.8 807.85 10.03 810.1"/><polygon class="cls-3" points="10.03 796.18 11.26 793.93 13.5 792.7 11.26 791.48 10.03 789.23 8.8 791.48 6.56 792.7 8.8 793.93 10.03 796.18"/><polygon class="cls-3" points="10.03 781.98 11.26 779.74 13.5 778.51 11.26 777.28 10.03 775.03 8.8 777.28 6.56 778.51 8.8 779.74 10.03 781.98"/><polygon class="cls-3" points="10.03 767.75 11.26 765.5 13.5 764.27 11.26 763.05 10.03 760.8 8.8 763.05 6.56 764.27 8.8 765.5 10.03 767.75"/><polygon class="cls-3" points="10.03 753.83 11.26 751.58 13.5 750.35 11.26 749.13 10.03 746.88 8.8 749.13 6.56 750.35 8.8 751.58 10.03 753.83"/><polygon class="cls-3" points="10.03 740.19 11.26 737.94 13.5 736.71 11.26 735.49 10.03 733.24 8.8 735.49 6.56 736.71 8.8 737.94 10.03 740.19"/><polygon class="cls-3" points="10.03 725.95 11.26 723.71 13.5 722.48 11.26 721.25 10.03 719.01 8.8 721.25 6.56 722.48 8.8 723.71 10.03 725.95"/><polygon class="cls-3" points="10.03 712.03 11.26 709.79 13.5 708.56 11.26 707.33 10.03 705.09 8.8 707.33 6.56 708.56 8.8 709.79 10.03 712.03"/><polygon class="cls-3" points="10.03 697.84 11.26 695.59 13.5 694.36 11.26 693.14 10.03 690.89 8.8 693.14 6.56 694.36 8.8 695.59 10.03 697.84"/><polygon class="cls-3" points="10.03 683.6 11.26 681.36 13.5 680.13 11.26 678.9 10.03 676.66 8.8 678.9 6.56 680.13 8.8 681.36 10.03 683.6"/><polygon class="cls-3" points="10.03 669.68 11.26 667.44 13.5 666.21 11.26 664.98 10.03 662.74 8.8 664.98 6.56 666.21 8.8 667.44 10.03 669.68"/><polygon class="cls-3" points="10.03 653.96 11.26 651.71 13.5 650.49 11.26 649.26 10.03 647.01 8.8 649.26 6.56 650.49 8.8 651.71 10.03 653.96"/><polygon class="cls-3" points="10.03 639.73 11.26 637.48 13.5 636.25 11.26 635.02 10.03 632.78 8.8 635.02 6.56 636.25 8.8 637.48 10.03 639.73"/><polygon class="cls-3" points="10.03 625.8 11.26 623.56 13.5 622.33 11.26 621.1 10.03 618.86 8.8 621.1 6.56 622.33 8.8 623.56 10.03 625.8"/><polygon class="cls-3" points="10.03 611.61 11.26 609.36 13.5 608.13 11.26 606.91 10.03 604.66 8.8 606.91 6.56 608.13 8.8 609.36 10.03 611.61"/><polygon class="cls-3" points="10.03 597.38 11.26 595.13 13.5 593.9 11.26 592.67 10.03 590.43 8.8 592.67 6.56 593.9 8.8 595.13 10.03 597.38"/><polygon class="cls-3" points="10.03 583.46 11.26 581.21 13.5 579.98 11.26 578.75 10.03 576.51 8.8 578.75 6.56 579.98 8.8 581.21 10.03 583.46"/><polygon class="cls-3" points="10.03 569.82 11.26 567.57 13.5 566.34 11.26 565.11 10.03 562.87 8.8 565.11 6.56 566.34 8.8 567.57 10.03 569.82"/><polygon class="cls-3" points="10.03 555.58 11.26 553.34 13.5 552.11 11.26 550.88 10.03 548.63 8.8 550.88 6.56 552.11 8.8 553.34 10.03 555.58"/><polygon class="cls-3" points="10.03 541.66 11.26 539.42 13.5 538.19 11.26 536.96 10.03 534.72 8.8 536.96 6.56 538.19 8.8 539.42 10.03 541.66"/><polygon class="cls-3" points="10.03 527.47 11.26 525.22 13.5 523.99 11.26 522.76 10.03 520.52 8.8 522.76 6.56 523.99 8.8 525.22 10.03 527.47"/><polygon class="cls-3" points="10.03 513.23 11.26 510.99 13.5 509.76 11.26 508.53 10.03 506.29 8.8 508.53 6.56 509.76 8.8 510.99 10.03 513.23"/><polygon class="cls-3" points="10.03 499.31 11.26 497.07 13.5 495.84 11.26 494.61 10.03 492.37 8.8 494.61 6.56 495.84 8.8 497.07 10.03 499.31"/><polygon class="cls-3" points="10.03 484.98 11.26 482.74 13.5 481.51 11.26 480.28 10.03 478.04 8.8 480.28 6.56 481.51 8.8 482.74 10.03 484.98"/><polygon class="cls-3" points="10.03 470.75 11.26 468.5 13.5 467.28 11.26 466.05 10.03 463.8 8.8 466.05 6.56 467.28 8.8 468.5 10.03 470.75"/><polygon class="cls-3" points="10.03 456.83 11.26 454.58 13.5 453.36 11.26 452.13 10.03 449.88 8.8 452.13 6.56 453.36 8.8 454.58 10.03 456.83"/><polygon class="cls-3" points="10.03 442.63 11.26 440.39 13.5 439.16 11.26 437.93 10.03 435.69 8.8 437.93 6.56 439.16 8.8 440.39 10.03 442.63"/><polygon class="cls-3" points="10.03 428.4 11.26 426.15 13.5 424.93 11.26 423.7 10.03 421.45 8.8 423.7 6.56 424.93 8.8 426.15 10.03 428.4"/><polygon class="cls-3" points="10.03 414.48 11.26 412.23 13.5 411.01 11.26 409.78 10.03 407.53 8.8 409.78 6.56 411.01 8.8 412.23 10.03 414.48"/><polygon class="cls-3" points="10.03 400.84 11.26 398.6 13.5 397.37 11.26 396.14 10.03 393.89 8.8 396.14 6.56 397.37 8.8 398.6 10.03 400.84"/><polygon class="cls-3" points="10.03 386.61 11.26 384.36 13.5 383.13 11.26 381.9 10.03 379.66 8.8 381.9 6.56 383.13 8.8 384.36 10.03 386.61"/><polygon class="cls-3" points="10.03 372.69 11.26 370.44 13.5 369.21 11.26 367.99 10.03 365.74 8.8 367.99 6.56 369.21 8.8 370.44 10.03 372.69"/><polygon class="cls-3" points="10.03 358.49 11.26 356.24 13.5 355.02 11.26 353.79 10.03 351.54 8.8 353.79 6.56 355.02 8.8 356.24 10.03 358.49"/><polygon class="cls-3" points="10.03 344.26 11.26 342.01 13.5 340.78 11.26 339.56 10.03 337.31 8.8 339.56 6.56 340.78 8.8 342.01 10.03 344.26"/><polygon class="cls-3" points="10.03 330.34 11.26 328.09 13.5 326.86 11.26 325.63 10.03 323.39 8.8 325.63 6.56 326.86 8.8 328.09 10.03 330.34"/><polygon class="cls-3" points="10.03 316.52 11.26 314.28 13.5 313.05 11.26 311.82 10.03 309.57 8.8 311.82 6.56 313.05 8.8 314.28 10.03 316.52"/><polygon class="cls-3" points="10.03 302.29 11.26 300.04 13.5 298.81 11.26 297.59 10.03 295.34 8.8 297.59 6.56 298.81 8.8 300.04 10.03 302.29"/><polygon class="cls-3" points="10.03 288.37 11.26 286.12 13.5 284.89 11.26 283.67 10.03 281.42 8.8 283.67 6.56 284.89 8.8 286.12 10.03 288.37"/><polygon class="cls-3" points="10.03 274.17 11.26 271.93 13.5 270.7 11.26 269.47 10.03 267.22 8.8 269.47 6.56 270.7 8.8 271.93 10.03 274.17"/><polygon class="cls-3" points="10.03 259.94 11.26 257.69 13.5 256.46 11.26 255.24 10.03 252.99 8.8 255.24 6.56 256.46 8.8 257.69 10.03 259.94"/><polygon class="cls-3" points="10.03 246.02 11.26 243.77 13.5 242.54 11.26 241.32 10.03 239.07 8.8 241.32 6.56 242.54 8.8 243.77 10.03 246.02"/><polygon class="cls-3" points="10.03 232.38 11.26 230.13 13.5 228.91 11.26 227.68 10.03 225.43 8.8 227.68 6.56 228.91 8.8 230.13 10.03 232.38"/><polygon class="cls-3" points="10.03 218.14 11.26 215.9 13.5 214.67 11.26 213.44 10.03 211.2 8.8 213.44 6.56 214.67 8.8 215.9 10.03 218.14"/><polygon class="cls-3" points="10.03 204.22 11.26 201.98 13.5 200.75 11.26 199.52 10.03 197.28 8.8 199.52 6.56 200.75 8.8 201.98 10.03 204.22"/><polygon class="cls-3" points="10.03 190.03 11.26 187.78 13.5 186.55 11.26 185.33 10.03 183.08 8.8 185.33 6.56 186.55 8.8 187.78 10.03 190.03"/><polygon class="cls-3" points="10.03 175.79 11.26 173.55 13.5 172.32 11.26 171.09 10.03 168.85 8.8 171.09 6.56 172.32 8.8 173.55 10.03 175.79"/><polygon class="cls-3" points="10.03 161.87 11.26 159.63 13.5 158.4 11.26 157.17 10.03 154.93 8.8 157.17 6.56 158.4 8.8 159.63 10.03 161.87"/><polygon class="cls-3" points="10.03 63.4 11.26 61.16 13.5 59.93 11.26 58.7 10.03 56.46 8.8 58.7 6.56 59.93 8.8 61.16 10.03 63.4"/><polygon class="cls-3" points="10.03 49.17 11.26 46.92 13.5 45.7 11.26 44.47 10.03 42.22 8.8 44.47 6.56 45.7 8.8 46.92 10.03 49.17"/><polygon class="cls-3" points="10.03 35.25 11.26 33 13.5 31.78 11.26 30.55 10.03 28.3 8.8 30.55 6.56 31.78 8.8 33 10.03 35.25"/><polygon class="cls-3" points="10.03 21.03 11.26 18.79 13.5 17.56 11.26 16.33 10.03 14.09 8.8 16.33 6.56 17.56 8.8 18.79 10.03 21.03"/><polygon class="cls-3" points="10.03 6.46 11.26 4.21 13.5 2.99 11.26 1.76 10.03 -0.49 8.8 1.76 6.56 2.99 8.8 4.21 10.03 6.46"/><polygon class="cls-3" points="10.03 147.02 11.26 144.78 13.5 143.55 11.26 142.32 10.03 140.08 8.8 142.32 6.56 143.55 8.8 144.78 10.03 147.02"/><polygon class="cls-3" points="10.03 132.79 11.26 130.54 13.5 129.31 11.26 128.09 10.03 125.84 8.8 128.09 6.56 129.31 8.8 130.54 10.03 132.79"/><polygon class="cls-3" points="10.03 118.87 11.26 116.62 13.5 115.4 11.26 114.17 10.03 111.92 8.8 114.17 6.56 115.4 8.8 116.62 10.03 118.87"/><polygon class="cls-3" points="10.03 104.67 11.26 102.43 13.5 101.2 11.26 99.97 10.03 97.73 8.8 99.97 6.56 101.2 8.8 102.43 10.03 104.67"/><polygon class="cls-3" points="10.03 90.44 11.26 88.19 13.5 86.97 11.26 85.74 10.03 83.49 8.8 85.74 6.56 86.97 8.8 88.19 10.03 90.44"/><polygon class="cls-3" points="10.03 76.52 11.26 74.27 13.5 73.05 11.26 71.82 10.03 69.57 8.8 71.82 6.56 73.05 8.8 74.27 10.03 76.52"/></g><g class="cls-4"><path class="cls-5" d="M9.13,833.13c0,.42,7,2.11,8.61,2.1s2.94-1,2.93-2.12-1.32-2.1-3-2.09S9.13,832.66,9.13,833.13Z"/><circle class="cls-5" cx="5.95" cy="833.12" r="1.68"/><path class="cls-5" d="M8.21,831c.28.31,6.64-3,7.85-4.12s1.57-2.66.8-3.52-2.38-.7-3.59.38S7.9,830.64,8.21,831Z"/><path class="cls-5" d="M6.06,830c.42,0,2.13-7,2.13-8.6s-.94-2.94-2.1-2.94S4,819.73,4,821.35,5.58,830,6.06,830Z"/><path class="cls-5" d="M8.14,835.25c.28-.32,6.64,3,7.85,4.12s1.57,2.65.8,3.52-2.38.7-3.6-.38S7.82,835.6,8.14,835.25Z"/><path class="cls-5" d="M6,836.29c.41,0,2.13,7,2.13,8.61s-.94,2.94-2.1,2.94-2.1-1.32-2.11-2.94S5.51,836.29,6,836.29Z"/><path class="cls-5" d="M-32.76,832.92c0,1.52,17.59,7.63,23.48,7.63s10.65-3.42,10.65-7.63-4.77-7.63-10.65-7.63S-32.76,831.19-32.76,832.92Z"/><path class="cls-5" d="M9.14,895c0,.42,7,2.1,8.61,2.09s2.93-1,2.93-2.12-1.33-2.09-2.95-2.09S9.13,894.5,9.14,895Z"/><circle class="cls-5" cx="5.96" cy="894.97" r="1.68"/><path class="cls-5" d="M8.22,892.84c.28.32,6.64-3,7.85-4.12s1.57-2.65.8-3.52-2.38-.7-3.6.38S7.9,892.49,8.22,892.84Z"/><path class="cls-5" d="M6.06,891.8c.42,0,2.14-7,2.14-8.61s-.94-2.94-2.1-2.94S4,881.57,4,883.19,5.59,891.8,6.06,891.8Z"/><path class="cls-5" d="M8.14,897.09c.28-.31,6.64,3,7.86,4.12s1.56,2.66.79,3.52-2.38.7-3.59-.37S7.83,897.45,8.14,897.09Z"/><path class="cls-5" d="M6,898.14c.42,0,2.14,7,2.14,8.6s-.94,2.94-2.11,2.94-2.1-1.32-2.1-2.94S5.51,898.14,6,898.14Z"/><path class="cls-5" d="M-32.75,894.76c0,1.52,17.59,7.63,23.47,7.63S1.37,899,1.37,894.76s-4.77-7.63-10.65-7.63S-32.75,893-32.75,894.76Z"/><path class="cls-5" d="M9.07,956.71c0,.42,7,2.1,8.61,2.1s2.93-1,2.93-2.12-1.33-2.1-2.95-2.09S9.06,956.24,9.07,956.71Z"/><circle class="cls-5" cx="5.89" cy="956.7" r="1.68"/><path class="cls-5" d="M8.15,954.58c.28.31,6.64-3,7.85-4.12s1.57-2.66.8-3.52-2.38-.7-3.6.37S7.83,954.22,8.15,954.58Z"/><path class="cls-5" d="M6,953.53c.42,0,2.13-7,2.13-8.6S7.19,942,6,942s-2.1,1.32-2.1,2.94S5.52,953.53,6,953.53Z"/><path class="cls-5" d="M8.08,958.83c.28-.32,6.63,3,7.85,4.12s1.57,2.65.79,3.52-2.38.7-3.59-.38S7.76,959.18,8.08,958.83Z"/><path class="cls-5" d="M5.92,959.87c.42,0,2.14,7,2.14,8.61s-.94,2.93-2.1,2.93-2.11-1.31-2.11-2.93S5.45,959.87,5.92,959.87Z"/><path class="cls-5" d="M-32.82,956.49c0,1.53,17.59,7.63,23.47,7.63s10.66-3.41,10.66-7.63-4.77-7.62-10.66-7.62S-32.82,954.77-32.82,956.49Z"/><path class="cls-5" d="M9.07,1018.55c0,.42,7,2.11,8.62,2.1s2.93-1,2.92-2.12-1.32-2.1-2.94-2.09S9.07,1018.08,9.07,1018.55Z"/><circle class="cls-5" cx="5.9" cy="1018.55" r="1.68"/><path class="cls-5" d="M8.15,1016.42c.28.31,6.64-3,7.86-4.12s1.56-2.65.79-3.52-2.38-.7-3.59.38S7.84,1016.07,8.15,1016.42Z"/><path class="cls-5" d="M6,1015.38c.42,0,2.14-7,2.14-8.61s-.94-2.94-2.11-2.94-2.1,1.32-2.1,2.94S5.53,1015.38,6,1015.38Z"/><path class="cls-5" d="M8.08,1020.67c.28-.31,6.64,3,7.85,4.12s1.57,2.65.8,3.52-2.38.7-3.59-.38S7.77,1021,8.08,1020.67Z"/><path class="cls-5" d="M5.93,1021.72c.42,0,2.13,7,2.14,8.6s-1,2.94-2.11,2.94-2.1-1.32-2.1-2.94S5.45,1021.72,5.93,1021.72Z"/><path class="cls-5" d="M-32.81,1018.34c0,1.52,17.59,7.63,23.47,7.63s10.65-3.42,10.65-7.63-4.77-7.63-10.65-7.63S-32.81,1016.61-32.81,1018.34Z"/><path class="cls-5" d="M9,1081.51c0,.42,7,2.1,8.61,2.1s2.94-1,2.93-2.12-1.33-2.1-2.95-2.09S9,1081,9,1081.51Z"/><circle class="cls-5" cx="5.82" cy="1081.5" r="1.68"/><path class="cls-5" d="M8.08,1079.38c.28.31,6.64-3,7.85-4.12s1.57-2.66.8-3.53-2.38-.69-3.59.38S7.76,1079,8.08,1079.38Z"/><path class="cls-5" d="M5.93,1078.33c.42,0,2.13-7,2.13-8.6s-.94-2.94-2.1-2.94-2.1,1.31-2.1,2.94S5.45,1078.33,5.93,1078.33Z"/><path class="cls-5" d="M8,1083.63c.28-.32,6.64,3,7.85,4.12s1.57,2.65.8,3.52-2.38.7-3.6-.38S7.69,1084,8,1083.63Z"/><path class="cls-5" d="M5.85,1084.67c.42,0,2.14,7,2.14,8.61s-.94,2.93-2.1,2.93-2.11-1.31-2.11-2.93S5.38,1084.67,5.85,1084.67Z"/><path class="cls-5" d="M-32.89,1081.29c0,1.53,17.59,7.63,23.47,7.63s10.66-3.41,10.66-7.63-4.77-7.63-10.66-7.63S-32.89,1079.57-32.89,1081.29Z"/><path class="cls-5" d="M9,1143.35c0,.42,7,2.11,8.62,2.1s2.93-1,2.93-2.12-1.33-2.1-2.95-2.09S9,1142.88,9,1143.35Z"/><circle class="cls-5" cx="5.83" cy="1143.34" r="1.68"/><path class="cls-5" d="M8.09,1141.22c.27.31,6.63-3,7.85-4.12s1.57-2.65.79-3.52-2.38-.7-3.59.38S7.77,1140.86,8.09,1141.22Z"/><path class="cls-5" d="M5.93,1140.17c.42,0,2.14-7,2.14-8.6s-.94-2.94-2.11-2.94-2.1,1.32-2.1,2.94S5.46,1140.17,5.93,1140.17Z"/><path class="cls-5" d="M8,1145.47c.28-.31,6.64,3,7.85,4.12s1.57,2.65.8,3.52-2.38.7-3.59-.38S7.7,1145.82,8,1145.47Z"/><path class="cls-5" d="M5.86,1146.51c.42,0,2.14,7,2.14,8.61s-1,2.94-2.11,2.94-2.1-1.32-2.1-2.94S5.38,1146.51,5.86,1146.51Z"/><path class="cls-5" d="M-32.88,1143.14c0,1.52,17.59,7.63,23.47,7.63s10.65-3.42,10.65-7.63-4.77-7.63-10.65-7.63S-32.88,1141.41-32.88,1143.14Z"/><path class="cls-5" d="M8.94,1205.09c0,.42,7,2.1,8.61,2.09s2.93-1,2.93-2.11-1.33-2.1-2.95-2.09S8.93,1204.61,8.94,1205.09Z"/><circle class="cls-5" cx="5.76" cy="1205.08" r="1.68"/><path class="cls-5" d="M8,1203c.28.31,6.64-3,7.85-4.12s1.57-2.66.8-3.53-2.38-.7-3.6.38S7.7,1202.6,8,1203Z"/><path class="cls-5" d="M5.86,1201.91c.42,0,2.14-7,2.14-8.6s-.94-2.94-2.1-2.94-2.11,1.31-2.11,2.94S5.39,1201.91,5.86,1201.91Z"/><path class="cls-5" d="M7.94,1207.2c.28-.31,6.64,3,7.86,4.13s1.56,2.65.79,3.52-2.38.7-3.59-.38S7.63,1207.56,7.94,1207.2Z"/><path class="cls-5" d="M5.79,1208.25c.42,0,2.14,7,2.14,8.61s-.94,2.93-2.11,2.93-2.1-1.31-2.1-2.93S5.31,1208.25,5.79,1208.25Z"/><path class="cls-5" d="M-32.95,1204.87c0,1.52,17.59,7.63,23.47,7.63s10.65-3.41,10.65-7.63-4.77-7.63-10.65-7.63S-32.95,1203.15-32.95,1204.87Z"/></g></g></svg>