<svg xmlns="http://www.w3.org/2000/svg" xmlns:xlink="http://www.w3.org/1999/xlink" viewBox="0 0 246.29 246.29"><defs><style>.cls-1{fill:none;}.cls-2{clip-path:url(#clip-path);}.cls-3{clip-path:url(#clip-path-2);}.cls-4{fill:#1e643e;}.cls-5{fill:#ef3e2d;}.cls-6{clip-path:url(#clip-path-3);}.cls-7{fill:#cc352d;}.cls-8{clip-path:url(#clip-path-4);}.cls-9{clip-path:url(#clip-path-5);}</style><clipPath id="clip-path"><rect class="cls-1" x="-639.87" y="-545.71" width="612" height="792"/></clipPath><clipPath id="clip-path-2"><rect class="cls-1" x="-786.74" y="-566.96" width="903.51" height="993.68"/></clipPath><clipPath id="clip-path-3"><rect class="cls-1" x="354.86" y="286.5" width="382.41" height="382.41"/></clipPath><clipPath id="clip-path-4"><rect class="cls-1" x="-55.47" y="278.96" width="390.33" height="389.94"/></clipPath><clipPath id="clip-path-5"><rect class="cls-1" x="-465.79" y="278.96" width="390.33" height="389.94"/></clipPath></defs><title>web_xingones</title><g id="green"><g class="cls-2"><g class="cls-3"><circle class="cls-4" cx="29.38" cy="2.3" r="1.91"/><circle class="cls-4" cx="29.38" cy="10.06" r="1.91"/><circle class="cls-4" cx="72.43" cy="2.36" r="1.91"/><circle class="cls-4" cx="72.43" cy="10.11" r="1.91"/><path class="cls-4" d="M-.83-.2c-1.13.45-2.44,1.92-2,2.93s2.38,1.15,3.5.7A5.44,5.44,0,0,0,3.34.23,5.19,5.19,0,0,0-.83-.2Z"/><path class="cls-4" d="M10.65,18.77c.55-1.08.56-3.06-.4-3.55A3.5,3.5,0,0,0,7.16,17a5.4,5.4,0,0,0,.07,4.19A5.19,5.19,0,0,0,10.65,18.77Z"/><path class="cls-4" d="M13.57-1.57c.81.9,1.34,2.8.54,3.53A3.5,3.5,0,0,1,10.65,1,5.5,5.5,0,0,1,9.63-3,5.23,5.23,0,0,1,13.57-1.57Z"/><path class="cls-4" d="M-6,4.84C-3,6.12,1.23,6.38,4.72,6-.57,9.59-3.22,16-2.82,20.76a.49.49,0,0,0,.58.51.5.5,0,0,0,.46-.5C-2.25,15.61,1.08,8.5,7.57,5.6a17.7,17.7,0,0,1,9.75-.93,8.35,8.35,0,0,0-3.69,1.59A9.38,9.38,0,0,0,10,13.08c0,.22.09.65.45.69.53,0,.57-.43.59-.65a8.28,8.28,0,0,1,3.18-6,7.61,7.61,0,0,1,6.85-1.17c.39.19.76.52,1.1.09s-.16-.78-.44-.93L21.53,5l-.05,0C18,3.09,12.2,2.76,8,4.3l-.16.06C5,5.26-1.29,5.72-5.62,3.88c-5.69-2.4-8.66-6.49-8.84-12.16A.53.53,0,0,0-15-8.85c-.44,0-.53.43-.52.64C-15.3-2.11-12.11,2.27-6,4.84Z"/><path class="cls-4" d="M7.28,13.29c1.07-.58,2.2-2.2,1.68-3.15-.23-.43-2.19-1-3.56-.28a5.38,5.38,0,0,0-2.31,3.49A5.19,5.19,0,0,0,7.28,13.29Z"/><circle class="cls-4" cx="50.64" cy="6.17" r="1.88"/><ellipse class="cls-4" cx="50.49" cy="-2.06" rx="1.73" ry="5.35"/><ellipse class="cls-4" cx="50.64" cy="14.76" rx="1.73" ry="5.35"/><ellipse class="cls-4" cx="42.31" cy="6.17" rx="5.35" ry="1.73"/><ellipse class="cls-4" cx="42.1" cy="-2.43" rx="1.63" ry="9.08" transform="translate(14.18 29.18) rotate(-45.25)"/><ellipse class="cls-4" cx="42.1" cy="14.94" rx="9.08" ry="1.63" transform="translate(1.68 33.97) rotate(-44.75)"/><ellipse class="cls-4" cx="59.39" cy="6.22" rx="5.35" ry="1.73"/><ellipse class="cls-4" cx="59.61" cy="-2.37" rx="9.08" ry="1.63" transform="translate(18.94 41.28) rotate(-44.75)"/><ellipse class="cls-4" cx="59.61" cy="15" rx="1.63" ry="9.08" transform="translate(6.99 46.77) rotate(-45.25)"/><path class="cls-4" d="M163.66,6.31c0,.42,7.13,2.14,8.79,2.13s3-1,3-2.16-1.35-2.13-3-2.13S163.66,5.82,163.66,6.31Z"/><circle class="cls-4" cx="160.42" cy="6.3" r="1.71"/><path class="cls-4" d="M162.72,4.13c.29.32,6.77-3.1,8-4.2s1.6-2.71.81-3.59-2.42-.71-3.66.38S162.4,3.77,162.72,4.13Z"/><path class="cls-4" d="M160.53,3.07c.43,0,2.18-7.12,2.18-8.78s-1-3-2.15-3-2.14,1.34-2.14,3S160,3.07,160.53,3.07Z"/><path class="cls-4" d="M162.65,8.46c.29-.32,6.77,3.11,8,4.21s1.6,2.7.81,3.59-2.43.71-3.66-.39S162.33,8.83,162.65,8.46Z"/><path class="cls-4" d="M160.45,9.53c.43,0,2.18,7.12,2.18,8.78s-1,3-2.14,3-2.15-1.34-2.15-3S160,9.53,160.45,9.53Z"/><path class="cls-4" d="M121,6.09c0,1.55,17.94,7.78,23.93,7.78s10.87-3.49,10.87-7.78-4.87-7.78-10.87-7.78S121,4.32,121,6.09Z"/><path class="cls-4" d="M119.3,9.28c.4-.56,11.29,3.82,13.44,5.36s3,4.05,1.9,5.59-3.75,1.54-5.9,0S118.84,9.91,119.3,9.28Z"/><path class="cls-4" d="M119.3,3.44c.4.55,11.29-3.82,13.44-5.37s3-4,1.9-5.58-3.75-1.54-5.9,0S118.84,2.81,119.3,3.44Z"/><circle class="cls-4" cx="115.92" cy="6.09" r="2.6"/><path class="cls-4" d="M107.91,14.37c-1.2.15-2.85,1.25-2.71,2.32s2,1.72,3.21,1.57a5.43,5.43,0,0,0,3.43-2.41A5.23,5.23,0,0,0,107.91,14.37Z"/><path class="cls-4" d="M105.08,8.08c-1.14.4-2.53,1.81-2.17,2.83s2.32,1.26,3.46.86a5.43,5.43,0,0,0,2.86-3.07A5.27,5.27,0,0,0,105.08,8.08Z"/><path class="cls-4" d="M109.26-2.28c.87.84,1.54,2.7.79,3.48s-2.63.18-3.51-.66a5.41,5.41,0,0,1-1.31-4A5.24,5.24,0,0,1,109.26-2.28Z"/><path class="cls-4" d="M102.28-.12c1.12.45,2.44,1.93,2,2.93s-2.38,1.15-3.5.7A5.45,5.45,0,0,1,98.1.31,5.27,5.27,0,0,1,102.28-.12Z"/><path class="cls-4" d="M90.8,18.86c-.55-1.09-.57-3.07.4-3.55.43-.22,2.39.39,3.09,1.78a5.47,5.47,0,0,1-.07,4.2A5.27,5.27,0,0,1,90.8,18.86Z"/><path class="cls-4" d="M87.88-1.49c-.81.9-1.34,2.81-.54,3.53a3.48,3.48,0,0,0,3.45-.92,5.48,5.48,0,0,0,1-4.07A5.31,5.31,0,0,0,87.88-1.49Z"/><path class="cls-4" d="M107.48,4.93A23.34,23.34,0,0,1,96.73,6.09c5.29,3.59,7.94,10,7.54,14.75,0,.31-.21.58-.58.51a.51.51,0,0,1-.47-.5c.48-5.16-2.85-12.27-9.34-15.16a17.53,17.53,0,0,0-9.75-.93,8.22,8.22,0,0,1,3.69,1.58,9.38,9.38,0,0,1,3.59,6.82c0,.23-.09.66-.45.69-.54,0-.57-.43-.59-.64a8.39,8.39,0,0,0-3.18-6A7.69,7.69,0,0,0,80.33,6c-.38.2-.75.52-1.09.09s.16-.78.44-.92L79.92,5l0,0c3.5-1.83,9.28-2.16,13.47-.63l.15.06c2.9.9,9.15,1.36,13.48-.47,5.68-2.4,8.65-6.49,8.84-12.17a.54.54,0,0,1,.52-.57c.44,0,.53.43.52.64C116.74-2,113.56,2.36,107.48,4.93Z"/><path class="cls-4" d="M94.17,13.37c-1.07-.58-2.2-2.2-1.68-3.15a3.48,3.48,0,0,1,3.56-.28,5.4,5.4,0,0,1,2.31,3.5A5.26,5.26,0,0,1,94.17,13.37Z"/><circle class="cls-4" cx="76.29" cy="32.94" r="1.91"/><circle class="cls-4" cx="76.29" cy="40.7" r="1.91"/><circle class="cls-4" cx="119.33" cy="32.99" r="1.91"/><circle class="cls-4" cx="119.33" cy="40.75" r="1.91"/><path class="cls-4" d="M27.4,36.64c0,1.55-17.93,7.78-23.93,7.78S-7.39,40.94-7.39,36.64s4.86-7.78,10.86-7.78S27.4,34.88,27.4,36.64Z"/><path class="cls-4" d="M29.06,39.83c-.4-.55-11.3,3.82-13.45,5.37s-3,4-1.89,5.58,3.74,1.54,5.9,0S29.51,40.46,29.06,39.83Z"/><path class="cls-4" d="M29.06,34c-.4.56-11.3-3.82-13.45-5.36s-3-4.05-1.89-5.59,3.74-1.53,5.9,0S29.51,33.36,29.06,34Z"/><circle class="cls-4" cx="32.43" cy="36.64" r="2.6"/><path class="cls-4" d="M40.44,44.93c1.2.15,2.85,1.24,2.72,2.31S41.15,49,40,48.81a5.43,5.43,0,0,1-3.44-2.41A5.26,5.26,0,0,1,40.44,44.93Z"/><path class="cls-4" d="M43.27,38.63c1.15.4,2.53,1.82,2.18,2.84s-2.32,1.26-3.47.86a5.43,5.43,0,0,1-2.86-3.07A5.23,5.23,0,0,1,43.27,38.63Z"/><path class="cls-4" d="M34.89,23.75c-.69,1-1,3-.08,3.57S37.43,27,38.11,26a5.44,5.44,0,0,0,.5-4.17A5.25,5.25,0,0,0,34.89,23.75Z"/><path class="cls-4" d="M39.1,28.27c-.88.85-1.55,2.71-.8,3.48s2.63.19,3.51-.65a5.44,5.44,0,0,0,1.32-4A5.27,5.27,0,0,0,39.1,28.27Z"/><path class="cls-4" d="M46.08,30.43c-1.13.46-2.45,1.93-2,2.93s2.38,1.16,3.51.71a5.46,5.46,0,0,0,2.71-3.21A5.28,5.28,0,0,0,46.08,30.43Z"/><path class="cls-4" d="M57.56,49.41c.54-1.08.56-3.06-.41-3.55-.43-.22-2.39.4-3.09,1.79a5.43,5.43,0,0,0,.08,4.19A5.21,5.21,0,0,0,57.56,49.41Z"/><path class="cls-4" d="M60.47,29.06c.81.91,1.35,2.81.54,3.53-.36.33-2.41.25-3.45-.91a5.41,5.41,0,0,1-1-4.07A5.23,5.23,0,0,1,60.47,29.06Z"/><path class="cls-4" d="M40.88,35.48a23.19,23.19,0,0,0,10.75,1.16c-5.3,3.59-8,10-7.55,14.76a.5.5,0,0,0,.59.51.52.52,0,0,0,.46-.5c-.48-5.16,2.86-12.28,9.34-15.17a17.72,17.72,0,0,1,9.75-.93,8.29,8.29,0,0,0-3.69,1.59,9.38,9.38,0,0,0-3.59,6.81c0,.23.09.66.45.69.54.05.58-.42.59-.64a8.35,8.35,0,0,1,3.18-6A7.66,7.66,0,0,1,68,36.55c.38.2.75.53,1.09.1s-.16-.78-.43-.93l-.25-.13,0,0c-3.51-1.84-9.29-2.17-13.47-.63l-.16.06c-2.9.9-9.15,1.35-13.48-.48-5.68-2.4-8.65-6.49-8.84-12.16a.52.52,0,0,0-.51-.57c-.45,0-.53.43-.53.64C31.61,28.52,34.79,32.91,40.88,35.48Z"/><path class="cls-4" d="M54.19,43.93c1.06-.59,2.19-2.21,1.68-3.15a3.48,3.48,0,0,0-3.56-.29A5.47,5.47,0,0,0,50,44,5.22,5.22,0,0,0,54.19,43.93Z"/><circle class="cls-4" cx="97.54" cy="36.81" r="1.88"/><ellipse class="cls-4" cx="97.4" cy="28.58" rx="1.73" ry="5.35"/><ellipse class="cls-4" cx="97.54" cy="45.4" rx="1.73" ry="5.35"/><ellipse class="cls-4" cx="89.21" cy="36.81" rx="5.35" ry="1.73"/><ellipse class="cls-4" cx="89" cy="28.21" rx="1.63" ry="9.08" transform="translate(6.31 71.56) rotate(-45.25)"/><ellipse class="cls-4" cx="89" cy="45.58" rx="9.08" ry="1.63" transform="translate(-6.3 75.86) rotate(-44.75)"/><ellipse class="cls-4" cx="106.3" cy="36.86" rx="5.35" ry="1.73"/><ellipse class="cls-4" cx="106.51" cy="28.27" rx="9.08" ry="1.63" transform="translate(10.97 83.17) rotate(-44.75)"/><ellipse class="cls-4" cx="106.51" cy="45.64" rx="1.63" ry="9.08" transform="translate(-0.88 89.15) rotate(-45.25)"/><path class="cls-4" d="M210.57,37c0,.42,7.13,2.14,8.78,2.13s3-1,3-2.16-1.35-2.14-3-2.13S210.56,36.46,210.57,37Z"/><circle class="cls-4" cx="207.33" cy="36.94" r="1.71"/><path class="cls-4" d="M209.63,34.77c.28.32,6.77-3.1,8-4.2s1.6-2.71.82-3.59-2.43-.72-3.67.38S209.31,34.41,209.63,34.77Z"/><path class="cls-4" d="M207.43,33.7c.43,0,2.18-7.12,2.18-8.77s-1-3-2.14-3-2.15,1.34-2.15,3S207,33.7,207.43,33.7Z"/><path class="cls-4" d="M209.56,39.1c.28-.32,6.76,3.1,8,4.2s1.6,2.71.81,3.6-2.42.71-3.66-.39S209.23,39.46,209.56,39.1Z"/><path class="cls-4" d="M207.36,40.17c.43,0,2.18,7.12,2.18,8.77s-1,3-2.15,3-2.14-1.34-2.14-3S206.87,40.17,207.36,40.17Z"/><path class="cls-4" d="M167.85,36.72c0,1.56,17.94,7.78,23.94,7.78s10.86-3.48,10.86-7.78-4.86-7.78-10.86-7.78S167.85,35,167.85,36.72Z"/><path class="cls-4" d="M166.2,39.92c.4-.56,11.3,3.81,13.45,5.36s3,4,1.89,5.59-3.75,1.53-5.9,0S165.75,40.55,166.2,39.92Z"/><path class="cls-4" d="M166.2,34.08c.4.55,11.3-3.82,13.45-5.37s3-4,1.89-5.58-3.75-1.54-5.9,0S165.75,33.44,166.2,34.08Z"/><circle class="cls-4" cx="162.83" cy="36.72" r="2.6"/><path class="cls-4" d="M154.82,45c-1.21.15-2.86,1.24-2.72,2.32s2,1.72,3.21,1.56a5.5,5.5,0,0,0,3.44-2.4A5.28,5.28,0,0,0,154.82,45Z"/><path class="cls-4" d="M152,38.72c-1.15.4-2.53,1.81-2.18,2.83s2.32,1.26,3.47.86a5.4,5.4,0,0,0,2.85-3.07A5.17,5.17,0,0,0,152,38.72Z"/><path class="cls-4" d="M160.37,23.83c.69,1,1,3,.08,3.57s-2.62-.35-3.31-1.35a5.46,5.46,0,0,1-.49-4.17A5.25,5.25,0,0,1,160.37,23.83Z"/><path class="cls-4" d="M156.16,28.36c.88.84,1.55,2.7.8,3.48s-2.64.18-3.51-.66a5.43,5.43,0,0,1-1.32-4A5.23,5.23,0,0,1,156.16,28.36Z"/><path class="cls-4" d="M149.18,30.52c1.13.45,2.45,1.92,2,2.93s-2.37,1.15-3.5.7A5.48,5.48,0,0,1,145,31,5.24,5.24,0,0,1,149.18,30.52Z"/><path class="cls-4" d="M137.7,49.49c-.55-1.08-.56-3.06.4-3.54a3.47,3.47,0,0,1,3.1,1.78,5.46,5.46,0,0,1-.08,4.2A5.26,5.26,0,0,1,137.7,49.49Z"/><path class="cls-4" d="M134.79,29.15c-.82.9-1.35,2.81-.54,3.53a3.48,3.48,0,0,0,3.45-.92,5.41,5.41,0,0,0,1-4.07A5.25,5.25,0,0,0,134.79,29.15Z"/><path class="cls-4" d="M154.38,35.57a23.32,23.32,0,0,1-10.75,1.16c5.3,3.58,8,10,7.54,14.75a.49.49,0,0,1-.58.51.5.5,0,0,1-.46-.5c.48-5.16-2.86-12.27-9.34-15.17A17.65,17.65,0,0,0,131,35.4a8.31,8.31,0,0,1,3.7,1.58,9.42,9.42,0,0,1,3.59,6.82c0,.23-.1.66-.46.69-.53,0-.57-.43-.59-.64a8.33,8.33,0,0,0-3.17-6,7.7,7.7,0,0,0-6.86-1.17c-.39.2-.76.52-1.1.09s.17-.78.44-.92l.25-.13s0,0,0,0A18.46,18.46,0,0,1,140.34,35l.16.06c2.9.9,9.14,1.36,13.48-.48,5.68-2.39,8.65-6.49,8.83-12.16a.53.53,0,0,1,.52-.57c.44,0,.53.43.53.64C163.65,28.61,160.46,33,154.38,35.57Z"/><path class="cls-4" d="M141.07,44c-1.06-.58-2.2-2.2-1.68-3.15.23-.43,2.2-1,3.56-.28a5.47,5.47,0,0,1,2.32,3.5A5.28,5.28,0,0,1,141.07,44Z"/><circle class="cls-4" cx="29.14" cy="65.02" r="1.91"/><circle class="cls-4" cx="29.14" cy="72.77" r="1.91"/><circle class="cls-4" cx="72.18" cy="65.07" r="1.91"/><circle class="cls-4" cx="72.18" cy="72.82" r="1.91"/><path class="cls-4" d="M-1.07,62.51c-1.13.45-2.45,1.93-2,2.93s2.37,1.15,3.5.7a5.48,5.48,0,0,0,2.71-3.2A5.24,5.24,0,0,0-1.07,62.51Z"/><path class="cls-4" d="M10.41,81.48C11,80.4,11,78.42,10,77.94c-.43-.22-2.39.39-3.09,1.78A5.46,5.46,0,0,0,7,83.92,5.28,5.28,0,0,0,10.41,81.48Z"/><path class="cls-4" d="M13.32,61.14c.81.9,1.35,2.81.54,3.53a3.48,3.48,0,0,1-3.45-.92,5.41,5.41,0,0,1-1-4.07A5.25,5.25,0,0,1,13.32,61.14Z"/><path class="cls-4" d="M-6.27,67.56A23.32,23.32,0,0,0,4.48,68.72c-5.3,3.58-8,10-7.55,14.75a.5.5,0,0,0,.59.51.51.51,0,0,0,.46-.5C-2.5,78.32.84,71.21,7.32,68.31a17.62,17.62,0,0,1,9.75-.92A8.27,8.27,0,0,0,13.38,69a9.38,9.38,0,0,0-3.59,6.82c0,.23.09.66.45.69.54,0,.58-.43.59-.64a8.37,8.37,0,0,1,3.18-6,7.7,7.7,0,0,1,6.86-1.17c.39.2.76.52,1.1.09s-.17-.78-.44-.92l-.25-.13,0,0C17.73,65.81,12,65.48,7.77,67l-.16.06c-2.9.9-9.14,1.36-13.48-.47-5.68-2.4-8.65-6.49-8.84-12.17a.52.52,0,0,0-.51-.57c-.45,0-.53.43-.53.64C-15.54,60.6-12.36,65-6.27,67.56Z"/><path class="cls-4" d="M7,76c1.06-.58,2.2-2.2,1.68-3.15a3.47,3.47,0,0,0-3.56-.28,5.47,5.47,0,0,0-2.32,3.5A5.28,5.28,0,0,0,7,76Z"/><circle class="cls-4" cx="50.4" cy="68.88" r="1.88"/><ellipse class="cls-4" cx="50.25" cy="60.65" rx="1.73" ry="5.35"/><ellipse class="cls-4" cx="50.4" cy="77.47" rx="1.73" ry="5.35"/><ellipse class="cls-4" cx="42.07" cy="68.88" rx="5.35" ry="1.73"/><ellipse class="cls-4" cx="41.85" cy="60.29" rx="1.63" ry="9.08" transform="translate(-30.43 47.57) rotate(-45.25)"/><ellipse class="cls-4" cx="41.85" cy="77.66" rx="9.08" ry="1.63" transform="translate(-42.54 51.97) rotate(-44.75)"/><ellipse class="cls-4" cx="59.15" cy="68.93" rx="5.35" ry="1.73"/><ellipse class="cls-4" cx="59.36" cy="60.34" rx="9.08" ry="1.63" transform="translate(-25.28 59.28) rotate(-44.75)"/><ellipse class="cls-4" cx="59.36" cy="77.71" rx="1.63" ry="9.08" transform="translate(-37.62 65.16) rotate(-45.25)"/><path class="cls-4" d="M163.42,69c0,.43,7.13,2.14,8.78,2.13s3-1,3-2.15-1.36-2.14-3-2.14S163.41,68.53,163.42,69Z"/><circle class="cls-4" cx="160.18" cy="69.01" r="1.71"/><path class="cls-4" d="M162.48,66.84c.28.32,6.77-3.1,8-4.2s1.6-2.7.81-3.59-2.43-.71-3.66.39S162.16,66.48,162.48,66.84Z"/><path class="cls-4" d="M160.28,65.78c.43,0,2.18-7.12,2.18-8.78s-1-3-2.14-3-2.15,1.34-2.15,3S159.8,65.78,160.28,65.78Z"/><path class="cls-4" d="M162.41,71.18c.28-.32,6.77,3.1,8,4.2s1.6,2.7.81,3.59-2.42.71-3.66-.39S162.08,71.54,162.41,71.18Z"/><path class="cls-4" d="M160.21,72.24c.43,0,2.18,7.12,2.18,8.78s-1,3-2.15,3-2.14-1.34-2.14-3S159.72,72.24,160.21,72.24Z"/><path class="cls-4" d="M120.7,68.8c0,1.55,17.94,7.78,23.94,7.78s10.86-3.49,10.86-7.78S150.64,61,144.64,61,120.7,67,120.7,68.8Z"/><path class="cls-4" d="M119.05,72c.4-.56,11.3,3.82,13.45,5.36s3,4.05,1.89,5.59-3.75,1.54-5.9,0S118.6,72.62,119.05,72Z"/><path class="cls-4" d="M119.05,66.15c.4.56,11.3-3.82,13.45-5.36s3-4,1.89-5.59-3.75-1.54-5.9,0S118.6,65.52,119.05,66.15Z"/><circle class="cls-4" cx="115.68" cy="68.8" r="2.6"/><path class="cls-4" d="M107.67,77.08c-1.21.16-2.85,1.25-2.72,2.32s2,1.72,3.21,1.57a5.43,5.43,0,0,0,3.44-2.41A5.29,5.29,0,0,0,107.67,77.08Z"/><path class="cls-4" d="M104.84,70.79c-1.15.4-2.53,1.81-2.18,2.83s2.32,1.27,3.47.86A5.43,5.43,0,0,0,109,71.41,5.3,5.3,0,0,0,104.84,70.79Z"/><path class="cls-4" d="M113.22,55.9c.69,1,1,3,.08,3.57s-2.62-.35-3.31-1.35A5.44,5.44,0,0,1,109.5,54,5.23,5.23,0,0,1,113.22,55.9Z"/><path class="cls-4" d="M109,60.43c.88.84,1.55,2.7.8,3.48s-2.63.18-3.51-.66a5.42,5.42,0,0,1-1.32-4A5.23,5.23,0,0,1,109,60.43Z"/><path class="cls-4" d="M102,62.59c1.13.45,2.45,1.93,2,2.93s-2.37,1.16-3.5.7A5.42,5.42,0,0,1,97.86,63,5.24,5.24,0,0,1,102,62.59Z"/><path class="cls-4" d="M90.55,81.57C90,80.48,90,78.51,91,78a3.47,3.47,0,0,1,3.1,1.78A5.45,5.45,0,0,1,94,84,5.27,5.27,0,0,1,90.55,81.57Z"/><path class="cls-4" d="M87.64,61.22c-.82.9-1.35,2.81-.54,3.53a3.48,3.48,0,0,0,3.45-.92,5.39,5.39,0,0,0,1-4.06A5.23,5.23,0,0,0,87.64,61.22Z"/><path class="cls-4" d="M107.23,67.64A23.32,23.32,0,0,1,96.48,68.8c5.3,3.59,8,10,7.54,14.75,0,.31-.21.58-.58.52a.52.52,0,0,1-.46-.51c.48-5.16-2.86-12.27-9.34-15.16a17.72,17.72,0,0,0-9.75-.93,8.22,8.22,0,0,1,3.69,1.59,9.36,9.36,0,0,1,3.59,6.81c0,.23-.1.66-.45.69-.54,0-.58-.43-.59-.64a8.39,8.39,0,0,0-3.18-6,7.7,7.7,0,0,0-6.86-1.17c-.39.2-.76.52-1.1.1s.17-.78.44-.93l.25-.13,0,0c3.51-1.83,9.28-2.16,13.47-.63l.16.06c2.9.9,9.14,1.36,13.48-.47,5.68-2.4,8.65-6.49,8.84-12.16a.52.52,0,0,1,.51-.58c.44,0,.53.43.53.64C116.5,60.68,113.31,65.07,107.23,67.64Z"/><path class="cls-4" d="M93.92,76.08c-1.06-.58-2.2-2.2-1.68-3.15a3.49,3.49,0,0,1,3.56-.28,5.47,5.47,0,0,1,2.32,3.5A5.28,5.28,0,0,1,93.92,76.08Z"/><circle class="cls-4" cx="76.22" cy="95.9" r="1.91"/><circle class="cls-4" cx="76.22" cy="103.65" r="1.91"/><circle class="cls-4" cx="119.26" cy="95.95" r="1.91"/><circle class="cls-4" cx="119.26" cy="103.7" r="1.91"/><path class="cls-4" d="M27.33,99.59c0,1.56-17.93,7.78-23.93,7.78s-10.86-3.48-10.86-7.78S-2.6,91.81,3.4,91.81,27.33,97.83,27.33,99.59Z"/><path class="cls-4" d="M29,102.79c-.4-.56-11.3,3.81-13.45,5.36s-3,4-1.89,5.59,3.75,1.53,5.9,0S29.44,103.42,29,102.79Z"/><path class="cls-4" d="M29,97c-.4.55-11.3-3.82-13.45-5.37s-3-4-1.89-5.59,3.75-1.53,5.9,0S29.44,96.31,29,97Z"/><circle class="cls-4" cx="32.36" cy="99.59" r="2.6"/><path class="cls-4" d="M40.37,107.88c1.2.15,2.85,1.24,2.72,2.32s-2,1.72-3.21,1.56a5.47,5.47,0,0,1-3.44-2.4A5.21,5.21,0,0,1,40.37,107.88Z"/><path class="cls-4" d="M43.2,101.59c1.15.4,2.53,1.81,2.18,2.83s-2.32,1.26-3.47.86a5.43,5.43,0,0,1-2.86-3.07A5.21,5.21,0,0,1,43.2,101.59Z"/><path class="cls-4" d="M34.82,86.7c-.69,1-1,3-.08,3.57s2.62-.35,3.31-1.35a5.46,5.46,0,0,0,.49-4.17A5.25,5.25,0,0,0,34.82,86.7Z"/><path class="cls-4" d="M39,91.23c-.88.84-1.55,2.7-.8,3.48s2.63.18,3.51-.66a5.43,5.43,0,0,0,1.32-4A5.22,5.22,0,0,0,39,91.23Z"/><path class="cls-4" d="M46,93.39c-1.13.45-2.45,1.92-2,2.93s2.37,1.15,3.5.7a5.48,5.48,0,0,0,2.71-3.2A5.24,5.24,0,0,0,46,93.39Z"/><path class="cls-4" d="M57.49,112.36c.54-1.08.56-3.06-.41-3.55A3.5,3.5,0,0,0,54,110.6a5.43,5.43,0,0,0,.08,4.19A5.21,5.21,0,0,0,57.49,112.36Z"/><path class="cls-4" d="M60.4,92c.81.9,1.35,2.8.54,3.53a3.48,3.48,0,0,1-3.45-.92,5.41,5.41,0,0,1-1-4.07A5.21,5.21,0,0,1,60.4,92Z"/><path class="cls-4" d="M40.81,98.43A23.19,23.19,0,0,0,51.56,99.6c-5.3,3.58-8,10-7.55,14.75a.5.5,0,0,0,.59.51.52.52,0,0,0,.46-.5c-.48-5.16,2.86-12.27,9.34-15.17a17.62,17.62,0,0,1,9.75-.92,8.27,8.27,0,0,0-3.69,1.58,9.38,9.38,0,0,0-3.59,6.82c0,.23.09.65.45.69.54,0,.58-.43.59-.64a8.35,8.35,0,0,1,3.18-6A7.67,7.67,0,0,1,68,99.51c.39.19.76.52,1.1.09s-.17-.78-.44-.92l-.25-.14,0,0a18.46,18.46,0,0,0-13.47-.63l-.16.06c-2.9.9-9.15,1.36-13.48-.48-5.68-2.39-8.65-6.49-8.84-12.16a.52.52,0,0,0-.51-.57c-.45,0-.53.43-.53.64C31.54,91.48,34.72,95.87,40.81,98.43Z"/><path class="cls-4" d="M54.12,106.88c1.06-.58,2.2-2.2,1.68-3.15a3.47,3.47,0,0,0-3.56-.28,5.47,5.47,0,0,0-2.32,3.5A5.28,5.28,0,0,0,54.12,106.88Z"/><circle class="cls-4" cx="97.48" cy="99.76" r="1.88"/><ellipse class="cls-4" cx="97.33" cy="91.53" rx="1.73" ry="5.35"/><ellipse class="cls-4" cx="97.48" cy="108.35" rx="1.73" ry="5.35"/><ellipse class="cls-4" cx="89.14" cy="99.76" rx="5.35" ry="1.73"/><ellipse class="cls-4" cx="88.93" cy="91.16" rx="1.63" ry="9.08" transform="translate(-38.42 90.14) rotate(-45.25)"/><ellipse class="cls-4" cx="88.93" cy="108.53" rx="9.08" ry="1.63" transform="translate(-50.64 94.06) rotate(-44.75)"/><ellipse class="cls-4" cx="106.23" cy="99.81" rx="5.35" ry="1.73"/><ellipse class="cls-4" cx="106.44" cy="91.22" rx="9.08" ry="1.63" transform="translate(-33.37 101.37) rotate(-44.75)"/><ellipse class="cls-4" cx="106.44" cy="108.59" rx="1.63" ry="9.08" transform="translate(-45.61 107.74) rotate(-45.25)"/><path class="cls-4" d="M210.5,99.9c0,.43,7.13,2.14,8.78,2.13s3-1,3-2.16-1.36-2.13-3-2.13S210.49,99.41,210.5,99.9Z"/><circle class="cls-4" cx="207.26" cy="99.89" r="1.71"/><path class="cls-4" d="M209.56,97.72c.28.32,6.77-3.1,8-4.2s1.6-2.71.81-3.59-2.43-.71-3.66.39S209.24,97.36,209.56,97.72Z"/><path class="cls-4" d="M207.36,96.66c.43,0,2.18-7.12,2.18-8.78s-1-3-2.14-3-2.15,1.34-2.15,3S206.88,96.66,207.36,96.66Z"/><path class="cls-4" d="M209.49,102.05c.28-.32,6.76,3.11,8,4.21s1.6,2.7.81,3.59-2.42.71-3.66-.39S209.16,102.42,209.49,102.05Z"/><path class="cls-4" d="M207.29,103.12c.43,0,2.18,7.12,2.18,8.78s-1,3-2.15,3-2.14-1.34-2.14-3S206.8,103.12,207.29,103.12Z"/><path class="cls-4" d="M167.78,99.68c0,1.55,17.94,7.78,23.94,7.78s10.86-3.49,10.86-7.78-4.86-7.78-10.86-7.78S167.78,97.92,167.78,99.68Z"/><path class="cls-4" d="M166.13,102.87c.4-.56,11.3,3.82,13.45,5.36s3,4,1.89,5.59-3.75,1.54-5.9,0S165.68,103.5,166.13,102.87Z"/><path class="cls-4" d="M166.13,97c.4.55,11.3-3.82,13.45-5.37s3-4,1.89-5.58-3.75-1.54-5.9,0S165.68,96.4,166.13,97Z"/><circle class="cls-4" cx="162.76" cy="99.68" r="2.6"/><path class="cls-4" d="M154.75,108c-1.21.16-2.85,1.25-2.72,2.32s2,1.72,3.21,1.57a5.43,5.43,0,0,0,3.44-2.41A5.29,5.29,0,0,0,154.75,108Z"/><path class="cls-4" d="M151.92,101.67c-1.15.4-2.53,1.81-2.18,2.83s2.32,1.26,3.47.86a5.4,5.4,0,0,0,2.85-3.07A5.26,5.26,0,0,0,151.92,101.67Z"/><path class="cls-4" d="M160.3,86.78c.69,1,1,3,.08,3.57S157.76,90,157.07,89a5.44,5.44,0,0,1-.49-4.16A5.19,5.19,0,0,1,160.3,86.78Z"/><path class="cls-4" d="M156.09,91.31c.88.84,1.55,2.7.8,3.48s-2.64.18-3.51-.66a5.43,5.43,0,0,1-1.32-4A5.23,5.23,0,0,1,156.09,91.31Z"/><path class="cls-4" d="M149.11,93.47c1.13.45,2.45,1.93,2,2.93s-2.37,1.15-3.5.7a5.42,5.42,0,0,1-2.71-3.2A5.24,5.24,0,0,1,149.11,93.47Z"/><path class="cls-4" d="M137.63,112.45c-.54-1.09-.56-3.07.4-3.55a3.47,3.47,0,0,1,3.1,1.78,5.45,5.45,0,0,1-.08,4.2A5.27,5.27,0,0,1,137.63,112.45Z"/><path class="cls-4" d="M134.72,92.1c-.82.9-1.35,2.81-.54,3.53a3.48,3.48,0,0,0,3.45-.92,5.39,5.39,0,0,0,1-4.06A5.23,5.23,0,0,0,134.72,92.1Z"/><path class="cls-4" d="M154.31,98.52a23.32,23.32,0,0,1-10.75,1.16c5.3,3.59,7.95,10,7.54,14.75,0,.31-.21.58-.58.52a.52.52,0,0,1-.46-.51c.48-5.16-2.86-12.27-9.34-15.16a17.62,17.62,0,0,0-9.75-.93,8.32,8.32,0,0,1,3.69,1.58,9.42,9.42,0,0,1,3.59,6.82c0,.23-.1.66-.46.69-.53,0-.57-.43-.58-.64a8.39,8.39,0,0,0-3.18-6,7.7,7.7,0,0,0-6.86-1.17c-.39.2-.76.52-1.1.1s.17-.79.44-.93l.25-.13,0,0c3.51-1.83,9.28-2.16,13.47-.63l.16.06c2.9.9,9.14,1.36,13.48-.47,5.68-2.4,8.65-6.49,8.84-12.17a.52.52,0,0,1,.51-.57c.44,0,.53.43.53.64C163.58,91.56,160.39,96,154.31,98.52Z"/><path class="cls-4" d="M141,107c-1.06-.58-2.2-2.2-1.68-3.15a3.48,3.48,0,0,1,3.56-.28,5.47,5.47,0,0,1,2.32,3.5A5.28,5.28,0,0,1,141,107Z"/><circle class="cls-4" cx="29.32" cy="128.32" r="1.91"/><circle class="cls-4" cx="29.32" cy="136.07" r="1.91"/><circle class="cls-4" cx="72.36" cy="128.37" r="1.91"/><circle class="cls-4" cx="72.36" cy="136.13" r="1.91"/><path class="cls-4" d="M-.89,125.81c-1.13.45-2.45,1.93-2,2.93s2.37,1.15,3.5.7a5.42,5.42,0,0,0,2.71-3.2A5.24,5.24,0,0,0-.89,125.81Z"/><path class="cls-4" d="M10.59,144.79c.54-1.09.56-3.07-.4-3.55A3.47,3.47,0,0,0,7.09,143a5.45,5.45,0,0,0,.08,4.2A5.27,5.27,0,0,0,10.59,144.79Z"/><path class="cls-4" d="M13.5,124.44c.82.9,1.35,2.81.54,3.53a3.48,3.48,0,0,1-3.45-.92,5.39,5.39,0,0,1-1-4.06A5.23,5.23,0,0,1,13.5,124.44Z"/><path class="cls-4" d="M-6.09,130.86A23.32,23.32,0,0,0,4.66,132c-5.3,3.59-7.95,10-7.54,14.75,0,.31.21.58.58.52a.52.52,0,0,0,.46-.51c-.48-5.16,2.86-12.27,9.34-15.16a17.53,17.53,0,0,1,9.75-.93,8.32,8.32,0,0,0-3.69,1.58A9.42,9.42,0,0,0,10,139.09c0,.23.1.66.45.69.54.05.58-.43.59-.64a8.39,8.39,0,0,1,3.18-6,7.7,7.7,0,0,1,6.86-1.17c.39.2.76.52,1.1.1s-.17-.79-.44-.93l-.25-.13,0,0c-3.51-1.83-9.28-2.16-13.47-.63l-.16.06c-2.9.9-9.14,1.36-13.48-.47-5.68-2.4-8.65-6.49-8.84-12.17a.52.52,0,0,0-.51-.57c-.44,0-.53.43-.53.64C-15.36,123.9-12.17,128.29-6.09,130.86Z"/><path class="cls-4" d="M7.22,139.3c1.06-.58,2.2-2.2,1.68-3.15a3.48,3.48,0,0,0-3.56-.28A5.47,5.47,0,0,0,3,139.37,5.28,5.28,0,0,0,7.22,139.3Z"/><circle class="cls-4" cx="50.58" cy="132.18" r="1.88"/><ellipse class="cls-4" cx="50.43" cy="123.95" rx="1.73" ry="5.35"/><ellipse class="cls-4" cx="50.58" cy="140.77" rx="1.73" ry="5.35"/><ellipse class="cls-4" cx="42.25" cy="132.18" rx="5.35" ry="1.73"/><ellipse class="cls-4" cx="42.03" cy="123.59" rx="1.63" ry="9.08" transform="translate(-75.33 66.43) rotate(-45.25)"/><ellipse class="cls-4" cx="42.03" cy="140.96" rx="9.08" ry="1.63" transform="translate(-87.05 70.44) rotate(-44.75)"/><ellipse class="cls-4" cx="59.33" cy="132.24" rx="5.35" ry="1.73"/><ellipse class="cls-4" cx="59.54" cy="123.64" rx="9.08" ry="1.63" transform="translate(-69.79 77.75) rotate(-44.75)"/><ellipse class="cls-4" cx="59.54" cy="141.01" rx="1.63" ry="9.08" transform="translate(-82.52 84.03) rotate(-45.25)"/><path class="cls-4" d="M163.6,132.32c0,.43,7.13,2.14,8.78,2.14s3-1,3-2.16-1.35-2.14-3-2.13S163.6,131.83,163.6,132.32Z"/><circle class="cls-4" cx="160.36" cy="132.31" r="1.71"/><path class="cls-4" d="M162.66,130.15c.29.32,6.77-3.11,8-4.21s1.6-2.7.81-3.59-2.43-.71-3.66.39S162.34,129.78,162.66,130.15Z"/><path class="cls-4" d="M160.47,129.08c.42,0,2.17-7.12,2.17-8.78s-1-3-2.14-3-2.15,1.34-2.15,3S160,129.08,160.47,129.08Z"/><path class="cls-4" d="M162.59,134.48c.28-.32,6.77,3.1,8,4.2s1.6,2.71.82,3.59-2.43.71-3.67-.38S162.26,134.84,162.59,134.48Z"/><path class="cls-4" d="M160.39,135.54c.43,0,2.18,7.12,2.18,8.78s-1,3-2.14,3-2.15-1.34-2.15-3S159.91,135.54,160.39,135.54Z"/><path class="cls-4" d="M120.89,132.1c0,1.55,17.93,7.78,23.93,7.78s10.86-3.48,10.86-7.78-4.86-7.78-10.86-7.78S120.89,130.34,120.89,132.1Z"/><path class="cls-4" d="M119.23,135.29c.4-.56,11.3,3.82,13.45,5.36s3,4,1.89,5.59-3.75,1.54-5.9,0S118.78,135.92,119.23,135.29Z"/><path class="cls-4" d="M119.23,129.45c.4.56,11.3-3.82,13.45-5.36s3-4,1.89-5.59-3.75-1.54-5.9,0S118.78,128.82,119.23,129.45Z"/><circle class="cls-4" cx="115.86" cy="132.1" r="2.6"/><path class="cls-4" d="M107.85,140.39c-1.2.15-2.85,1.24-2.72,2.31s2,1.72,3.21,1.57a5.43,5.43,0,0,0,3.44-2.41A5.26,5.26,0,0,0,107.85,140.39Z"/><path class="cls-4" d="M105,134.09c-1.15.4-2.53,1.81-2.18,2.83s2.32,1.27,3.47.87a5.44,5.44,0,0,0,2.86-3.08A5.3,5.3,0,0,0,105,134.09Z"/><path class="cls-4" d="M113.4,119.21c.69,1,1,3,.08,3.57s-2.62-.35-3.31-1.36a5.44,5.44,0,0,1-.49-4.16A5.25,5.25,0,0,1,113.4,119.21Z"/><path class="cls-4" d="M109.19,123.73c.88.84,1.55,2.7.8,3.48s-2.63.19-3.51-.66a5.41,5.41,0,0,1-1.32-4A5.22,5.22,0,0,1,109.19,123.73Z"/><path class="cls-4" d="M102.21,125.89c1.13.46,2.45,1.93,2,2.93s-2.37,1.16-3.5.7a5.42,5.42,0,0,1-2.71-3.2A5.24,5.24,0,0,1,102.21,125.89Z"/><path class="cls-4" d="M90.73,144.87c-.54-1.09-.56-3.06.41-3.55.43-.22,2.39.4,3.09,1.79a5.43,5.43,0,0,1-.08,4.19A5.29,5.29,0,0,1,90.73,144.87Z"/><path class="cls-4" d="M87.82,124.52c-.81.91-1.35,2.81-.54,3.53.36.33,2.41.25,3.45-.91a5.42,5.42,0,0,0,1-4.07A5.23,5.23,0,0,0,87.82,124.52Z"/><path class="cls-4" d="M107.41,130.94a23.32,23.32,0,0,1-10.75,1.16c5.3,3.59,8,10,7.55,14.76a.5.5,0,0,1-.59.51.52.52,0,0,1-.46-.51c.48-5.15-2.86-12.27-9.34-15.16a17.72,17.72,0,0,0-9.75-.93,8.18,8.18,0,0,1,3.69,1.59,9.38,9.38,0,0,1,3.59,6.81c0,.23-.09.66-.45.69-.54,0-.58-.43-.59-.64a8.35,8.35,0,0,0-3.18-6A7.67,7.67,0,0,0,80.27,132c-.39.2-.76.52-1.1.1s.17-.78.44-.93l.25-.13,0,0c3.51-1.84,9.29-2.17,13.47-.63l.16,0c2.9.91,9.15,1.36,13.48-.47,5.68-2.4,8.65-6.49,8.84-12.16a.51.51,0,0,1,.51-.57c.45,0,.53.43.53.64C116.68,124,113.5,128.37,107.41,130.94Z"/><path class="cls-4" d="M94.1,139.39c-1.06-.59-2.2-2.21-1.68-3.16A3.49,3.49,0,0,1,96,136a5.47,5.47,0,0,1,2.32,3.5A5.26,5.26,0,0,1,94.1,139.39Z"/><circle class="cls-4" cx="76.22" cy="158.96" r="1.91"/><circle class="cls-4" cx="76.22" cy="166.71" r="1.91"/><circle class="cls-4" cx="119.27" cy="159.01" r="1.91"/><circle class="cls-4" cx="119.27" cy="166.76" r="1.91"/><path class="cls-4" d="M27.34,162.65c0,1.56-17.94,7.78-23.94,7.78S-7.46,167-7.46,162.65s4.87-7.78,10.86-7.78S27.34,160.89,27.34,162.65Z"/><path class="cls-4" d="M29,165.85c-.4-.56-11.29,3.82-13.44,5.36s-3,4-1.9,5.59,3.75,1.53,5.9,0S29.45,166.48,29,165.85Z"/><path class="cls-4" d="M29,160c-.4.55-11.29-3.82-13.44-5.37s-3-4-1.9-5.58,3.75-1.54,5.9,0S29.45,159.37,29,160Z"/><circle class="cls-4" cx="32.37" cy="162.65" r="2.6"/><path class="cls-4" d="M40.37,170.94c1.21.15,2.86,1.24,2.72,2.32s-2,1.72-3.21,1.56a5.39,5.39,0,0,1-3.43-2.4A5.22,5.22,0,0,1,40.37,170.94Z"/><path class="cls-4" d="M43.21,164.65c1.14.4,2.53,1.81,2.17,2.83s-2.32,1.26-3.46.86a5.43,5.43,0,0,1-2.86-3.07A5.23,5.23,0,0,1,43.21,164.65Z"/><path class="cls-4" d="M34.83,149.76c-.69,1-1,3-.08,3.57s2.61-.35,3.3-1.35a5.42,5.42,0,0,0,.49-4.17A5.25,5.25,0,0,0,34.83,149.76Z"/><path class="cls-4" d="M39,154.29c-.87.84-1.54,2.7-.79,3.48s2.63.18,3.51-.66a5.46,5.46,0,0,0,1.31-4A5.24,5.24,0,0,0,39,154.29Z"/><path class="cls-4" d="M46,156.45c-1.12.45-2.44,1.93-2,2.93s2.38,1.15,3.5.7a5.44,5.44,0,0,0,2.71-3.2A5.23,5.23,0,0,0,46,156.45Z"/><path class="cls-4" d="M57.49,175.42c.55-1.08.57-3.06-.4-3.54-.43-.22-2.39.39-3.09,1.78a5.48,5.48,0,0,0,.07,4.2A5.26,5.26,0,0,0,57.49,175.42Z"/><path class="cls-4" d="M60.41,155.08c.81.9,1.34,2.81.54,3.53a3.48,3.48,0,0,1-3.45-.92,5.48,5.48,0,0,1-1-4.07A5.26,5.26,0,0,1,60.41,155.08Z"/><path class="cls-4" d="M40.81,161.5a23.34,23.34,0,0,0,10.75,1.16c-5.29,3.58-7.94,10-7.54,14.75,0,.31.21.57.58.51a.51.51,0,0,0,.47-.5c-.48-5.16,2.85-12.27,9.34-15.17a17.6,17.6,0,0,1,9.75-.92,8.22,8.22,0,0,0-3.69,1.58,9.38,9.38,0,0,0-3.59,6.82c0,.23.09.66.45.69.54,0,.57-.43.59-.64a8.3,8.3,0,0,1,3.18-6A7.67,7.67,0,0,1,68,162.57c.39.2.76.52,1.1.09s-.16-.78-.44-.92l-.24-.13-.05,0c-3.5-1.83-9.28-2.16-13.47-.63l-.15.06c-2.91.9-9.15,1.36-13.48-.47-5.68-2.4-8.66-6.49-8.84-12.17a.53.53,0,0,0-.52-.57c-.44,0-.53.43-.52.64C31.55,154.54,34.73,158.93,40.81,161.5Z"/><path class="cls-4" d="M54.12,169.94c1.07-.58,2.2-2.2,1.68-3.15-.23-.43-2.19-1-3.56-.28a5.4,5.4,0,0,0-2.31,3.5A5.26,5.26,0,0,0,54.12,169.94Z"/><circle class="cls-4" cx="97.48" cy="162.82" r="1.88"/><ellipse class="cls-4" cx="97.34" cy="154.59" rx="1.73" ry="5.35"/><ellipse class="cls-4" cx="97.48" cy="171.41" rx="1.73" ry="5.35"/><ellipse class="cls-4" cx="89.15" cy="162.82" rx="5.35" ry="1.73"/><ellipse class="cls-4" cx="88.94" cy="154.23" rx="1.63" ry="9.08" transform="translate(-83.21 108.82) rotate(-45.25)"/><ellipse class="cls-4" cx="88.94" cy="171.6" rx="9.08" ry="1.63" transform="translate(-95.03 112.34) rotate(-44.75)"/><ellipse class="cls-4" cx="106.23" cy="162.87" rx="5.35" ry="1.73"/><ellipse class="cls-4" cx="106.45" cy="154.28" rx="9.08" ry="1.63" transform="translate(-77.76 119.65) rotate(-44.75)"/><ellipse class="cls-4" cx="106.45" cy="171.65" rx="1.63" ry="9.08" transform="translate(-90.4 126.41) rotate(-45.25)"/><path class="cls-4" d="M210.5,163c0,.43,7.13,2.14,8.79,2.13s3-1,3-2.15-1.35-2.14-3-2.14S210.5,162.47,210.5,163Z"/><circle class="cls-4" cx="207.26" cy="162.95" r="1.71"/><path class="cls-4" d="M209.57,160.78c.28.32,6.76-3.1,8-4.2s1.6-2.7.81-3.59-2.42-.71-3.66.39S209.24,160.42,209.57,160.78Z"/><path class="cls-4" d="M207.37,159.72c.43,0,2.18-7.12,2.18-8.78s-1-3-2.15-3-2.14,1.34-2.14,3S206.88,159.72,207.37,159.72Z"/><path class="cls-4" d="M209.49,165.12c.29-.32,6.77,3.1,8,4.2s1.6,2.7.81,3.59-2.43.71-3.66-.39S209.17,165.48,209.49,165.12Z"/><path class="cls-4" d="M207.3,166.18c.42,0,2.17,7.12,2.17,8.78s-1,3-2.14,3-2.15-1.34-2.15-3S206.81,166.18,207.3,166.18Z"/><path class="cls-4" d="M167.79,162.74c0,1.55,17.94,7.78,23.94,7.78s10.86-3.49,10.86-7.78S197.72,155,191.73,155,167.79,161,167.79,162.74Z"/><path class="cls-4" d="M166.14,165.93c.4-.56,11.29,3.82,13.44,5.36s3,4.05,1.9,5.59-3.75,1.54-5.9,0S165.69,166.56,166.14,165.93Z"/><path class="cls-4" d="M166.14,160.09c.4.56,11.29-3.82,13.44-5.36s3-4,1.9-5.59-3.75-1.54-5.9,0S165.69,159.46,166.14,160.09Z"/><circle class="cls-4" cx="162.76" cy="162.74" r="2.6"/><path class="cls-4" d="M154.76,171c-1.21.16-2.86,1.25-2.72,2.32s2,1.72,3.21,1.57a5.43,5.43,0,0,0,3.43-2.41A5.26,5.26,0,0,0,154.76,171Z"/><path class="cls-4" d="M151.92,164.73c-1.14.4-2.53,1.81-2.17,2.83s2.32,1.27,3.46.86a5.43,5.43,0,0,0,2.86-3.07A5.27,5.27,0,0,0,151.92,164.73Z"/><path class="cls-4" d="M160.3,149.84c.69,1,1,3,.09,3.57s-2.62-.35-3.31-1.35a5.39,5.39,0,0,1-.49-4.16A5.23,5.23,0,0,1,160.3,149.84Z"/><path class="cls-4" d="M156.1,154.37c.87.84,1.54,2.7.79,3.48s-2.63.18-3.51-.66a5.45,5.45,0,0,1-1.31-4A5.24,5.24,0,0,1,156.1,154.37Z"/><path class="cls-4" d="M149.12,156.53c1.12.45,2.44,1.93,2,2.93s-2.38,1.15-3.5.7A5.38,5.38,0,0,1,145,157,5.23,5.23,0,0,1,149.12,156.53Z"/><path class="cls-4" d="M137.64,175.51c-.55-1.09-.57-3.06.4-3.55.43-.22,2.39.39,3.09,1.78a5.47,5.47,0,0,1-.07,4.2A5.27,5.27,0,0,1,137.64,175.51Z"/><path class="cls-4" d="M134.72,155.16c-.81.9-1.34,2.81-.54,3.53a3.48,3.48,0,0,0,3.45-.92,5.46,5.46,0,0,0,1-4.06A5.24,5.24,0,0,0,134.72,155.16Z"/><path class="cls-4" d="M154.32,161.58a23.34,23.34,0,0,1-10.75,1.16c5.29,3.59,7.94,10,7.54,14.75,0,.31-.21.58-.58.52a.53.53,0,0,1-.47-.51c.48-5.16-2.85-12.27-9.34-15.16a17.7,17.7,0,0,0-9.75-.93,8.13,8.13,0,0,1,3.69,1.59,9.36,9.36,0,0,1,3.59,6.81c0,.23-.09.66-.45.69-.54.05-.57-.43-.59-.64a8.32,8.32,0,0,0-3.18-6,7.67,7.67,0,0,0-6.85-1.17c-.39.2-.76.52-1.1.1s.16-.78.44-.93l.24-.13,0,0c3.5-1.83,9.28-2.16,13.47-.63l.15.06c2.91.9,9.15,1.36,13.48-.47,5.68-2.4,8.66-6.49,8.84-12.16a.54.54,0,0,1,.52-.58c.44,0,.53.43.52.64C163.58,154.62,160.4,159,154.32,161.58Z"/><path class="cls-4" d="M141,170c-1.07-.58-2.2-2.2-1.68-3.15a3.48,3.48,0,0,1,3.56-.28,5.4,5.4,0,0,1,2.31,3.5A5.26,5.26,0,0,1,141,170Z"/><circle class="cls-4" cx="29.29" cy="191.41" r="1.91"/><circle class="cls-4" cx="29.29" cy="199.16" r="1.91"/><circle class="cls-4" cx="72.34" cy="191.46" r="1.91"/><circle class="cls-4" cx="72.34" cy="199.21" r="1.91"/><path class="cls-4" d="M-.92,188.9c-1.12.45-2.44,1.93-2,2.93s2.38,1.15,3.51.7a5.45,5.45,0,0,0,2.71-3.2A5.26,5.26,0,0,0-.92,188.9Z"/><path class="cls-4" d="M10.56,207.88c.55-1.09.57-3.07-.4-3.55-.43-.22-2.39.39-3.09,1.78a5.41,5.41,0,0,0,.08,4.2A5.28,5.28,0,0,0,10.56,207.88Z"/><path class="cls-4" d="M13.48,187.53c.81.9,1.34,2.81.54,3.53a3.48,3.48,0,0,1-3.45-.92,5.41,5.41,0,0,1-1-4.07A5.25,5.25,0,0,1,13.48,187.53Z"/><path class="cls-4" d="M-6.12,194a23.35,23.35,0,0,0,10.75,1.16c-5.29,3.59-7.94,10-7.54,14.75,0,.31.22.57.58.51a.51.51,0,0,0,.47-.5c-.48-5.16,2.85-12.27,9.34-15.16a17.53,17.53,0,0,1,9.75-.93,8.27,8.27,0,0,0-3.69,1.58A9.38,9.38,0,0,0,10,202.18c0,.23.09.66.45.69.54,0,.58-.43.59-.64a8.37,8.37,0,0,1,3.18-6A7.69,7.69,0,0,1,21,195c.38.2.75.52,1.09.09s-.16-.78-.43-.92l-.25-.13,0,0c-3.51-1.83-9.29-2.16-13.47-.63l-.16.06c-2.9.9-9.15,1.36-13.48-.47-5.68-2.4-8.65-6.49-8.84-12.17a.53.53,0,0,0-.52-.57c-.44,0-.53.43-.52.64C-15.38,187-12.2,191.38-6.12,194Z"/><path class="cls-4" d="M7.19,202.39c1.07-.58,2.2-2.2,1.68-3.15-.23-.43-2.19-1-3.56-.28A5.44,5.44,0,0,0,3,202.46,5.26,5.26,0,0,0,7.19,202.39Z"/><circle class="cls-4" cx="50.55" cy="195.27" r="1.88"/><ellipse class="cls-4" cx="50.41" cy="187.04" rx="1.73" ry="5.35"/><ellipse class="cls-4" cx="50.55" cy="203.86" rx="1.73" ry="5.35"/><ellipse class="cls-4" cx="42.22" cy="195.27" rx="5.35" ry="1.73"/><ellipse class="cls-4" cx="42.01" cy="186.68" rx="1.63" ry="9.08" transform="translate(-120.14 85.09) rotate(-45.25)"/><ellipse class="cls-4" cx="42.01" cy="204.05" rx="9.08" ry="1.63" transform="translate(-131.47 88.7) rotate(-44.75)"/><ellipse class="cls-4" cx="59.3" cy="195.32" rx="5.35" ry="1.73"/><ellipse class="cls-4" cx="59.52" cy="186.73" rx="9.08" ry="1.63" transform="translate(-114.21 96.01) rotate(-44.75)"/><ellipse class="cls-4" cx="59.52" cy="204.1" rx="1.63" ry="9.08" transform="translate(-127.34 102.69) rotate(-45.25)"/><path class="cls-4" d="M163.57,195.41c0,.43,7.13,2.14,8.79,2.13s3-1,3-2.15-1.35-2.14-3-2.13S163.57,194.92,163.57,195.41Z"/><circle class="cls-4" cx="160.34" cy="195.4" r="1.71"/><path class="cls-4" d="M162.64,193.23c.28.32,6.77-3.1,8-4.2s1.6-2.7.82-3.59-2.43-.71-3.67.39S162.31,192.87,162.64,193.23Z"/><path class="cls-4" d="M160.44,192.17c.43,0,2.18-7.12,2.18-8.78s-1-3-2.14-3-2.15,1.34-2.15,3S160,192.17,160.44,192.17Z"/><path class="cls-4" d="M162.56,197.57c.29-.32,6.77,3.1,8,4.2s1.6,2.7.81,3.59-2.42.71-3.66-.39S162.24,197.93,162.56,197.57Z"/><path class="cls-4" d="M160.37,198.63c.43,0,2.18,7.12,2.18,8.78s-1,3-2.15,3-2.14-1.34-2.14-3S159.88,198.63,160.37,198.63Z"/><path class="cls-4" d="M120.86,195.19c0,1.55,17.94,7.78,23.94,7.78s10.86-3.49,10.86-7.78-4.86-7.78-10.86-7.78S120.86,193.43,120.86,195.19Z"/><path class="cls-4" d="M119.21,198.38c.4-.56,11.3,3.82,13.45,5.36s3,4,1.89,5.59-3.75,1.54-5.9,0S118.76,199,119.21,198.38Z"/><path class="cls-4" d="M119.21,192.54c.4.56,11.3-3.82,13.45-5.36s3-4.05,1.89-5.59-3.75-1.54-5.9,0S118.76,191.91,119.21,192.54Z"/><circle class="cls-4" cx="115.84" cy="195.19" r="2.6"/><path class="cls-4" d="M107.83,203.47c-1.21.16-2.86,1.25-2.72,2.32s2,1.72,3.21,1.57a5.4,5.4,0,0,0,3.43-2.41A5.26,5.26,0,0,0,107.83,203.47Z"/><path class="cls-4" d="M105,197.18c-1.14.4-2.53,1.81-2.17,2.83s2.32,1.27,3.47.87a5.47,5.47,0,0,0,2.85-3.08A5.27,5.27,0,0,0,105,197.18Z"/><path class="cls-4" d="M113.38,182.29c.68,1,1,3,.08,3.57s-2.62-.35-3.31-1.35a5.44,5.44,0,0,1-.49-4.16A5.24,5.24,0,0,1,113.38,182.29Z"/><path class="cls-4" d="M109.17,186.82c.87.84,1.55,2.7.8,3.48s-2.64.18-3.51-.66a5.42,5.42,0,0,1-1.32-4A5.24,5.24,0,0,1,109.17,186.82Z"/><path class="cls-4" d="M102.19,189c1.13.45,2.44,1.93,2,2.93s-2.37,1.16-3.5.7a5.38,5.38,0,0,1-2.71-3.2A5.24,5.24,0,0,1,102.19,189Z"/><path class="cls-4" d="M90.71,208c-.55-1.09-.56-3.06.4-3.55.43-.22,2.39.39,3.09,1.79a5.4,5.4,0,0,1-.07,4.19A5.27,5.27,0,0,1,90.71,208Z"/><path class="cls-4" d="M87.79,187.61c-.81.9-1.34,2.81-.54,3.53a3.5,3.5,0,0,0,3.46-.92,5.44,5.44,0,0,0,1-4.06A5.25,5.25,0,0,0,87.79,187.61Z"/><path class="cls-4" d="M107.39,194a23.34,23.34,0,0,1-10.75,1.16c5.3,3.59,7.94,10,7.54,14.76a.49.49,0,0,1-.58.51.5.5,0,0,1-.46-.51c.48-5.16-2.86-12.27-9.34-15.16a17.74,17.74,0,0,0-9.76-.93,8.21,8.21,0,0,1,3.7,1.59,9.38,9.38,0,0,1,3.58,6.81c0,.23-.09.66-.45.69-.53.05-.57-.43-.59-.64a8.32,8.32,0,0,0-3.18-6,7.67,7.67,0,0,0-6.85-1.17c-.39.2-.76.52-1.1.1s.16-.78.44-.93l.25-.13,0,0c3.5-1.83,9.28-2.16,13.47-.63l.16.06c2.9.9,9.14,1.36,13.48-.47,5.68-2.4,8.65-6.49,8.83-12.16a.54.54,0,0,1,.52-.58c.44,0,.53.43.52.65C116.66,187.07,113.47,191.46,107.39,194Z"/><path class="cls-4" d="M94.08,202.47c-1.07-.58-2.2-2.2-1.68-3.15A3.48,3.48,0,0,1,96,199a5.4,5.4,0,0,1,2.31,3.5A5.25,5.25,0,0,1,94.08,202.47Z"/><circle class="cls-4" cx="76.37" cy="222.29" r="1.91"/><circle class="cls-4" cx="76.37" cy="230.04" r="1.91"/><circle class="cls-4" cx="119.42" cy="222.34" r="1.91"/><circle class="cls-4" cx="119.42" cy="230.09" r="1.91"/><path class="cls-4" d="M27.49,226c0,1.56-17.93,7.78-23.93,7.78S-7.31,230.28-7.31,226s4.87-7.78,10.87-7.78S27.49,224.22,27.49,226Z"/><path class="cls-4" d="M29.14,229.18c-.4-.56-11.29,3.81-13.44,5.36s-3,4.05-1.89,5.59,3.74,1.53,5.89,0S29.6,229.81,29.14,229.18Z"/><path class="cls-4" d="M29.14,223.34c-.4.55-11.29-3.82-13.44-5.37s-3-4-1.89-5.58,3.74-1.54,5.89,0S29.6,222.7,29.14,223.34Z"/><circle class="cls-4" cx="32.52" cy="225.98" r="2.6"/><path class="cls-4" d="M40.53,234.27c1.2.15,2.85,1.24,2.71,2.32s-2,1.72-3.2,1.56a5.47,5.47,0,0,1-3.44-2.4A5.23,5.23,0,0,1,40.53,234.27Z"/><path class="cls-4" d="M43.36,228c1.15.4,2.53,1.81,2.17,2.83s-2.32,1.26-3.46.86a5.43,5.43,0,0,1-2.86-3.07A5.19,5.19,0,0,1,43.36,228Z"/><path class="cls-4" d="M35,213.09c-.69,1-1,3-.08,3.57s2.61-.35,3.3-1.35a5.42,5.42,0,0,0,.49-4.17A5.25,5.25,0,0,0,35,213.09Z"/><path class="cls-4" d="M39.18,217.62c-.87.84-1.54,2.7-.79,3.48s2.63.18,3.51-.66a5.43,5.43,0,0,0,1.32-4A5.25,5.25,0,0,0,39.18,217.62Z"/><path class="cls-4" d="M46.16,219.78c-1.12.45-2.44,1.92-2,2.93s2.38,1.15,3.5.7a5.47,5.47,0,0,0,2.72-3.2A5.26,5.26,0,0,0,46.16,219.78Z"/><path class="cls-4" d="M57.64,238.75c.55-1.08.57-3.06-.4-3.54-.43-.22-2.39.39-3.09,1.78a5.41,5.41,0,0,0,.08,4.2A5.27,5.27,0,0,0,57.64,238.75Z"/><path class="cls-4" d="M60.56,218.41c.81.9,1.34,2.81.54,3.53a3.48,3.48,0,0,1-3.45-.92,5.41,5.41,0,0,1-1-4.07A5.21,5.21,0,0,1,60.56,218.41Z"/><path class="cls-4" d="M41,224.83A23.35,23.35,0,0,0,51.71,226c-5.29,3.58-7.94,10-7.54,14.75,0,.31.22.57.58.51a.52.52,0,0,0,.47-.5c-.48-5.16,2.85-12.27,9.34-15.17a17.61,17.61,0,0,1,9.75-.92,8.22,8.22,0,0,0-3.69,1.58A9.38,9.38,0,0,0,57,233.06c0,.23.09.66.45.69.54,0,.58-.43.59-.64a8.37,8.37,0,0,1,3.18-6,7.66,7.66,0,0,1,6.86-1.17c.38.2.75.52,1.09.09s-.16-.78-.44-.92l-.24-.14,0,0A18.46,18.46,0,0,0,55,224.28l-.16.06c-2.9.9-9.15,1.36-13.48-.48-5.68-2.39-8.65-6.49-8.84-12.16a.53.53,0,0,0-.52-.57c-.44,0-.53.43-.52.64C31.7,217.87,34.88,222.26,41,224.83Z"/><path class="cls-4" d="M54.27,233.27c1.07-.58,2.2-2.2,1.68-3.15-.23-.43-2.19-1-3.56-.28a5.4,5.4,0,0,0-2.31,3.5A5.26,5.26,0,0,0,54.27,233.27Z"/><circle class="cls-4" cx="97.63" cy="226.15" r="1.88"/><ellipse class="cls-4" cx="97.49" cy="217.92" rx="1.73" ry="5.35"/><ellipse class="cls-4" cx="97.63" cy="234.74" rx="1.73" ry="5.35"/><ellipse class="cls-4" cx="89.3" cy="226.15" rx="5.35" ry="1.73"/><ellipse class="cls-4" cx="89.09" cy="217.56" rx="1.63" ry="9.08" transform="translate(-128.14 127.67) rotate(-45.25)"/><ellipse class="cls-4" cx="89.09" cy="234.92" rx="9.08" ry="1.63" transform="translate(-139.57 130.8) rotate(-44.75)"/><ellipse class="cls-4" cx="106.38" cy="226.2" rx="5.35" ry="1.73"/><ellipse class="cls-4" cx="106.6" cy="217.61" rx="9.08" ry="1.63" transform="translate(-122.3 138.11) rotate(-44.75)"/><ellipse class="cls-4" cx="106.6" cy="234.98" rx="1.63" ry="9.08" transform="translate(-135.33 145.26) rotate(-45.25)"/><path class="cls-4" d="M210.65,226.29c0,.43,7.13,2.14,8.79,2.13s3-1,3-2.16-1.35-2.13-3-2.13S210.65,225.8,210.65,226.29Z"/><circle class="cls-4" cx="207.42" cy="226.28" r="1.71"/><path class="cls-4" d="M209.72,224.11c.28.32,6.77-3.1,8-4.2s1.6-2.71.82-3.59-2.43-.71-3.67.39S209.39,223.75,209.72,224.11Z"/><path class="cls-4" d="M207.52,223.05c.43,0,2.18-7.12,2.18-8.78s-1-3-2.15-3-2.14,1.34-2.14,3S207,223.05,207.52,223.05Z"/><path class="cls-4" d="M209.64,228.45c.29-.32,6.77,3.1,8,4.2s1.6,2.7.81,3.59-2.43.71-3.66-.39S209.32,228.81,209.64,228.45Z"/><path class="cls-4" d="M207.45,229.51c.42,0,2.18,7.12,2.18,8.78s-1,3-2.15,3-2.14-1.34-2.14-3S207,229.51,207.45,229.51Z"/><path class="cls-4" d="M167.94,226.07c0,1.55,17.94,7.78,23.94,7.78s10.86-3.49,10.86-7.78-4.86-7.78-10.86-7.78S167.94,224.31,167.94,226.07Z"/><path class="cls-4" d="M166.29,229.26c.4-.56,11.3,3.82,13.45,5.36s3,4,1.89,5.59-3.75,1.54-5.9,0S165.84,229.89,166.29,229.26Z"/><path class="cls-4" d="M166.29,223.42c.4.56,11.3-3.82,13.45-5.36s3-4.05,1.89-5.59-3.75-1.54-5.9,0S165.84,222.79,166.29,223.42Z"/><circle class="cls-4" cx="162.92" cy="226.07" r="2.6"/><path class="cls-4" d="M154.91,234.35c-1.21.16-2.86,1.25-2.72,2.32s2,1.72,3.21,1.57a5.4,5.4,0,0,0,3.43-2.41A5.26,5.26,0,0,0,154.91,234.35Z"/><path class="cls-4" d="M152.07,228.06c-1.14.4-2.53,1.81-2.17,2.83s2.32,1.27,3.47.86a5.44,5.44,0,0,0,2.85-3.07A5.27,5.27,0,0,0,152.07,228.06Z"/><path class="cls-4" d="M160.46,213.17c.68,1,1,3,.08,3.57s-2.62-.35-3.31-1.35a5.44,5.44,0,0,1-.49-4.16A5.22,5.22,0,0,1,160.46,213.17Z"/><path class="cls-4" d="M156.25,217.7c.87.84,1.55,2.7.8,3.48s-2.64.18-3.51-.66a5.42,5.42,0,0,1-1.32-4A5.24,5.24,0,0,1,156.25,217.7Z"/><path class="cls-4" d="M149.27,219.86c1.13.45,2.44,1.93,2,2.93s-2.38,1.15-3.5.7a5.38,5.38,0,0,1-2.71-3.2A5.23,5.23,0,0,1,149.27,219.86Z"/><path class="cls-4" d="M137.79,238.84c-.55-1.09-.56-3.06.4-3.55.43-.22,2.39.39,3.09,1.78a5.42,5.42,0,0,1-.07,4.2A5.27,5.27,0,0,1,137.79,238.84Z"/><path class="cls-4" d="M134.87,218.49c-.81.9-1.34,2.81-.54,3.53a3.5,3.5,0,0,0,3.46-.92,5.44,5.44,0,0,0,1-4.06A5.25,5.25,0,0,0,134.87,218.49Z"/><path class="cls-4" d="M154.47,224.91a23.34,23.34,0,0,1-10.75,1.16c5.29,3.59,7.94,10,7.54,14.75,0,.31-.21.58-.58.52a.51.51,0,0,1-.46-.51c.48-5.16-2.86-12.27-9.35-15.16a17.7,17.7,0,0,0-9.75-.93,8.31,8.31,0,0,1,3.7,1.58,9.41,9.41,0,0,1,3.58,6.82c0,.23-.09.66-.45.69-.53,0-.57-.43-.59-.64a8.32,8.32,0,0,0-3.18-6,7.67,7.67,0,0,0-6.85-1.17c-.39.2-.76.52-1.1.1s.16-.79.44-.93l.25-.13,0,0c3.5-1.83,9.28-2.16,13.47-.63l.16.06c2.9.9,9.14,1.36,13.47-.47,5.69-2.4,8.66-6.49,8.84-12.16a.54.54,0,0,1,.52-.58c.44,0,.53.43.52.64C163.74,218,160.55,222.34,154.47,224.91Z"/><path class="cls-4" d="M141.16,233.35c-1.07-.58-2.2-2.2-1.68-3.15a3.48,3.48,0,0,1,3.56-.28,5.4,5.4,0,0,1,2.31,3.5A5.25,5.25,0,0,1,141.16,233.35Z"/><path class="cls-4" d="M-5.94,257.25a23.35,23.35,0,0,0,10.75,1.16c-5.29,3.59-7.94,10-7.54,14.75,0,.31.22.58.58.52a.53.53,0,0,0,.47-.51C-2.16,268,1.18,260.9,7.66,258a17.62,17.62,0,0,1,9.75-.93,8.27,8.27,0,0,0-3.69,1.58,9.38,9.38,0,0,0-3.59,6.82c0,.23.09.66.45.69.54.05.58-.43.59-.64a8.39,8.39,0,0,1,3.18-6,7.69,7.69,0,0,1,6.86-1.17c.38.2.75.52,1.09.1s-.16-.79-.43-.93l-.25-.13,0,0c-3.51-1.83-9.29-2.16-13.47-.63l-.16.06c-2.9.9-9.15,1.36-13.48-.47-5.68-2.4-8.65-6.49-8.84-12.17a.53.53,0,0,0-.51-.57c-.45,0-.54.43-.53.64C-15.2,250.29-12,254.68-5.94,257.25Z"/><ellipse class="cls-4" cx="50.59" cy="250.34" rx="1.73" ry="5.35"/><ellipse class="cls-4" cx="42.19" cy="249.98" rx="1.63" ry="9.08" transform="translate(-165.05 103.96) rotate(-45.25)"/><ellipse class="cls-4" cx="59.7" cy="250.03" rx="9.08" ry="1.63" transform="translate(-158.72 114.49) rotate(-44.75)"/><path class="cls-4" d="M160.62,255.47c.43,0,2.18-7.12,2.18-8.78s-1-3-2.14-3-2.15,1.34-2.15,3S160.14,255.47,160.62,255.47Z"/><path class="cls-4" d="M119.39,255.84c.4.56,11.3-3.82,13.45-5.36s3-4,1.89-5.59-3.75-1.54-5.9,0S118.94,255.21,119.39,255.84Z"/><path class="cls-4" d="M113.56,245.6c.69,1,1,3,.08,3.57s-2.62-.35-3.31-1.36a5.44,5.44,0,0,1-.49-4.16A5.25,5.25,0,0,1,113.56,245.6Z"/><path class="cls-4" d="M107.57,257.33a23.34,23.34,0,0,1-10.75,1.16c5.3,3.59,8,10,7.54,14.76a.49.49,0,0,1-.58.51.5.5,0,0,1-.46-.5c.48-5.16-2.86-12.28-9.34-15.17a17.74,17.74,0,0,0-9.76-.93,8.21,8.21,0,0,1,3.7,1.59,9.4,9.4,0,0,1,3.58,6.81c0,.23-.09.66-.45.69-.53.05-.57-.43-.59-.64a8.3,8.3,0,0,0-3.17-6,7.67,7.67,0,0,0-6.86-1.18c-.39.2-.76.53-1.1.1s.16-.78.44-.93l.25-.13,0,0c3.5-1.84,9.28-2.17,13.47-.63l.16,0c2.9.91,9.14,1.36,13.48-.47,5.68-2.4,8.65-6.49,8.83-12.16a.53.53,0,0,1,.52-.57c.44,0,.53.43.52.64C116.84,250.37,113.65,254.76,107.57,257.33Z"/></g></g><path class="cls-5" d="M183.2,131.36l10.85-57.15H52.25v7.31H71.14l15.93,49.84v12.95a7.43,7.43,0,0,0,6.56,7.38,10.6,10.6,0,1,0,8.22.06H165.1a10.59,10.59,0,1,0,8.36,0h9.62v-6.87H94.51a.57.57,0,0,1-.56-.57V131.36Z"/><g class="cls-6"><ellipse class="cls-7" cx="18.35" cy="248.78" rx="1.7" ry="5.24"/><ellipse class="cls-7" cx="10.11" cy="248.42" rx="1.59" ry="8.91" transform="translate(-173.44 80.72) rotate(-45.25)"/><ellipse class="cls-7" cx="27.29" cy="248.47" rx="8.91" ry="1.59" transform="translate(-167.02 91.21) rotate(-44.75)"/><path class="cls-7" d="M126.26,253.8c.42,0,2.13-7,2.13-8.6s-.94-2.94-2.1-2.94-2.1,1.32-2.1,2.94S125.78,253.8,126.26,253.8Z"/><path class="cls-7" d="M85.82,254.17c.4.54,11.08-3.75,13.19-5.26s2.94-4,1.85-5.48-3.67-1.51-5.78,0S85.38,253.55,85.82,254.17Z"/><path class="cls-7" d="M80.1,244.12c.68,1,1,2.9.08,3.5s-2.57-.34-3.24-1.32a5.34,5.34,0,0,1-.48-4.09A5.13,5.13,0,0,1,80.1,244.12Z"/><path class="cls-7" d="M74.23,255.63a22.84,22.84,0,0,1-10.54,1.14c5.19,3.52,7.79,9.81,7.4,14.47,0,.3-.21.56-.57.5a.5.5,0,0,1-.46-.49c.47-5.06-2.8-12-9.16-14.88a17.41,17.41,0,0,0-9.56-.91A8.14,8.14,0,0,1,55,257a9.24,9.24,0,0,1,3.52,6.68c0,.23-.09.65-.45.68-.52,0-.56-.42-.58-.63a8.17,8.17,0,0,0-3.11-5.92,7.57,7.57,0,0,0-6.73-1.15c-.38.19-.74.51-1.07.09s.16-.76.43-.9l.24-.13,0,0c3.44-1.8,9.11-2.12,13.21-.61l.16.05c2.84.89,9,1.33,13.21-.46,5.58-2.36,8.49-6.37,8.67-11.93a.52.52,0,0,1,.51-.56c.43,0,.52.42.51.63C83.32,248.81,80.2,253.11,74.23,255.63Z"/><path class="cls-7" d="M200.07,254.1c-.39.54-11.08-3.75-13.19-5.26s-2.94-4-1.85-5.48,3.67-1.51,5.78,0S200.51,253.48,200.07,254.1Z"/><path class="cls-7" d="M205.79,244.05c-.67,1-.95,2.9-.08,3.5s2.57-.34,3.24-1.33a5.34,5.34,0,0,0,.49-4.08A5.13,5.13,0,0,0,205.79,244.05Z"/><path class="cls-7" d="M211.66,255.56a22.87,22.87,0,0,0,10.54,1.14c-5.19,3.51-7.79,9.81-7.39,14.47a.48.48,0,0,0,.57.5.49.49,0,0,0,.45-.5c-.47-5.06,2.81-12,9.16-14.87a17.34,17.34,0,0,1,9.57-.91,8.09,8.09,0,0,0-3.62,1.56,9.16,9.16,0,0,0-3.52,6.68c0,.22.09.65.44.68.53,0,.56-.42.58-.63a8.16,8.16,0,0,1,3.12-5.92,7.48,7.48,0,0,1,6.72-1.15c.38.19.74.51,1.08.09s-.16-.76-.43-.91l-.25-.13,0,0c-3.44-1.8-9.1-2.12-13.21-.62l-.15.06c-2.85.88-9,1.33-13.22-.46-5.57-2.36-8.49-6.37-8.67-11.93a.51.51,0,0,0-.5-.56c-.44,0-.53.42-.52.63C202.57,248.73,205.7,253,211.66,255.56Z"/><path class="cls-7" d="M158.22,253.73c-.42,0-2.14-7-2.15-8.63s1-2.94,2.11-2.94,2.11,1.31,2.11,2.94S158.7,253.73,158.22,253.73Z"/></g><g class="cls-8"><circle class="cls-4" cx="88.65" cy="245.02" r="1.91"/><circle class="cls-4" cx="131.69" cy="245.07" r="1.91"/><path class="cls-4" d="M39.76,248.72c0,1.55-17.93,7.78-23.93,7.78S5,253,5,248.72s4.86-7.78,10.86-7.78S39.76,247,39.76,248.72Z"/><path class="cls-4" d="M41.42,246.07c-.4.56-11.3-3.82-13.45-5.36s-3-4.05-1.89-5.59,3.74-1.54,5.9,0S41.87,245.44,41.42,246.07Z"/><circle class="cls-4" cx="44.79" cy="248.72" r="2.6"/><path class="cls-4" d="M47.25,235.82c-.69,1-1,3-.08,3.58s2.62-.36,3.3-1.36a5.41,5.41,0,0,0,.5-4.16A5.27,5.27,0,0,0,47.25,235.82Z"/><path class="cls-4" d="M51.46,240.35c-.88.84-1.55,2.7-.8,3.48s2.63.18,3.51-.66a5.42,5.42,0,0,0,1.32-4A5.22,5.22,0,0,0,51.46,240.35Z"/><path class="cls-4" d="M58.44,242.51c-1.13.45-2.45,1.93-2,2.93s2.38,1.16,3.51.7a5.42,5.42,0,0,0,2.71-3.2A5.24,5.24,0,0,0,58.44,242.51Z"/><path class="cls-4" d="M72.83,241.14c.81.91,1.35,2.81.54,3.53-.36.33-2.41.24-3.45-.91a5.42,5.42,0,0,1-1-4.07A5.23,5.23,0,0,1,72.83,241.14Z"/><path class="cls-4" d="M53.24,247.56A23.32,23.32,0,0,0,64,248.72c-5.3,3.59-8,10-7.55,14.76A.5.5,0,0,0,57,264a.52.52,0,0,0,.46-.51c-.48-5.15,2.86-12.27,9.34-15.16a17.72,17.72,0,0,1,9.75-.93A8.18,8.18,0,0,0,72.89,249a9.38,9.38,0,0,0-3.59,6.81c0,.23.09.66.45.69.54,0,.58-.43.59-.64a8.35,8.35,0,0,1,3.18-6,7.66,7.66,0,0,1,6.86-1.18c.38.2.75.52,1.09.1s-.16-.78-.43-.93l-.25-.13,0,0c-3.51-1.84-9.29-2.17-13.47-.63l-.16,0c-2.9.9-9.15,1.36-13.48-.47C48,244.2,45,240.11,44.8,234.44a.51.51,0,0,0-.51-.57c-.45,0-.53.42-.53.64C44,240.6,47.15,245,53.24,247.56Z"/><ellipse class="cls-4" cx="109.76" cy="240.66" rx="1.73" ry="5.35"/><ellipse class="cls-4" cx="101.36" cy="240.29" rx="1.63" ry="9.08" transform="translate(-140.65 143.11) rotate(-45.25)"/><ellipse class="cls-4" cx="118.87" cy="240.34" rx="9.08" ry="1.63" transform="translate(-134.75 153.33) rotate(-44.75)"/><path class="cls-4" d="M-1.26,245.7c-.43,0-2.19-7.14-2.19-8.8s1-3,2.15-3,2.16,1.35,2.16,3S-.77,245.7-1.26,245.7Z"/><path class="cls-4" d="M222,246.85c.28.32,6.77-3.1,8-4.2s1.6-2.71.82-3.6-2.43-.71-3.67.39S221.67,246.49,222,246.85Z"/><path class="cls-4" d="M219.79,245.78c.43,0,2.18-7.12,2.18-8.77s-1-3-2.14-3-2.15,1.34-2.15,3S219.31,245.78,219.79,245.78Z"/><path class="cls-4" d="M180.21,248.8c0,1.55,17.94,7.78,23.94,7.78S215,253.1,215,248.8,210.15,241,204.15,241,180.21,247,180.21,248.8Z"/><path class="cls-4" d="M178.56,246.15c.4.56,11.3-3.82,13.45-5.36s3-4,1.89-5.59-3.75-1.53-5.9,0S178.11,245.52,178.56,246.15Z"/><circle class="cls-4" cx="175.19" cy="248.8" r="2.6"/><path class="cls-4" d="M172.73,235.91c.69,1,1,3,.08,3.57s-2.62-.35-3.31-1.35A5.46,5.46,0,0,1,169,234,5.25,5.25,0,0,1,172.73,235.91Z"/><path class="cls-4" d="M168.52,240.43c.88.85,1.55,2.71.8,3.49s-2.64.18-3.51-.66a5.44,5.44,0,0,1-1.32-4A5.27,5.27,0,0,1,168.52,240.43Z"/><path class="cls-4" d="M161.54,242.59c1.13.46,2.45,1.93,2,2.94s-2.37,1.15-3.5.7a5.48,5.48,0,0,1-2.71-3.2A5.23,5.23,0,0,1,161.54,242.59Z"/><path class="cls-4" d="M147.15,241.22c-.82.91-1.35,2.81-.54,3.53.36.33,2.41.25,3.45-.91a5.41,5.41,0,0,0,1-4.07A5.23,5.23,0,0,0,147.15,241.22Z"/><path class="cls-4" d="M166.74,247.64A23.19,23.19,0,0,1,156,248.8c5.3,3.59,7.95,10,7.54,14.76a.49.49,0,0,1-.58.51.5.5,0,0,1-.46-.5c.48-5.16-2.86-12.28-9.34-15.17a17.74,17.74,0,0,0-9.76-.93,8.33,8.33,0,0,1,3.7,1.59,9.42,9.42,0,0,1,3.59,6.82c0,.22-.1.65-.46.68-.53.05-.57-.42-.59-.64a8.3,8.3,0,0,0-3.17-6,7.67,7.67,0,0,0-6.86-1.18c-.39.2-.76.53-1.1.1s.17-.78.44-.93l.25-.13,0,0c3.51-1.84,9.28-2.17,13.47-.63l.16.06c2.9.9,9.14,1.35,13.48-.48,5.68-2.4,8.65-6.49,8.83-12.16a.53.53,0,0,1,.52-.57c.44,0,.53.43.53.64C176,240.68,172.82,245.07,166.74,247.64Z"/><path class="cls-4" d="M250.18,246.78c-.28.32-6.79-3.12-8-4.22s-1.6-2.71-.81-3.6,2.43-.71,3.67.39S250.5,246.41,250.18,246.78Z"/></g><g class="cls-9"><path class="cls-4" d="M65.31,246.86c.28.32,6.77-3.11,8-4.2s1.6-2.71.81-3.6-2.42-.71-3.66.39S65,246.49,65.31,246.86Z"/><path class="cls-4" d="M63.11,245.79c.43,0,2.18-7.12,2.18-8.77s-1-3-2.15-3S61,235.36,61,237,62.62,245.79,63.11,245.79Z"/><path class="cls-4" d="M23.53,248.81c0,1.55,17.94,7.78,23.94,7.78s10.86-3.48,10.86-7.78S53.46,241,47.47,241,23.53,247.05,23.53,248.81Z"/><path class="cls-4" d="M21.88,246.16c.4.56,11.29-3.82,13.45-5.36s3-4.05,1.89-5.59-3.75-1.54-5.9,0S21.43,245.53,21.88,246.16Z"/><circle class="cls-4" cx="18.51" cy="248.81" r="2.6"/><path class="cls-4" d="M16,235.92c.69,1,1,3,.09,3.57s-2.62-.35-3.31-1.35a5.46,5.46,0,0,1-.49-4.17A5.25,5.25,0,0,1,16,235.92Z"/><path class="cls-4" d="M11.84,240.44c.87.84,1.54,2.7.8,3.48s-2.64.19-3.52-.66a5.44,5.44,0,0,1-1.31-4A5.24,5.24,0,0,1,11.84,240.44Z"/><path class="cls-4" d="M4.86,242.6c1.13.46,2.44,1.93,2,2.93s-2.38,1.16-3.5.7A5.38,5.38,0,0,1,.69,243,5.27,5.27,0,0,1,4.86,242.6Z"/><path class="cls-4" d="M10.06,247.65A23.21,23.21,0,0,1-.69,248.81c5.29,3.59,7.94,10,7.54,14.76,0,.3-.21.57-.58.51a.5.5,0,0,1-.46-.5c.47-5.16-2.86-12.28-9.35-15.17a17.7,17.7,0,0,0-9.75-.93,8.24,8.24,0,0,1,3.69,1.59A9.38,9.38,0,0,1-6,255.88c0,.23-.09.66-.45.69-.54.05-.57-.43-.59-.64a8.28,8.28,0,0,0-3.18-6,7.64,7.64,0,0,0-6.85-1.18c-.39.2-.76.53-1.1.1s.16-.78.44-.93l.24-.13.05,0c3.5-1.84,9.28-2.17,13.47-.63l.15.06c2.91.9,9.15,1.35,13.48-.48,5.69-2.4,8.66-6.49,8.84-12.16A.53.53,0,0,1,19,234c.44,0,.53.43.52.64C19.33,240.69,16.14,245.08,10.06,247.65Z"/></g></g></svg>