<svg xmlns="http://www.w3.org/2000/svg" xmlns:xlink="http://www.w3.org/1999/xlink" viewBox="0 0 246.29 246.29"><defs><style>.cls-1{fill:none;}.cls-2{fill:#fff;}.cls-3{fill:#238351;}.cls-4{clip-path:url(#clip-path);}.cls-5{clip-path:url(#clip-path-2);}.cls-6{fill:#1e643e;}.cls-7{fill:#231f20;}.cls-8{fill:#ef3e2d;}.cls-9{clip-path:url(#clip-path-3);}.cls-10{clip-path:url(#clip-path-4);}</style><clipPath id="clip-path"><rect class="cls-1" x="-639.87" width="612" height="792"/></clipPath><clipPath id="clip-path-2"><rect class="cls-1" x="-786.74" y="-21.25" width="903.51" height="993.68"/></clipPath><clipPath id="clip-path-3"><path class="cls-2" d="M119,150.56c.66-2.95,1.24-6,1.74-9.19a165.27,165.27,0,0,0,1.36-33.4c0-.29-7.43-1-9.34-1.49l1.48-6.39c6,1.13,12.37-1.53,12.37-1.53,3.18,7.17,4,26.89,1.13,45.51-2.49,15.92-7.25,29.55-11.66,36.13l-5-5.28c1.7-6.16,2-15,1.12-19.13L103,171.89c-1,0-6.76-4.14-6.76-4.14,14.06-23,12.77-28.15,15.52-39.9,0-.09.09-.37.07-.28-.07.28,5.33,2,5.33,2s2,20.12,1.81,21"/></clipPath><clipPath id="clip-path-4"><path class="cls-3" d="M99.58,100.19c-2.4,2.46-3.82,4.88-6.54,6.94,0,0-.43-3.63-.58-7.17-.44-10.57-9-19.21-18.9-19.21-.08,0,13.35,8.43,12.41,25.08-.09,1.48-.28,5.22-.28,5.22a39.52,39.52,0,0,1-9,3.71c.75,2.33.64,7.44.64,7.44a32.93,32.93,0,0,0,9.79-4.81s2.29,10.45,6.72,15l4.47-6.58c-4.23-7.11-4.2-11.59-4.2-11.59a46.59,46.59,0,0,0,8.78-10.39A45.8,45.8,0,0,1,99.58,100.19Z"/></clipPath></defs><title>web_xingones</title><g id="green"><g class="cls-4"><g class="cls-5"><circle class="cls-6" cx="76.23" cy="9.93" r="1.91"/><circle class="cls-6" cx="76.23" cy="17.68" r="1.91"/><circle class="cls-6" cx="119.28" cy="9.98" r="1.91"/><circle class="cls-6" cx="119.28" cy="17.73" r="1.91"/><path class="cls-6" d="M27.35,13.62c0,1.56-17.94,7.78-23.93,7.78S-7.45,17.92-7.45,13.62-2.58,5.84,3.42,5.84,27.35,11.86,27.35,13.62Z"/><path class="cls-6" d="M29,16.82c-.4-.56-11.29,3.81-13.44,5.36s-3,4.05-1.9,5.59,3.75,1.53,5.9,0S29.46,17.45,29,16.82Z"/><path class="cls-6" d="M29,11c-.4.55-11.29-3.82-13.44-5.37s-3-4-1.9-5.58,3.75-1.54,5.9,0S29.46,10.34,29,11Z"/><circle class="cls-6" cx="32.38" cy="13.62" r="2.6"/><path class="cls-6" d="M40.39,21.91c1.2.15,2.85,1.24,2.71,2.32s-2,1.72-3.21,1.56a5.47,5.47,0,0,1-3.43-2.4A5.23,5.23,0,0,1,40.39,21.91Z"/><path class="cls-6" d="M43.22,15.62c1.14.4,2.53,1.81,2.17,2.83s-2.32,1.26-3.46.86a5.43,5.43,0,0,1-2.86-3.07A5.19,5.19,0,0,1,43.22,15.62Z"/><path class="cls-6" d="M34.84.73c-.69,1-1,3-.08,3.57S37.37,4,38.06,3a5.42,5.42,0,0,0,.49-4.17A5.25,5.25,0,0,0,34.84.73Z"/><path class="cls-6" d="M39,5.26c-.87.84-1.54,2.7-.79,3.48s2.63.18,3.51-.66a5.41,5.41,0,0,0,1.31-4A5.24,5.24,0,0,0,39,5.26Z"/><path class="cls-6" d="M46,7.42c-1.12.45-2.44,1.92-2,2.93s2.38,1.15,3.5.7a5.51,5.51,0,0,0,2.72-3.2A5.27,5.27,0,0,0,46,7.42Z"/><path class="cls-6" d="M57.5,26.39c.55-1.08.57-3.06-.4-3.54-.43-.22-2.39.39-3.09,1.78a5.48,5.48,0,0,0,.07,4.2A5.26,5.26,0,0,0,57.5,26.39Z"/><path class="cls-6" d="M60.42,6.05c.81.9,1.34,2.8.54,3.53a3.48,3.48,0,0,1-3.45-.92,5.48,5.48,0,0,1-1-4.07A5.22,5.22,0,0,1,60.42,6.05Z"/><path class="cls-6" d="M40.82,12.47a23.34,23.34,0,0,0,10.75,1.16c-5.29,3.58-7.94,10-7.54,14.75,0,.31.21.57.58.51a.52.52,0,0,0,.47-.5c-.48-5.16,2.85-12.27,9.34-15.17a17.61,17.61,0,0,1,9.75-.92,8.22,8.22,0,0,0-3.69,1.58,9.38,9.38,0,0,0-3.59,6.82c0,.23.09.66.45.69.54,0,.57-.43.59-.64a8.37,8.37,0,0,1,3.18-6A7.66,7.66,0,0,1,68,13.54c.38.19.75.52,1.09.09s-.16-.78-.44-.92l-.24-.14,0,0c-3.5-1.83-9.28-2.17-13.47-.63l-.15.06c-2.9.9-9.15,1.36-13.48-.48C35.55,9.11,32.58,5,32.39-.66a.53.53,0,0,0-.52-.57c-.44,0-.53.43-.52.64C31.56,5.51,34.74,9.9,40.82,12.47Z"/><path class="cls-6" d="M54.13,20.91c1.07-.58,2.2-2.2,1.68-3.15-.23-.43-2.19-1-3.56-.28A5.4,5.4,0,0,0,49.94,21,5.26,5.26,0,0,0,54.13,20.91Z"/><circle class="cls-6" cx="97.49" cy="13.79" r="1.88"/><ellipse class="cls-6" cx="97.35" cy="5.56" rx="1.73" ry="5.35"/><ellipse class="cls-6" cx="97.49" cy="22.38" rx="1.73" ry="5.35"/><ellipse class="cls-6" cx="89.16" cy="13.79" rx="5.35" ry="1.73"/><ellipse class="cls-6" cx="88.95" cy="5.2" rx="1.63" ry="9.08" transform="translate(22.64 64.71) rotate(-45.25)"/><ellipse class="cls-6" cx="88.95" cy="22.56" rx="9.08" ry="1.63" transform="translate(9.89 69.16) rotate(-44.75)"/><ellipse class="cls-6" cx="106.24" cy="13.84" rx="5.35" ry="1.73"/><ellipse class="cls-6" cx="106.46" cy="5.25" rx="9.08" ry="1.63" transform="translate(27.16 76.47) rotate(-44.75)"/><ellipse class="cls-6" cx="106.46" cy="22.62" rx="1.63" ry="9.08" transform="translate(15.45 82.3) rotate(-45.25)"/><path class="cls-6" d="M210.51,13.93c0,.43,7.13,2.14,8.79,2.13s3-1,3-2.16-1.35-2.13-3-2.13S210.51,13.44,210.51,13.93Z"/><circle class="cls-6" cx="207.27" cy="13.92" r="1.71"/><path class="cls-6" d="M209.58,11.75c.28.32,6.77-3.1,8-4.2s1.6-2.71.81-3.59-2.42-.71-3.66.39S209.25,11.39,209.58,11.75Z"/><path class="cls-6" d="M207.38,10.69c.43,0,2.18-7.12,2.18-8.78s-1-3-2.15-3-2.14,1.34-2.14,3S206.89,10.69,207.38,10.69Z"/><path class="cls-6" d="M209.5,16.08c.29-.31,6.77,3.11,8,4.21s1.6,2.7.81,3.59-2.43.71-3.66-.39S209.18,16.45,209.5,16.08Z"/><path class="cls-6" d="M207.31,17.15c.42,0,2.17,7.12,2.17,8.78s-1,3-2.14,3-2.14-1.34-2.15-3S206.82,17.15,207.31,17.15Z"/><path class="cls-6" d="M167.8,13.71c0,1.55,17.94,7.78,23.94,7.78S202.6,18,202.6,13.71s-4.87-7.78-10.86-7.78S167.8,12,167.8,13.71Z"/><path class="cls-6" d="M166.15,16.9c.4-.56,11.29,3.82,13.45,5.36s3,4,1.89,5.59-3.75,1.54-5.9,0S165.7,17.53,166.15,16.9Z"/><path class="cls-6" d="M166.15,11.06c.4.55,11.29-3.82,13.45-5.37s3-4,1.89-5.58-3.75-1.54-5.9,0S165.7,10.43,166.15,11.06Z"/><circle class="cls-6" cx="162.78" cy="13.71" r="2.6"/><path class="cls-6" d="M154.77,22c-1.21.16-2.86,1.25-2.72,2.32s2,1.72,3.21,1.57a5.43,5.43,0,0,0,3.43-2.41A5.26,5.26,0,0,0,154.77,22Z"/><path class="cls-6" d="M151.93,15.7c-1.14.4-2.53,1.81-2.17,2.83s2.32,1.26,3.46.86a5.43,5.43,0,0,0,2.86-3.07A5.27,5.27,0,0,0,151.93,15.7Z"/><path class="cls-6" d="M160.31.81c.69,1,1,3,.09,3.57S157.78,4,157.09,3a5.44,5.44,0,0,1-.49-4.16A5.19,5.19,0,0,1,160.31.81Z"/><path class="cls-6" d="M156.11,5.34c.87.84,1.54,2.7.8,3.48s-2.64.18-3.51-.66a5.42,5.42,0,0,1-1.32-4A5.24,5.24,0,0,1,156.11,5.34Z"/><path class="cls-6" d="M149.13,7.5c1.13.45,2.44,1.93,2,2.93s-2.38,1.15-3.5.7A5.38,5.38,0,0,1,145,7.93,5.23,5.23,0,0,1,149.13,7.5Z"/><path class="cls-6" d="M137.65,26.48c-.55-1.09-.56-3.07.4-3.55.43-.22,2.39.39,3.09,1.78a5.42,5.42,0,0,1-.07,4.2A5.27,5.27,0,0,1,137.65,26.48Z"/><path class="cls-6" d="M134.73,6.13c-.81.9-1.34,2.81-.54,3.53a3.5,3.5,0,0,0,3.46-.92,5.49,5.49,0,0,0,1-4.06A5.24,5.24,0,0,0,134.73,6.13Z"/><path class="cls-6" d="M154.33,12.55a23.34,23.34,0,0,1-10.75,1.16c5.29,3.59,7.94,10,7.54,14.75,0,.31-.21.58-.58.52a.51.51,0,0,1-.46-.51c.47-5.16-2.86-12.27-9.35-15.16a17.7,17.7,0,0,0-9.75-.93A8.22,8.22,0,0,1,134.67,14a9.38,9.38,0,0,1,3.59,6.82c0,.23-.09.66-.45.69-.53.05-.57-.43-.59-.64a8.32,8.32,0,0,0-3.18-6,7.67,7.67,0,0,0-6.85-1.17c-.39.2-.76.52-1.1.1s.16-.79.44-.93l.24-.13,0,0c3.5-1.83,9.28-2.16,13.47-.63l.15.06c2.91.9,9.15,1.36,13.48-.47,5.69-2.4,8.66-6.49,8.84-12.17a.54.54,0,0,1,.52-.57c.44,0,.53.43.52.64C163.6,5.59,160.41,10,154.33,12.55Z"/><path class="cls-6" d="M141,21c-1.07-.58-2.2-2.2-1.68-3.15a3.48,3.48,0,0,1,3.56-.28,5.4,5.4,0,0,1,2.31,3.5A5.26,5.26,0,0,1,141,21Z"/><circle class="cls-6" cx="29.33" cy="42.35" r="1.91"/><circle class="cls-6" cx="29.33" cy="50.1" r="1.91"/><circle class="cls-6" cx="72.38" cy="42.4" r="1.91"/><circle class="cls-6" cx="72.38" cy="50.16" r="1.91"/><path class="cls-6" d="M-.88,39.84c-1.12.45-2.44,1.93-2,2.93s2.38,1.15,3.51.7a5.42,5.42,0,0,0,2.71-3.2A5.26,5.26,0,0,0-.88,39.84Z"/><path class="cls-6" d="M10.6,58.82c.55-1.09.57-3.07-.4-3.55-.43-.22-2.39.39-3.09,1.78a5.41,5.41,0,0,0,.08,4.2A5.28,5.28,0,0,0,10.6,58.82Z"/><path class="cls-6" d="M13.52,38.47c.81.9,1.34,2.81.54,3.53a3.48,3.48,0,0,1-3.45-.92,5.39,5.39,0,0,1-1-4.06A5.23,5.23,0,0,1,13.52,38.47Z"/><path class="cls-6" d="M-6.08,44.89A23.35,23.35,0,0,0,4.67,46.05c-5.29,3.59-7.94,10-7.54,14.75,0,.31.22.58.58.52a.53.53,0,0,0,.47-.51C-2.3,55.65,1,48.54,7.52,45.65a17.62,17.62,0,0,1,9.75-.93,8.27,8.27,0,0,0-3.69,1.58A9.38,9.38,0,0,0,10,53.12c0,.23.09.66.45.69.54,0,.58-.43.59-.64a8.39,8.39,0,0,1,3.18-6A7.69,7.69,0,0,1,21.07,46c.38.2.75.52,1.09.1s-.16-.79-.43-.93L21.48,45l0,0c-3.51-1.83-9.29-2.16-13.47-.63l-.16.06c-2.9.9-9.15,1.36-13.48-.47-5.68-2.4-8.65-6.49-8.84-12.17a.53.53,0,0,0-.52-.57c-.44,0-.53.43-.52.64C-15.34,37.93-12.16,42.32-6.08,44.89Z"/><path class="cls-6" d="M7.23,53.33c1.07-.58,2.2-2.2,1.68-3.15a3.48,3.48,0,0,0-3.56-.28A5.44,5.44,0,0,0,3,53.4,5.26,5.26,0,0,0,7.23,53.33Z"/><circle class="cls-6" cx="50.59" cy="46.21" r="1.88"/><ellipse class="cls-6" cx="50.45" cy="37.98" rx="1.73" ry="5.35"/><ellipse class="cls-6" cx="50.59" cy="54.8" rx="1.73" ry="5.35"/><ellipse class="cls-6" cx="42.26" cy="46.21" rx="5.35" ry="1.73"/><ellipse class="cls-6" cx="42.05" cy="37.62" rx="1.63" ry="9.08" transform="translate(-14.27 41) rotate(-45.25)"/><ellipse class="cls-6" cx="42.05" cy="54.99" rx="9.08" ry="1.63" transform="translate(-26.53 45.54) rotate(-44.75)"/><ellipse class="cls-6" cx="59.34" cy="46.27" rx="5.35" ry="1.73"/><ellipse class="cls-6" cx="59.56" cy="37.67" rx="9.08" ry="1.63" transform="translate(-9.26 52.85) rotate(-44.75)"/><ellipse class="cls-6" cx="59.56" cy="55.04" rx="1.63" ry="9.08" transform="translate(-21.46 58.59) rotate(-45.25)"/><path class="cls-6" d="M163.61,46.35c0,.43,7.13,2.14,8.79,2.14s3-1,3-2.16-1.35-2.14-3-2.13S163.61,45.87,163.61,46.35Z"/><circle class="cls-6" cx="160.38" cy="46.34" r="1.71"/><path class="cls-6" d="M162.68,44.18c.28.32,6.77-3.11,8-4.21s1.6-2.7.82-3.59-2.43-.71-3.67.39S162.36,43.81,162.68,44.18Z"/><path class="cls-6" d="M160.48,43.11c.43,0,2.18-7.12,2.18-8.78s-1-3-2.14-3-2.15,1.34-2.15,3S160,43.11,160.48,43.11Z"/><path class="cls-6" d="M162.6,48.51c.29-.32,6.77,3.1,8,4.2s1.6,2.71.81,3.59-2.42.71-3.66-.38S162.28,48.87,162.6,48.51Z"/><path class="cls-6" d="M160.41,49.57c.43,0,2.18,7.12,2.18,8.78s-1,3-2.15,3-2.14-1.34-2.14-3S159.92,49.57,160.41,49.57Z"/><path class="cls-6" d="M120.9,46.13c0,1.55,17.94,7.78,23.94,7.78s10.86-3.48,10.86-7.78-4.86-7.78-10.86-7.78S120.9,44.37,120.9,46.13Z"/><path class="cls-6" d="M119.25,49.32c.4-.56,11.3,3.82,13.45,5.36s3,4,1.89,5.59-3.75,1.54-5.9,0S118.8,50,119.25,49.32Z"/><path class="cls-6" d="M119.25,43.48c.4.56,11.3-3.82,13.45-5.36s3-4,1.89-5.59-3.75-1.54-5.9,0S118.8,42.85,119.25,43.48Z"/><circle class="cls-6" cx="115.88" cy="46.13" r="2.6"/><path class="cls-6" d="M107.87,54.42c-1.21.15-2.86,1.24-2.72,2.31s2,1.72,3.21,1.57a5.4,5.4,0,0,0,3.43-2.41A5.23,5.23,0,0,0,107.87,54.42Z"/><path class="cls-6" d="M105,48.12c-1.14.4-2.53,1.81-2.17,2.84s2.32,1.26,3.47.86a5.47,5.47,0,0,0,2.85-3.07A5.22,5.22,0,0,0,105,48.12Z"/><path class="cls-6" d="M113.42,33.24c.68,1,1,2.95.08,3.57s-2.62-.35-3.31-1.36a5.44,5.44,0,0,1-.49-4.16A5.25,5.25,0,0,1,113.42,33.24Z"/><path class="cls-6" d="M109.21,37.76c.87.84,1.55,2.7.8,3.48s-2.64.19-3.51-.66a5.41,5.41,0,0,1-1.32-4A5.24,5.24,0,0,1,109.21,37.76Z"/><path class="cls-6" d="M102.23,39.92c1.13.46,2.44,1.93,2,2.93s-2.37,1.16-3.5.7a5.38,5.38,0,0,1-2.71-3.2A5.24,5.24,0,0,1,102.23,39.92Z"/><path class="cls-6" d="M90.75,58.9c-.55-1.08-.56-3.06.4-3.55.43-.22,2.39.4,3.09,1.79a5.4,5.4,0,0,1-.07,4.19A5.23,5.23,0,0,1,90.75,58.9Z"/><path class="cls-6" d="M87.83,38.55c-.81.91-1.34,2.81-.54,3.53.37.33,2.42.25,3.46-.91a5.47,5.47,0,0,0,1-4.07A5.25,5.25,0,0,0,87.83,38.55Z"/><path class="cls-6" d="M107.43,45a23.34,23.34,0,0,1-10.75,1.16c5.3,3.59,7.95,10,7.54,14.76a.49.49,0,0,1-.58.51.5.5,0,0,1-.46-.5c.48-5.16-2.86-12.28-9.34-15.17a17.74,17.74,0,0,0-9.76-.93,8.21,8.21,0,0,1,3.7,1.59,9.4,9.4,0,0,1,3.58,6.81c0,.23-.09.66-.45.69-.53,0-.57-.43-.59-.64a8.28,8.28,0,0,0-3.18-6A7.64,7.64,0,0,0,80.29,46c-.39.2-.76.53-1.1.1s.16-.78.44-.93l.25-.13,0,0c3.5-1.84,9.28-2.17,13.47-.63l.16,0c2.9.91,9.14,1.36,13.48-.47,5.68-2.4,8.65-6.49,8.83-12.16a.53.53,0,0,1,.52-.57c.44,0,.53.43.52.64C116.7,38,113.51,42.4,107.43,45Z"/><path class="cls-6" d="M94.12,53.42c-1.06-.59-2.2-2.21-1.68-3.16A3.48,3.48,0,0,1,96,50a5.4,5.4,0,0,1,2.31,3.5A5.23,5.23,0,0,1,94.12,53.42Z"/><circle class="cls-6" cx="76.24" cy="72.99" r="1.91"/><circle class="cls-6" cx="76.24" cy="80.74" r="1.91"/><circle class="cls-6" cx="119.28" cy="73.04" r="1.91"/><circle class="cls-6" cx="119.28" cy="80.79" r="1.91"/><path class="cls-6" d="M27.36,76.68c0,1.56-17.94,7.78-23.94,7.78S-7.44,81-7.44,76.68-2.58,68.9,3.42,68.9,27.36,74.92,27.36,76.68Z"/><path class="cls-6" d="M29,79.88c-.4-.56-11.3,3.82-13.45,5.36s-3,4.05-1.89,5.59,3.75,1.53,5.9,0S29.46,80.51,29,79.88Z"/><path class="cls-6" d="M29,74c-.4.55-11.3-3.82-13.45-5.37s-3-4-1.89-5.58,3.75-1.54,5.9,0S29.46,73.4,29,74Z"/><circle class="cls-6" cx="32.38" cy="76.68" r="2.6"/><path class="cls-6" d="M40.39,85c1.21.15,2.86,1.24,2.72,2.32s-2,1.72-3.21,1.56a5.36,5.36,0,0,1-3.43-2.4A5.22,5.22,0,0,1,40.39,85Z"/><path class="cls-6" d="M43.22,78.68c1.15.4,2.54,1.81,2.18,2.83s-2.32,1.26-3.47.86a5.4,5.4,0,0,1-2.85-3.07A5.21,5.21,0,0,1,43.22,78.68Z"/><path class="cls-6" d="M34.84,63.79c-.69,1-1,3-.08,3.57S37.38,67,38.07,66a5.46,5.46,0,0,0,.49-4.17A5.25,5.25,0,0,0,34.84,63.79Z"/><path class="cls-6" d="M39.05,68.32c-.88.84-1.55,2.7-.8,3.48s2.64.18,3.51-.66a5.43,5.43,0,0,0,1.32-4A5.23,5.23,0,0,0,39.05,68.32Z"/><path class="cls-6" d="M46,70.48c-1.13.45-2.45,1.93-2,2.93s2.37,1.15,3.5.7a5.45,5.45,0,0,0,2.71-3.2A5.24,5.24,0,0,0,46,70.48Z"/><path class="cls-6" d="M57.51,89.46c.55-1.09.56-3.07-.4-3.55-.44-.22-2.39.39-3.1,1.78a5.46,5.46,0,0,0,.08,4.2A5.27,5.27,0,0,0,57.51,89.46Z"/><path class="cls-6" d="M60.42,69.11c.82.9,1.35,2.81.54,3.53a3.48,3.48,0,0,1-3.45-.92,5.41,5.41,0,0,1-1-4.07A5.25,5.25,0,0,1,60.42,69.11Z"/><path class="cls-6" d="M40.83,75.53a23.32,23.32,0,0,0,10.75,1.16c-5.3,3.59-7.95,10-7.54,14.75a.49.49,0,0,0,.58.51.49.49,0,0,0,.46-.5c-.48-5.16,2.86-12.27,9.34-15.16a17.56,17.56,0,0,1,9.76-.93,8.31,8.31,0,0,0-3.7,1.58,9.45,9.45,0,0,0-3.59,6.82c0,.23.1.66.46.69.53,0,.57-.43.59-.64a8.33,8.33,0,0,1,3.17-6A7.7,7.7,0,0,1,68,76.6c.39.2.76.52,1.1.09s-.17-.78-.44-.92l-.25-.13,0,0c-3.51-1.83-9.28-2.16-13.47-.63l-.16.06c-2.9.9-9.14,1.36-13.48-.47-5.68-2.4-8.65-6.49-8.83-12.17a.53.53,0,0,0-.52-.57c-.44,0-.53.43-.52.64C31.56,68.57,34.75,73,40.83,75.53Z"/><path class="cls-6" d="M54.14,84c1.06-.58,2.2-2.2,1.68-3.15-.23-.43-2.2-1-3.56-.28A5.47,5.47,0,0,0,49.94,84,5.28,5.28,0,0,0,54.14,84Z"/><circle class="cls-6" cx="97.5" cy="76.85" r="1.88"/><ellipse class="cls-6" cx="97.35" cy="68.62" rx="1.73" ry="5.35"/><ellipse class="cls-6" cx="97.5" cy="85.44" rx="1.73" ry="5.35"/><ellipse class="cls-6" cx="89.17" cy="76.85" rx="5.35" ry="1.73"/><ellipse class="cls-6" cx="88.95" cy="68.26" rx="1.63" ry="9.08" transform="translate(-22.15 83.38) rotate(-45.25)"/><ellipse class="cls-6" cx="88.95" cy="85.63" rx="9.08" ry="1.63" transform="translate(-34.5 87.44) rotate(-44.75)"/><ellipse class="cls-6" cx="106.25" cy="76.9" rx="5.35" ry="1.73"/><ellipse class="cls-6" cx="106.46" cy="68.31" rx="9.08" ry="1.63" transform="translate(-17.24 94.75) rotate(-44.75)"/><ellipse class="cls-6" cx="106.46" cy="85.68" rx="1.63" ry="9.08" transform="translate(-29.34 100.97) rotate(-45.25)"/><path class="cls-6" d="M210.52,77c0,.43,7.13,2.14,8.78,2.13s3-1,3-2.15-1.35-2.14-3-2.13S210.52,76.5,210.52,77Z"/><circle class="cls-6" cx="207.28" cy="76.98" r="1.71"/><path class="cls-6" d="M209.58,74.81c.29.32,6.77-3.1,8-4.2s1.6-2.7.81-3.59-2.43-.71-3.66.39S209.26,74.45,209.58,74.81Z"/><path class="cls-6" d="M207.39,73.75c.42,0,2.17-7.12,2.17-8.78s-1-3-2.14-3-2.15,1.34-2.15,3S206.9,73.75,207.39,73.75Z"/><path class="cls-6" d="M209.51,79.15c.28-.32,6.77,3.1,8,4.2s1.6,2.7.82,3.59-2.43.71-3.67-.39S209.19,79.51,209.51,79.15Z"/><path class="cls-6" d="M207.31,80.21c.43,0,2.18,7.12,2.18,8.78s-1,3-2.14,3-2.15-1.34-2.15-3S206.83,80.21,207.31,80.21Z"/><path class="cls-6" d="M167.81,76.77c0,1.55,17.93,7.78,23.93,7.78s10.86-3.49,10.86-7.78S197.74,69,191.74,69,167.81,75,167.81,76.77Z"/><path class="cls-6" d="M166.15,80c.4-.56,11.3,3.82,13.45,5.36s3,4.05,1.89,5.59-3.74,1.54-5.9,0S165.7,80.59,166.15,80Z"/><path class="cls-6" d="M166.15,74.12c.4.56,11.3-3.82,13.45-5.36s3-4.05,1.89-5.59-3.74-1.54-5.9,0S165.7,73.49,166.15,74.12Z"/><circle class="cls-6" cx="162.78" cy="76.77" r="2.6"/><path class="cls-6" d="M154.77,85.05c-1.2.16-2.85,1.25-2.72,2.32s2,1.72,3.21,1.57a5.43,5.43,0,0,0,3.44-2.41A5.29,5.29,0,0,0,154.77,85.05Z"/><path class="cls-6" d="M151.94,78.76c-1.15.4-2.53,1.81-2.18,2.83s2.32,1.27,3.47.87a5.47,5.47,0,0,0,2.86-3.08A5.28,5.28,0,0,0,151.94,78.76Z"/><path class="cls-6" d="M160.32,63.87c.69,1,1,3,.08,3.57s-2.62-.35-3.3-1.35a5.41,5.41,0,0,1-.5-4.16A5.23,5.23,0,0,1,160.32,63.87Z"/><path class="cls-6" d="M156.11,68.4c.88.84,1.55,2.7.8,3.48s-2.63.18-3.51-.66a5.42,5.42,0,0,1-1.32-4A5.22,5.22,0,0,1,156.11,68.4Z"/><path class="cls-6" d="M149.13,70.56c1.13.45,2.45,1.93,2.05,2.93s-2.38,1.16-3.51.7A5.42,5.42,0,0,1,145,71,5.24,5.24,0,0,1,149.13,70.56Z"/><path class="cls-6" d="M137.65,89.54c-.54-1.09-.56-3.06.41-3.55.43-.22,2.39.39,3.09,1.79a5.43,5.43,0,0,1-.08,4.19A5.29,5.29,0,0,1,137.65,89.54Z"/><path class="cls-6" d="M134.74,69.19c-.81.9-1.35,2.81-.54,3.53a3.48,3.48,0,0,0,3.45-.92,5.39,5.39,0,0,0,1-4.06A5.23,5.23,0,0,0,134.74,69.19Z"/><path class="cls-6" d="M154.33,75.61a23.32,23.32,0,0,1-10.75,1.16c5.3,3.59,7.95,10,7.55,14.76a.5.5,0,0,1-.59.51.52.52,0,0,1-.46-.51c.48-5.16-2.86-12.27-9.34-15.16a17.72,17.72,0,0,0-9.75-.93A8.18,8.18,0,0,1,134.68,77a9.36,9.36,0,0,1,3.59,6.81c0,.23-.09.66-.45.69-.54,0-.58-.43-.59-.64a8.39,8.39,0,0,0-3.18-6,7.69,7.69,0,0,0-6.86-1.17c-.38.2-.75.52-1.09.1s.16-.78.43-.93l.25-.13,0,0c3.51-1.83,9.29-2.16,13.47-.63l.16.06c2.9.9,9.15,1.36,13.48-.47,5.68-2.4,8.65-6.49,8.84-12.16a.52.52,0,0,1,.51-.58c.45,0,.53.43.53.65C163.6,68.65,160.42,73,154.33,75.61Z"/><path class="cls-6" d="M141,84.05c-1.06-.58-2.19-2.2-1.68-3.15a3.49,3.49,0,0,1,3.56-.28,5.43,5.43,0,0,1,2.32,3.5A5.28,5.28,0,0,1,141,84.05Z"/><circle class="cls-6" cx="29.09" cy="105.06" r="1.91"/><circle class="cls-6" cx="29.09" cy="112.82" r="1.91"/><circle class="cls-6" cx="72.13" cy="105.11" r="1.91"/><circle class="cls-6" cx="72.13" cy="112.87" r="1.91"/><path class="cls-6" d="M-1.12,102.55c-1.13.45-2.44,1.93-2,2.93s2.37,1.16,3.5.7A5.38,5.38,0,0,0,3.05,103,5.24,5.24,0,0,0-1.12,102.55Z"/><path class="cls-6" d="M10.36,121.53c.55-1.09.56-3.06-.4-3.55-.43-.22-2.39.4-3.1,1.79A5.43,5.43,0,0,0,6.94,124,5.27,5.27,0,0,0,10.36,121.53Z"/><path class="cls-6" d="M13.28,101.18c.81.9,1.34,2.81.54,3.53-.37.33-2.42.24-3.46-.91a5.42,5.42,0,0,1-1-4.07A5.25,5.25,0,0,1,13.28,101.18Z"/><path class="cls-6" d="M-6.32,107.6a23.34,23.34,0,0,0,10.75,1.16c-5.3,3.59-7.95,10-7.54,14.76a.49.49,0,0,0,.58.51.5.5,0,0,0,.46-.51c-.48-5.15,2.86-12.27,9.34-15.16a17.74,17.74,0,0,1,9.76-.93,8.21,8.21,0,0,0-3.7,1.59,9.4,9.4,0,0,0-3.58,6.81c0,.23.09.66.45.69.53,0,.57-.43.59-.64a8.3,8.3,0,0,1,3.17-6,7.67,7.67,0,0,1,6.86-1.18c.39.2.76.52,1.1.1s-.16-.78-.44-.93l-.25-.13,0,0c-3.5-1.83-9.28-2.16-13.47-.63l-.16.06c-2.9.9-9.14,1.36-13.48-.47-5.68-2.4-8.65-6.49-8.83-12.16a.54.54,0,0,0-.52-.58c-.44,0-.53.43-.52.65C-15.59,100.64-12.4,105-6.32,107.6Z"/><path class="cls-6" d="M7,116c1.06-.58,2.2-2.2,1.68-3.15a3.48,3.48,0,0,0-3.56-.28,5.47,5.47,0,0,0-2.32,3.5A5.28,5.28,0,0,0,7,116Z"/><circle class="cls-6" cx="50.35" cy="108.92" r="1.88"/><ellipse class="cls-6" cx="50.2" cy="100.7" rx="1.73" ry="5.35"/><ellipse class="cls-6" cx="50.35" cy="117.51" rx="1.73" ry="5.35"/><ellipse class="cls-6" cx="42.02" cy="108.92" rx="5.35" ry="1.73"/><ellipse class="cls-6" cx="41.8" cy="100.33" rx="1.63" ry="9.08" transform="translate(-58.88 59.39) rotate(-45.25)"/><ellipse class="cls-6" cx="41.8" cy="117.7" rx="9.08" ry="1.63" transform="translate(-70.74 63.54) rotate(-44.75)"/><ellipse class="cls-6" cx="59.1" cy="108.98" rx="5.35" ry="1.73"/><ellipse class="cls-6" cx="59.31" cy="100.38" rx="9.08" ry="1.63" transform="translate(-53.48 70.85) rotate(-44.75)"/><ellipse class="cls-6" cx="59.31" cy="117.75" rx="1.63" ry="9.08" transform="translate(-66.07 76.98) rotate(-45.25)"/><path class="cls-6" d="M163.37,109.06c0,.43,7.13,2.15,8.78,2.14s3-1,3-2.16-1.35-2.14-3-2.13S163.37,108.58,163.37,109.06Z"/><circle class="cls-6" cx="160.13" cy="109.05" r="1.71"/><path class="cls-6" d="M162.43,106.89c.29.32,6.77-3.11,8-4.2s1.6-2.71.81-3.6-2.43-.71-3.66.39S162.11,106.52,162.43,106.89Z"/><path class="cls-6" d="M160.24,105.82c.42,0,2.18-7.12,2.18-8.77s-1-3-2.15-3-2.14,1.34-2.14,3S159.75,105.82,160.24,105.82Z"/><path class="cls-6" d="M162.36,111.22c.28-.32,6.77,3.1,8,4.2s1.6,2.71.82,3.59-2.43.72-3.67-.38S162,111.58,162.36,111.22Z"/><path class="cls-6" d="M160.16,112.29c.43,0,2.18,7.12,2.18,8.77s-1,3-2.14,3-2.15-1.35-2.15-3S159.68,112.29,160.16,112.29Z"/><path class="cls-6" d="M120.66,108.84c0,1.55,17.93,7.78,23.93,7.78s10.86-3.48,10.86-7.78-4.86-7.78-10.86-7.78S120.66,107.08,120.66,108.84Z"/><path class="cls-6" d="M119,112c.4-.55,11.29,3.82,13.44,5.37s3,4,1.89,5.58-3.74,1.54-5.89,0S118.55,112.66,119,112Z"/><path class="cls-6" d="M119,106.19c.4.56,11.29-3.82,13.44-5.36s3-4,1.89-5.59-3.74-1.53-5.89,0S118.55,105.56,119,106.19Z"/><circle class="cls-6" cx="115.63" cy="108.84" r="2.6"/><path class="cls-6" d="M107.62,117.13c-1.2.15-2.85,1.24-2.72,2.31s2,1.72,3.21,1.57a5.47,5.47,0,0,0,3.44-2.4A5.21,5.21,0,0,0,107.62,117.13Z"/><path class="cls-6" d="M104.79,110.83c-1.15.4-2.53,1.82-2.17,2.84s2.31,1.26,3.46.86a5.43,5.43,0,0,0,2.86-3.07A5.23,5.23,0,0,0,104.79,110.83Z"/><path class="cls-6" d="M113.17,96c.69,1,1,3,.08,3.57s-2.61-.35-3.3-1.35a5.42,5.42,0,0,1-.49-4.17A5.25,5.25,0,0,1,113.17,96Z"/><path class="cls-6" d="M109,100.47c.88.85,1.55,2.71.8,3.48s-2.63.19-3.51-.65a5.44,5.44,0,0,1-1.32-4A5.27,5.27,0,0,1,109,100.47Z"/><path class="cls-6" d="M102,102.63c1.13.46,2.45,1.93,2,2.93s-2.38,1.16-3.51.71a5.46,5.46,0,0,1-2.71-3.21A5.28,5.28,0,0,1,102,102.63Z"/><path class="cls-6" d="M90.51,121.61c-.55-1.08-.57-3.06.4-3.55.43-.22,2.39.4,3.09,1.79a5.38,5.38,0,0,1-.08,4.19A5.2,5.2,0,0,1,90.51,121.61Z"/><path class="cls-6" d="M87.59,101.26c-.81.91-1.34,2.81-.54,3.53.36.33,2.41.25,3.45-.91a5.41,5.41,0,0,0,1-4.07A5.23,5.23,0,0,0,87.59,101.26Z"/><path class="cls-6" d="M107.19,107.68a23.22,23.22,0,0,1-10.75,1.16c5.29,3.59,7.94,10,7.54,14.76,0,.3-.22.57-.58.51a.52.52,0,0,1-.47-.5c.48-5.16-2.86-12.28-9.34-15.17a17.71,17.71,0,0,0-9.75-.93,8.29,8.29,0,0,1,3.69,1.59,9.38,9.38,0,0,1,3.59,6.82c0,.22-.09.65-.45.68-.54.05-.58-.42-.59-.64a8.35,8.35,0,0,0-3.18-6A7.66,7.66,0,0,0,80,108.75c-.38.2-.75.53-1.09.1s.16-.78.43-.93l.25-.13,0,0c3.51-1.84,9.29-2.17,13.47-.63l.16.06c2.9.9,9.15,1.35,13.48-.48,5.68-2.4,8.65-6.49,8.84-12.16a.52.52,0,0,1,.51-.57c.45,0,.54.43.53.64C116.45,100.72,113.27,105.11,107.19,107.68Z"/><path class="cls-6" d="M93.88,116.13c-1.07-.59-2.2-2.21-1.68-3.15.23-.43,2.19-1,3.56-.29a5.44,5.44,0,0,1,2.31,3.5A5.19,5.19,0,0,1,93.88,116.13Z"/><circle class="cls-6" cx="76.17" cy="135.94" r="1.91"/><circle class="cls-6" cx="76.17" cy="143.69" r="1.91"/><circle class="cls-6" cx="119.21" cy="135.99" r="1.91"/><circle class="cls-6" cx="119.21" cy="143.75" r="1.91"/><path class="cls-6" d="M27.29,139.64c0,1.55-17.94,7.78-23.94,7.78s-10.86-3.49-10.86-7.78,4.86-7.78,10.86-7.78S27.29,137.88,27.29,139.64Z"/><path class="cls-6" d="M28.94,142.83c-.4-.56-11.3,3.82-13.45,5.36s-3,4.05-1.89,5.59,3.75,1.54,5.9,0S29.39,143.46,28.94,142.83Z"/><path class="cls-6" d="M28.94,137c-.4.56-11.3-3.82-13.45-5.36s-3-4-1.89-5.59,3.75-1.54,5.9,0S29.39,136.36,28.94,137Z"/><circle class="cls-6" cx="32.31" cy="139.64" r="2.6"/><path class="cls-6" d="M40.32,147.92c1.21.16,2.86,1.25,2.72,2.32s-2,1.72-3.21,1.57a5.4,5.4,0,0,1-3.43-2.41A5.26,5.26,0,0,1,40.32,147.92Z"/><path class="cls-6" d="M43.15,141.63c1.15.4,2.54,1.81,2.18,2.83s-2.32,1.27-3.47.86A5.4,5.4,0,0,1,39,142.25,5.26,5.26,0,0,1,43.15,141.63Z"/><path class="cls-6" d="M34.77,126.74c-.69,1-1,3-.08,3.57S37.31,130,38,129a5.44,5.44,0,0,0,.49-4.16A5.19,5.19,0,0,0,34.77,126.74Z"/><path class="cls-6" d="M39,131.27c-.88.84-1.55,2.7-.8,3.48s2.64.18,3.51-.66a5.42,5.42,0,0,0,1.32-4A5.24,5.24,0,0,0,39,131.27Z"/><path class="cls-6" d="M46,133.43c-1.13.45-2.45,1.93-2,2.93s2.37,1.15,3.5.7a5.38,5.38,0,0,0,2.71-3.2A5.24,5.24,0,0,0,46,133.43Z"/><path class="cls-6" d="M57.44,152.41c.55-1.09.56-3.06-.4-3.55-.44-.22-2.39.39-3.1,1.78a5.45,5.45,0,0,0,.08,4.2A5.27,5.27,0,0,0,57.44,152.41Z"/><path class="cls-6" d="M60.36,132.06c.81.9,1.34,2.81.53,3.53a3.48,3.48,0,0,1-3.45-.92,5.39,5.39,0,0,1-1-4.06A5.26,5.26,0,0,1,60.36,132.06Z"/><path class="cls-6" d="M40.76,138.48a23.32,23.32,0,0,0,10.75,1.16c-5.3,3.59-7.95,10-7.54,14.75,0,.31.21.58.58.52a.51.51,0,0,0,.46-.51c-.48-5.16,2.86-12.27,9.34-15.16a17.74,17.74,0,0,1,9.76-.93,8.21,8.21,0,0,0-3.7,1.59,9.41,9.41,0,0,0-3.59,6.81c0,.23.1.66.46.69.53,0,.57-.43.59-.64a8.34,8.34,0,0,1,3.17-6,7.7,7.7,0,0,1,6.86-1.17c.39.2.76.52,1.1.1s-.16-.79-.44-.93l-.25-.13,0,0c-3.5-1.83-9.28-2.16-13.47-.63l-.16.06c-2.9.9-9.14,1.36-13.48-.47-5.68-2.4-8.65-6.49-8.83-12.16a.54.54,0,0,0-.52-.58c-.44,0-.53.43-.52.64C31.49,131.52,34.68,135.91,40.76,138.48Z"/><path class="cls-6" d="M54.07,146.92c1.06-.58,2.2-2.2,1.68-3.15a3.48,3.48,0,0,0-3.56-.28,5.47,5.47,0,0,0-2.32,3.5A5.28,5.28,0,0,0,54.07,146.92Z"/><circle class="cls-6" cx="97.43" cy="139.8" r="1.88"/><ellipse class="cls-6" cx="97.28" cy="131.58" rx="1.73" ry="5.35"/><ellipse class="cls-6" cx="97.43" cy="148.39" rx="1.73" ry="5.35"/><ellipse class="cls-6" cx="89.1" cy="139.8" rx="5.35" ry="1.73"/><ellipse class="cls-6" cx="88.88" cy="131.21" rx="1.63" ry="9.08" transform="translate(-66.88 101.96) rotate(-45.25)"/><ellipse class="cls-6" cx="88.88" cy="148.58" rx="9.08" ry="1.63" transform="translate(-78.84 105.63) rotate(-44.75)"/><ellipse class="cls-6" cx="106.18" cy="139.86" rx="5.35" ry="1.73"/><ellipse class="cls-6" cx="106.39" cy="131.26" rx="9.08" ry="1.63" transform="translate(-61.58 112.94) rotate(-44.75)"/><ellipse class="cls-6" cx="106.39" cy="148.63" rx="1.63" ry="9.08" transform="translate(-74.07 119.56) rotate(-45.25)"/><path class="cls-6" d="M210.45,139.94c0,.43,7.13,2.15,8.78,2.14s3-1,3-2.16-1.35-2.14-3-2.13S210.45,139.46,210.45,139.94Z"/><circle class="cls-6" cx="207.21" cy="139.93" r="1.71"/><path class="cls-6" d="M209.51,137.77c.29.32,6.77-3.11,8-4.2s1.6-2.71.81-3.6-2.43-.71-3.66.39S209.19,137.4,209.51,137.77Z"/><path class="cls-6" d="M207.32,136.7c.42,0,2.17-7.12,2.18-8.77s-1-3-2.15-3-2.14,1.34-2.14,3S206.83,136.7,207.32,136.7Z"/><path class="cls-6" d="M209.44,142.1c.28-.32,6.77,3.1,8,4.2s1.6,2.71.82,3.59-2.43.72-3.67-.38S209.12,142.46,209.44,142.1Z"/><path class="cls-6" d="M207.24,143.17c.43,0,2.18,7.12,2.18,8.77s-1,3-2.14,3-2.15-1.34-2.15-3S206.76,143.17,207.24,143.17Z"/><path class="cls-6" d="M167.74,139.72c0,1.55,17.93,7.78,23.93,7.78s10.86-3.48,10.86-7.78-4.86-7.78-10.86-7.78S167.74,138,167.74,139.72Z"/><path class="cls-6" d="M166.09,142.91c.4-.55,11.29,3.82,13.44,5.37s3,4,1.89,5.58-3.74,1.54-5.9,0S165.63,143.54,166.09,142.91Z"/><path class="cls-6" d="M166.09,137.07c.4.56,11.29-3.82,13.44-5.36s3-4.05,1.89-5.59-3.74-1.54-5.9,0S165.63,136.44,166.09,137.07Z"/><circle class="cls-6" cx="162.71" cy="139.72" r="2.6"/><path class="cls-6" d="M154.7,148c-1.2.15-2.85,1.24-2.72,2.31s2,1.72,3.21,1.57a5.43,5.43,0,0,0,3.44-2.41A5.26,5.26,0,0,0,154.7,148Z"/><path class="cls-6" d="M151.87,141.71c-1.15.4-2.53,1.82-2.17,2.84s2.31,1.26,3.46.86a5.43,5.43,0,0,0,2.86-3.07A5.23,5.23,0,0,0,151.87,141.71Z"/><path class="cls-6" d="M160.25,126.83c.69,1,1,3,.08,3.57s-2.62-.35-3.3-1.35a5.42,5.42,0,0,1-.49-4.17A5.25,5.25,0,0,1,160.25,126.83Z"/><path class="cls-6" d="M156,131.35c.88.84,1.55,2.7.8,3.48s-2.63.19-3.51-.66a5.41,5.41,0,0,1-1.32-4A5.22,5.22,0,0,1,156,131.35Z"/><path class="cls-6" d="M149.06,133.51c1.13.46,2.45,1.93,2.05,2.93s-2.38,1.16-3.51.7a5.42,5.42,0,0,1-2.71-3.2A5.24,5.24,0,0,1,149.06,133.51Z"/><path class="cls-6" d="M137.59,152.49c-.55-1.08-.57-3.06.4-3.55.43-.22,2.39.4,3.09,1.79a5.43,5.43,0,0,1-.08,4.19A5.2,5.2,0,0,1,137.59,152.49Z"/><path class="cls-6" d="M134.67,132.14c-.81.91-1.34,2.81-.54,3.53.36.33,2.41.25,3.45-.91a5.42,5.42,0,0,0,1-4.07A5.23,5.23,0,0,0,134.67,132.14Z"/><path class="cls-6" d="M154.27,138.56a23.35,23.35,0,0,1-10.75,1.16c5.29,3.59,7.94,10,7.54,14.76,0,.3-.22.57-.58.51a.52.52,0,0,1-.47-.5c.48-5.16-2.86-12.28-9.34-15.17a17.71,17.71,0,0,0-9.75-.93,8.29,8.29,0,0,1,3.69,1.59,9.38,9.38,0,0,1,3.59,6.81c0,.23-.09.66-.45.69-.54.05-.58-.43-.59-.64a8.35,8.35,0,0,0-3.18-6,7.66,7.66,0,0,0-6.86-1.18c-.38.2-.75.53-1.09.1s.16-.78.43-.93l.25-.13,0,0c3.51-1.84,9.29-2.17,13.47-.63l.16.06c2.9.9,9.15,1.35,13.48-.48,5.68-2.4,8.65-6.49,8.84-12.16a.52.52,0,0,1,.51-.57c.45,0,.54.43.53.64C163.53,131.6,160.35,136,154.27,138.56Z"/><path class="cls-6" d="M141,147c-1.07-.59-2.2-2.21-1.69-3.15.24-.43,2.2-1,3.57-.29a5.44,5.44,0,0,1,2.31,3.5A5.19,5.19,0,0,1,141,147Z"/><circle class="cls-6" cx="29.27" cy="168.36" r="1.91"/><circle class="cls-6" cx="29.27" cy="176.12" r="1.91"/><circle class="cls-6" cx="72.32" cy="168.41" r="1.91"/><circle class="cls-6" cx="72.32" cy="176.17" r="1.91"/><path class="cls-6" d="M-.94,165.85c-1.13.46-2.44,1.93-2,2.93s2.37,1.16,3.5.7a5.38,5.38,0,0,0,2.71-3.2A5.23,5.23,0,0,0-.94,165.85Z"/><path class="cls-6" d="M10.54,184.83c.55-1.08.56-3.06-.4-3.55-.43-.22-2.39.4-3.09,1.79a5.4,5.4,0,0,0,.07,4.19A5.19,5.19,0,0,0,10.54,184.83Z"/><path class="cls-6" d="M13.46,164.48c.81.91,1.34,2.81.54,3.53-.36.33-2.42.25-3.46-.91a5.47,5.47,0,0,1-1-4.07A5.25,5.25,0,0,1,13.46,164.48Z"/><path class="cls-6" d="M-6.14,170.9a23.34,23.34,0,0,0,10.75,1.16c-5.29,3.59-7.94,10-7.54,14.76a.49.49,0,0,0,.58.51.5.5,0,0,0,.46-.5c-.48-5.16,2.86-12.28,9.35-15.17a17.7,17.7,0,0,1,9.75-.93,8.21,8.21,0,0,0-3.7,1.59,9.4,9.4,0,0,0-3.58,6.81c0,.23.09.66.45.69.53.05.57-.43.59-.64a8.28,8.28,0,0,1,3.18-6A7.64,7.64,0,0,1,21,172c.39.2.76.53,1.1.1s-.16-.78-.44-.93l-.25-.13,0,0c-3.5-1.84-9.28-2.17-13.47-.63l-.16.06c-2.9.9-9.14,1.35-13.47-.48-5.69-2.4-8.66-6.49-8.84-12.16a.53.53,0,0,0-.52-.57c-.44,0-.53.43-.52.64C-15.41,163.94-12.22,168.33-6.14,170.9Z"/><path class="cls-6" d="M7.17,179.35c1.07-.59,2.2-2.21,1.68-3.15-.23-.43-2.19-1-3.56-.29A5.4,5.4,0,0,0,3,179.41,5.19,5.19,0,0,0,7.17,179.35Z"/><circle class="cls-6" cx="50.53" cy="172.23" r="1.88"/><ellipse class="cls-6" cx="50.38" cy="164" rx="1.73" ry="5.35"/><ellipse class="cls-6" cx="50.53" cy="180.82" rx="1.73" ry="5.35"/><ellipse class="cls-6" cx="42.2" cy="172.23" rx="5.35" ry="1.73"/><ellipse class="cls-6" cx="41.98" cy="163.63" rx="1.63" ry="9.08" transform="translate(-103.78 78.25) rotate(-45.25)"/><ellipse class="cls-6" cx="41.98" cy="181" rx="9.08" ry="1.63" transform="translate(-115.26 82.01) rotate(-44.75)"/><ellipse class="cls-6" cx="59.28" cy="172.28" rx="5.35" ry="1.73"/><ellipse class="cls-6" cx="59.5" cy="163.69" rx="9.08" ry="1.63" transform="translate(-97.99 89.32) rotate(-44.75)"/><ellipse class="cls-6" cx="59.5" cy="181.05" rx="1.63" ry="9.08" transform="translate(-110.98 95.85) rotate(-45.25)"/><path class="cls-6" d="M163.55,172.36c0,.43,7.13,2.15,8.79,2.14s3-1,3-2.16-1.35-2.14-3-2.13S163.55,171.88,163.55,172.36Z"/><circle class="cls-6" cx="160.31" cy="172.36" r="1.71"/><path class="cls-6" d="M162.61,170.19c.29.32,6.77-3.1,8-4.2s1.6-2.71.81-3.59-2.42-.72-3.66.38S162.29,169.83,162.61,170.19Z"/><path class="cls-6" d="M160.42,169.12c.43,0,2.18-7.12,2.18-8.77s-1-3-2.15-3-2.14,1.34-2.14,3S159.93,169.12,160.42,169.12Z"/><path class="cls-6" d="M162.54,174.52c.28-.32,6.77,3.1,8,4.2s1.6,2.71.81,3.6-2.43.71-3.66-.39S162.22,174.88,162.54,174.52Z"/><path class="cls-6" d="M160.34,175.59c.43,0,2.18,7.12,2.18,8.77s-1,3-2.14,3-2.15-1.34-2.15-3S159.86,175.59,160.34,175.59Z"/><path class="cls-6" d="M120.84,172.14c0,1.55,17.93,7.78,23.93,7.78s10.87-3.48,10.87-7.78-4.87-7.78-10.87-7.78S120.84,170.38,120.84,172.14Z"/><path class="cls-6" d="M119.19,175.34c.4-.56,11.29,3.81,13.44,5.36s3,4,1.89,5.59-3.74,1.53-5.89,0S118.73,176,119.19,175.34Z"/><path class="cls-6" d="M119.19,169.49c.4.56,11.29-3.81,13.44-5.36s3-4,1.89-5.59-3.74-1.53-5.89,0S118.73,168.86,119.19,169.49Z"/><circle class="cls-6" cx="115.81" cy="172.14" r="2.6"/><path class="cls-6" d="M107.8,180.43c-1.2.15-2.85,1.24-2.72,2.32s2,1.72,3.21,1.56a5.47,5.47,0,0,0,3.44-2.4A5.19,5.19,0,0,0,107.8,180.43Z"/><path class="cls-6" d="M105,174.14c-1.15.4-2.53,1.81-2.17,2.83s2.32,1.26,3.46.86a5.43,5.43,0,0,0,2.86-3.07A5.19,5.19,0,0,0,105,174.14Z"/><path class="cls-6" d="M113.35,159.25c.69,1,1,3,.08,3.57s-2.61-.35-3.3-1.35a5.42,5.42,0,0,1-.49-4.17A5.25,5.25,0,0,1,113.35,159.25Z"/><path class="cls-6" d="M109.15,163.78c.87.84,1.54,2.7.79,3.48s-2.63.18-3.51-.66a5.43,5.43,0,0,1-1.32-4A5.25,5.25,0,0,1,109.15,163.78Z"/><path class="cls-6" d="M102.17,165.94c1.12.45,2.44,1.92,2,2.93s-2.38,1.15-3.51.7a5.48,5.48,0,0,1-2.71-3.2A5.21,5.21,0,0,1,102.17,165.94Z"/><path class="cls-6" d="M90.69,184.91c-.55-1.08-.57-3.06.4-3.55a3.5,3.5,0,0,1,3.09,1.79,5.38,5.38,0,0,1-.08,4.19A5.2,5.2,0,0,1,90.69,184.91Z"/><path class="cls-6" d="M87.77,164.57c-.81.9-1.34,2.8-.54,3.53a3.48,3.48,0,0,0,3.45-.92,5.41,5.41,0,0,0,1-4.07A5.21,5.21,0,0,0,87.77,164.57Z"/><path class="cls-6" d="M107.37,171a23.36,23.36,0,0,1-10.75,1.17c5.29,3.58,7.94,10,7.54,14.75,0,.31-.22.57-.58.51a.52.52,0,0,1-.47-.5c.48-5.16-2.85-12.27-9.34-15.17a17.71,17.71,0,0,0-9.75-.93,8.35,8.35,0,0,1,3.69,1.59,9.38,9.38,0,0,1,3.59,6.82c0,.23-.09.65-.45.69-.54,0-.58-.43-.59-.64a8.35,8.35,0,0,0-3.18-6,7.66,7.66,0,0,0-6.86-1.17c-.38.19-.75.52-1.09.09s.16-.78.44-.93l.24-.13,0,0a18.46,18.46,0,0,1,13.47-.63l.16.06c2.9.9,9.15,1.36,13.48-.48,5.68-2.4,8.65-6.49,8.84-12.16a.53.53,0,0,1,.52-.57c.44,0,.53.43.52.64C116.63,164,113.45,168.41,107.37,171Z"/><path class="cls-6" d="M94.06,179.43c-1.07-.58-2.2-2.2-1.68-3.15.23-.43,2.19-1,3.56-.28a5.45,5.45,0,0,1,2.31,3.49A5.19,5.19,0,0,1,94.06,179.43Z"/><circle class="cls-6" cx="76.18" cy="199" r="1.91"/><circle class="cls-6" cx="76.18" cy="206.76" r="1.91"/><circle class="cls-6" cx="119.22" cy="199.05" r="1.91"/><circle class="cls-6" cx="119.22" cy="206.81" r="1.91"/><path class="cls-6" d="M27.29,202.7c0,1.55-17.93,7.78-23.93,7.78S-7.5,207-7.5,202.7s4.86-7.78,10.86-7.78S27.29,200.94,27.29,202.7Z"/><path class="cls-6" d="M28.94,205.89c-.4-.56-11.29,3.82-13.44,5.36s-3,4.05-1.89,5.59,3.74,1.54,5.89,0S29.4,206.52,28.94,205.89Z"/><path class="cls-6" d="M28.94,200.05c-.4.56-11.29-3.82-13.44-5.36s-3-4.05-1.89-5.59,3.74-1.54,5.89,0S29.4,199.42,28.94,200.05Z"/><circle class="cls-6" cx="32.32" cy="202.7" r="2.6"/><path class="cls-6" d="M40.33,211c1.2.16,2.85,1.25,2.72,2.32s-2,1.72-3.21,1.57a5.43,5.43,0,0,1-3.44-2.41A5.29,5.29,0,0,1,40.33,211Z"/><path class="cls-6" d="M43.16,204.69c1.15.4,2.53,1.81,2.17,2.83s-2.31,1.27-3.46.87A5.47,5.47,0,0,1,39,205.31,5.28,5.28,0,0,1,43.16,204.69Z"/><path class="cls-6" d="M34.78,189.8c-.69,1-1,3-.08,3.58S37.32,193,38,192a5.39,5.39,0,0,0,.49-4.16A5.23,5.23,0,0,0,34.78,189.8Z"/><path class="cls-6" d="M39,194.33c-.88.84-1.55,2.7-.8,3.48s2.63.18,3.51-.66a5.42,5.42,0,0,0,1.32-4A5.22,5.22,0,0,0,39,194.33Z"/><path class="cls-6" d="M46,196.49c-1.13.45-2.45,1.93-2,2.93s2.38,1.16,3.51.7a5.42,5.42,0,0,0,2.71-3.2A5.24,5.24,0,0,0,46,196.49Z"/><path class="cls-6" d="M57.44,215.47c.55-1.09.57-3.06-.4-3.55-.43-.22-2.39.4-3.09,1.79A5.43,5.43,0,0,0,54,217.9,5.28,5.28,0,0,0,57.44,215.47Z"/><path class="cls-6" d="M60.36,195.12c.81.9,1.34,2.81.54,3.53-.36.33-2.41.24-3.45-.91a5.42,5.42,0,0,1-1-4.07A5.23,5.23,0,0,1,60.36,195.12Z"/><path class="cls-6" d="M40.76,201.54a23.35,23.35,0,0,0,10.75,1.16c-5.29,3.59-7.94,10-7.54,14.76,0,.3.22.57.58.51a.52.52,0,0,0,.47-.51c-.48-5.15,2.86-12.27,9.34-15.16a17.71,17.71,0,0,1,9.75-.93A8.18,8.18,0,0,0,60.42,203a9.38,9.38,0,0,0-3.59,6.81c0,.23.09.66.45.69.54,0,.58-.43.59-.64a8.35,8.35,0,0,1,3.18-6,7.66,7.66,0,0,1,6.86-1.18c.38.2.75.52,1.09.1s-.16-.78-.43-.93l-.25-.13,0,0c-3.51-1.83-9.29-2.16-13.47-.63l-.16.06c-2.9.9-9.15,1.36-13.48-.47-5.68-2.4-8.65-6.49-8.84-12.16a.53.53,0,0,0-.51-.58c-.45,0-.54.43-.53.65C31.5,194.58,34.68,199,40.76,201.54Z"/><path class="cls-6" d="M54.07,210c1.07-.58,2.2-2.2,1.69-3.15a3.5,3.5,0,0,0-3.57-.28,5.44,5.44,0,0,0-2.31,3.5A5.26,5.26,0,0,0,54.07,210Z"/><circle class="cls-6" cx="97.43" cy="202.86" r="1.88"/><ellipse class="cls-6" cx="97.29" cy="194.64" rx="1.73" ry="5.35"/><ellipse class="cls-6" cx="97.43" cy="211.45" rx="1.73" ry="5.35"/><ellipse class="cls-6" cx="89.1" cy="202.86" rx="5.35" ry="1.73"/><ellipse class="cls-6" cx="88.89" cy="194.27" rx="1.63" ry="9.08" transform="translate(-111.66 120.64) rotate(-45.25)"/><ellipse class="cls-6" cx="88.89" cy="211.64" rx="9.08" ry="1.63" transform="translate(-123.23 123.91) rotate(-44.75)"/><ellipse class="cls-6" cx="106.19" cy="202.92" rx="5.35" ry="1.73"/><ellipse class="cls-6" cx="106.4" cy="194.32" rx="9.08" ry="1.63" transform="translate(-105.97 131.22) rotate(-44.75)"/><ellipse class="cls-6" cx="106.4" cy="211.69" rx="1.63" ry="9.08" transform="translate(-118.85 138.23) rotate(-45.25)"/><path class="cls-6" d="M210.45,203c0,.43,7.14,2.15,8.79,2.14s3-1,3-2.16-1.35-2.14-3-2.13S210.45,202.52,210.45,203Z"/><circle class="cls-6" cx="207.22" cy="202.99" r="1.71"/><path class="cls-6" d="M209.52,200.83c.28.32,6.77-3.11,8-4.2s1.6-2.71.82-3.6-2.43-.71-3.67.39S209.2,200.46,209.52,200.83Z"/><path class="cls-6" d="M207.32,199.76c.43,0,2.18-7.12,2.18-8.77s-1-3-2.14-3-2.15,1.34-2.15,3S206.84,199.76,207.32,199.76Z"/><path class="cls-6" d="M209.44,205.16c.29-.32,6.77,3.1,8,4.2s1.6,2.71.81,3.59-2.42.72-3.66-.38S209.12,205.52,209.44,205.16Z"/><path class="cls-6" d="M207.25,206.23c.43,0,2.18,7.12,2.18,8.77s-1,3-2.15,3-2.14-1.35-2.14-3S206.76,206.23,207.25,206.23Z"/><path class="cls-6" d="M167.74,202.78c0,1.55,17.94,7.78,23.94,7.78s10.86-3.48,10.86-7.78S197.68,195,191.68,195,167.74,201,167.74,202.78Z"/><path class="cls-6" d="M166.09,206c.4-.55,11.3,3.82,13.45,5.37s3,4,1.89,5.58-3.75,1.54-5.9,0S165.64,206.6,166.09,206Z"/><path class="cls-6" d="M166.09,200.13c.4.56,11.3-3.82,13.45-5.36s3-4.05,1.89-5.59-3.75-1.53-5.9,0S165.64,199.5,166.09,200.13Z"/><circle class="cls-6" cx="162.72" cy="202.78" r="2.6"/><path class="cls-6" d="M154.71,211.07c-1.21.15-2.86,1.24-2.72,2.31s2,1.72,3.21,1.57a5.43,5.43,0,0,0,3.43-2.4A5.18,5.18,0,0,0,154.71,211.07Z"/><path class="cls-6" d="M151.88,204.77c-1.15.4-2.54,1.82-2.18,2.84s2.32,1.26,3.47.86A5.4,5.4,0,0,0,156,205.4,5.2,5.2,0,0,0,151.88,204.77Z"/><path class="cls-6" d="M160.26,189.89c.69,1,1,3,.08,3.57s-2.62-.35-3.31-1.35a5.46,5.46,0,0,1-.49-4.17A5.25,5.25,0,0,1,160.26,189.89Z"/><path class="cls-6" d="M156.05,194.41c.88.85,1.55,2.71.8,3.48s-2.64.19-3.51-.65a5.44,5.44,0,0,1-1.32-4A5.28,5.28,0,0,1,156.05,194.41Z"/><path class="cls-6" d="M149.07,196.57c1.13.46,2.45,1.93,2,2.93s-2.37,1.16-3.5.71A5.42,5.42,0,0,1,144.9,197,5.28,5.28,0,0,1,149.07,196.57Z"/><path class="cls-6" d="M137.59,215.55c-.55-1.08-.56-3.06.4-3.55.44-.22,2.39.4,3.1,1.79A5.43,5.43,0,0,1,141,218,5.19,5.19,0,0,1,137.59,215.55Z"/><path class="cls-6" d="M134.67,195.2c-.81.91-1.34,2.81-.53,3.53.36.33,2.41.25,3.45-.91a5.41,5.41,0,0,0,1-4.07A5.26,5.26,0,0,0,134.67,195.2Z"/><path class="cls-6" d="M154.27,201.62a23.21,23.21,0,0,1-10.75,1.16c5.3,3.59,7.95,10,7.54,14.76a.49.49,0,0,1-.58.51.5.5,0,0,1-.46-.5c.48-5.16-2.86-12.28-9.34-15.17a17.74,17.74,0,0,0-9.76-.93,8.33,8.33,0,0,1,3.7,1.59,9.41,9.41,0,0,1,3.58,6.82c0,.22-.09.65-.45.68-.53.05-.57-.42-.59-.64a8.3,8.3,0,0,0-3.17-6,7.67,7.67,0,0,0-6.86-1.18c-.39.2-.76.53-1.1.1s.16-.78.44-.93l.25-.13,0,0c3.5-1.84,9.28-2.17,13.47-.63l.16.06c2.9.9,9.14,1.35,13.48-.48,5.68-2.4,8.65-6.49,8.83-12.16a.53.53,0,0,1,.52-.57c.44,0,.53.43.52.64C163.54,194.66,160.35,199.05,154.27,201.62Z"/><path class="cls-6" d="M141,210.07c-1.06-.59-2.2-2.21-1.68-3.15.23-.43,2.2-1,3.56-.29a5.47,5.47,0,0,1,2.32,3.5A5.22,5.22,0,0,1,141,210.07Z"/><circle class="cls-6" cx="29.02" cy="232.32" r="1.91"/><circle class="cls-6" cx="29.02" cy="240.07" r="1.91"/><circle class="cls-6" cx="72.06" cy="232.37" r="1.91"/><circle class="cls-6" cx="72.06" cy="240.13" r="1.91"/><path class="cls-6" d="M-1.19,229.81c-1.13.45-2.45,1.93-2,2.93s2.37,1.15,3.5.7A5.42,5.42,0,0,0,3,230.24,5.24,5.24,0,0,0-1.19,229.81Z"/><path class="cls-6" d="M10.29,248.79c.55-1.09.56-3.07-.4-3.55-.44-.22-2.39.39-3.1,1.78a5.45,5.45,0,0,0,.08,4.2A5.27,5.27,0,0,0,10.29,248.79Z"/><path class="cls-6" d="M13.2,228.44c.82.9,1.35,2.81.54,3.53a3.48,3.48,0,0,1-3.45-.92,5.39,5.39,0,0,1-1-4.06A5.23,5.23,0,0,1,13.2,228.44Z"/><path class="cls-6" d="M-6.39,234.86A23.32,23.32,0,0,0,4.36,236c-5.3,3.59-7.95,10-7.54,14.75,0,.31.21.58.58.52a.51.51,0,0,0,.46-.51c-.48-5.16,2.86-12.27,9.34-15.16a17.74,17.74,0,0,1,9.76-.93,8.31,8.31,0,0,0-3.7,1.58,9.45,9.45,0,0,0-3.59,6.82c0,.23.1.66.46.69.53.05.57-.43.59-.64a8.34,8.34,0,0,1,3.17-6,7.7,7.7,0,0,1,6.86-1.17c.39.2.76.52,1.1.1s-.17-.79-.44-.93l-.25-.13,0,0c-3.51-1.83-9.28-2.16-13.47-.63l-.16.06c-2.9.9-9.14,1.36-13.48-.47-5.68-2.4-8.65-6.49-8.83-12.17a.54.54,0,0,0-.52-.57c-.44,0-.53.43-.52.64C-15.66,227.9-12.47,232.29-6.39,234.86Z"/><path class="cls-6" d="M6.92,243.3c1.06-.58,2.2-2.2,1.68-3.15A3.48,3.48,0,0,0,5,239.87a5.47,5.47,0,0,0-2.32,3.5A5.28,5.28,0,0,0,6.92,243.3Z"/><circle class="cls-6" cx="50.28" cy="236.18" r="1.88"/><ellipse class="cls-6" cx="50.13" cy="227.95" rx="1.73" ry="5.35"/><ellipse class="cls-6" cx="50.28" cy="244.77" rx="1.73" ry="5.35"/><ellipse class="cls-6" cx="41.95" cy="236.18" rx="5.35" ry="1.73"/><ellipse class="cls-6" cx="41.73" cy="227.59" rx="1.63" ry="9.08" transform="translate(-149.28 97.01) rotate(-45.25)"/><ellipse class="cls-6" cx="41.73" cy="244.96" rx="9.08" ry="1.63" transform="translate(-160.35 100.37) rotate(-44.75)"/><ellipse class="cls-6" cx="59.03" cy="236.24" rx="5.35" ry="1.73"/><ellipse class="cls-6" cx="59.24" cy="227.64" rx="9.08" ry="1.63" transform="translate(-143.09 107.68) rotate(-44.75)"/><ellipse class="cls-6" cx="59.24" cy="245.01" rx="1.63" ry="9.08" transform="translate(-156.47 114.6) rotate(-45.25)"/><path class="cls-6" d="M163.3,236.32c0,.43,7.13,2.14,8.78,2.14s3-1,3-2.16-1.35-2.14-3-2.13S163.3,235.84,163.3,236.32Z"/><circle class="cls-6" cx="160.06" cy="236.31" r="1.71"/><path class="cls-6" d="M162.36,234.15c.29.32,6.77-3.11,8-4.21s1.6-2.7.81-3.59-2.43-.71-3.66.39S162,233.78,162.36,234.15Z"/><path class="cls-6" d="M160.17,233.08c.42,0,2.17-7.12,2.17-8.77s-1-3-2.14-3-2.15,1.34-2.15,3S159.68,233.08,160.17,233.08Z"/><path class="cls-6" d="M162.29,238.48c.28-.32,6.77,3.1,8,4.2s1.6,2.71.82,3.59-2.43.71-3.67-.38S162,238.84,162.29,238.48Z"/><path class="cls-6" d="M160.09,239.54c.43,0,2.18,7.13,2.18,8.78s-1,3-2.14,3-2.15-1.34-2.15-3S159.61,239.54,160.09,239.54Z"/><path class="cls-6" d="M120.59,236.1c0,1.55,17.93,7.78,23.93,7.78s10.86-3.48,10.86-7.78-4.86-7.78-10.86-7.78S120.59,234.34,120.59,236.1Z"/><path class="cls-6" d="M118.93,239.29c.4-.55,11.3,3.82,13.45,5.37s3,4,1.89,5.58-3.74,1.54-5.9,0S118.48,239.92,118.93,239.29Z"/><path class="cls-6" d="M118.93,233.45c.4.56,11.3-3.82,13.45-5.36s3-4.05,1.89-5.59-3.74-1.54-5.9,0S118.48,232.82,118.93,233.45Z"/><circle class="cls-6" cx="115.56" cy="236.1" r="2.6"/><path class="cls-6" d="M107.55,244.39c-1.2.15-2.85,1.24-2.72,2.31s2,1.72,3.21,1.57a5.43,5.43,0,0,0,3.44-2.41A5.26,5.26,0,0,0,107.55,244.39Z"/><path class="cls-6" d="M104.72,238.09c-1.15.4-2.53,1.82-2.18,2.84s2.32,1.26,3.47.86a5.46,5.46,0,0,0,2.86-3.07A5.23,5.23,0,0,0,104.72,238.09Z"/><path class="cls-6" d="M113.1,223.21c.69,1,1,2.95.08,3.57s-2.62-.35-3.3-1.36a5.41,5.41,0,0,1-.5-4.16A5.25,5.25,0,0,1,113.1,223.21Z"/><path class="cls-6" d="M108.89,227.73c.88.84,1.55,2.7.8,3.48s-2.63.19-3.51-.66a5.41,5.41,0,0,1-1.32-4A5.22,5.22,0,0,1,108.89,227.73Z"/><path class="cls-6" d="M101.91,229.89c1.13.46,2.45,1.93,2,2.93s-2.38,1.16-3.51.7a5.42,5.42,0,0,1-2.71-3.2A5.24,5.24,0,0,1,101.91,229.89Z"/><path class="cls-6" d="M90.43,248.87c-.54-1.08-.56-3.06.41-3.55.43-.22,2.39.4,3.09,1.79a5.43,5.43,0,0,1-.08,4.19A5.25,5.25,0,0,1,90.43,248.87Z"/><path class="cls-6" d="M87.52,228.52c-.81.91-1.35,2.81-.54,3.53.36.33,2.41.25,3.45-.91a5.42,5.42,0,0,0,1-4.07A5.23,5.23,0,0,0,87.52,228.52Z"/><path class="cls-6" d="M107.11,234.94a23.32,23.32,0,0,1-10.75,1.16c5.3,3.59,8,10,7.55,14.76a.5.5,0,0,1-.59.51.52.52,0,0,1-.46-.5c.48-5.16-2.86-12.28-9.34-15.17a17.72,17.72,0,0,0-9.75-.93,8.18,8.18,0,0,1,3.69,1.59,9.38,9.38,0,0,1,3.59,6.81c0,.23-.09.66-.45.69-.54,0-.58-.43-.59-.64a8.35,8.35,0,0,0-3.18-6A7.66,7.66,0,0,0,80,236c-.38.2-.75.53-1.09.1s.16-.78.43-.93l.25-.13,0,0c3.51-1.84,9.29-2.17,13.47-.63l.16.06c2.9.9,9.15,1.35,13.48-.48,5.68-2.4,8.65-6.49,8.84-12.16a.51.51,0,0,1,.51-.57c.45,0,.53.43.53.64C116.38,228,113.2,232.37,107.11,234.94Z"/><path class="cls-6" d="M93.8,243.39c-1.06-.59-2.19-2.21-1.68-3.16a3.49,3.49,0,0,1,3.56-.28,5.43,5.43,0,0,1,2.32,3.5A5.22,5.22,0,0,1,93.8,243.39Z"/></g></g><rect class="cls-7" width="246.29" height="246.29"/><path class="cls-3" d="M79.64,130.17l5.6-2.7A78.56,78.56,0,0,1,90.13,142c7.53-8.58,10.51-13.44,15.89-26.35a15,15,0,0,1-5.1-5.39s1.59-1.84,3.06-3.75a53.59,53.59,0,0,0,15.21,7.66L118.11,120a16.42,16.42,0,0,1-6.87-1.41c-3.74,13.25-10,24.69-18.22,32-.32.28,2,3.73,5.94,7.34-2.18,2.24-5.32,5.41-5.32,5.41-6.57-4.39-8-12.15-9.22-18-.38-1.74-1.88-6.88-2.57-8.69S79.71,130.6,79.64,130.17Z"/><path class="cls-8" d="M134,74.11a20.91,20.91,0,0,1,.59-6.24c14.92,11.42,29.45,13.92,29.45,13.92a9.35,9.35,0,0,0,1.39,5.45s-16.83,1.85-16.85,2c1.38.32,18.71,6.3,19.9,7.51,0,0,3.66,7.23,3.62,7.56-8.26-5.1-26.16-10.77-35-12.89-.32,1.17-.82,3.11-1.11,4.16a25.37,25.37,0,0,0-5.28-.14c.81-3.64,1.12-4.66,2.07-7.94.22-.77.57-1.66.57-1.66,13.91-1.88,19.38-2.07,19-2.18C148.06,82.32,136.47,76.21,134,74.11Z"/><path class="cls-8" d="M147.12,66a22.19,22.19,0,0,1,3.45-6.05,21.74,21.74,0,0,0,3.72,3.7,14.84,14.84,0,0,0-2.18,4.93,20.19,20.19,0,0,0,5.33,2c.5-3.6,1.12-4.42,1.12-4.42a20.4,20.4,0,0,0,5,1.07,18.64,18.64,0,0,0-.67,5,17.66,17.66,0,0,0,.15,2.13,12.38,12.38,0,0,0,.25,1.39c.08.34.18.72.31,1.18a6.6,6.6,0,0,0,.28.85c-1.3-.28-9.41-1.94-16-5.43-4.51-2.4-10.84-7.3-12.32-9.1,0,0,1.9-3.44,3.36-5.53a61.36,61.36,0,0,1,7.16-8,21.85,21.85,0,0,0,1.65,5.6c-.28.27-3.92,3.79-5.25,7.11A24.66,24.66,0,0,0,147.12,66Z"/><path class="cls-2" d="M113.53,201.32c2.47,1.37,4.77,2.84,7.54,3a37.61,37.61,0,0,0,4.86-.12c.73,0,1.42-.25,1.77.69,0,.15.42.2.65.26a4.51,4.51,0,0,0,.89.17,1.17,1.17,0,0,1,1.19,1.14,1.26,1.26,0,0,1-.68,1.41,8.94,8.94,0,0,1-5.45,1.1,23.66,23.66,0,0,1-8-3,19.05,19.05,0,0,0-5.6-2c-.83-.14-1.7-.09-2.54-.2a1.84,1.84,0,0,1-1.77-1.6c0-.86.67-1.55,1.81-1.73a9.45,9.45,0,0,1,1.07-.08c.35,0,.71,0,1.06,0,1.09-1.54,1.37-3.33,1.94-5a39.65,39.65,0,0,0,1.9-10.47c0-1.48-.14-1.62-.15-2.42a1.39,1.39,0,0,1,1.32-1.6c1-.15,1.28.43,1.64,1.93a15.2,15.2,0,0,1,.2,5,47.86,47.86,0,0,1-2.59,10.6C114.3,199.44,113.91,200.36,113.53,201.32Z"/><path class="cls-2" d="M155.68,187a2.59,2.59,0,0,0-1.3,0c-1.31.27-1.94,1.4-2.73,2.39-.26-.12-.48-.24-.71-.33-1.31-.51-1.86-.19-2.15,1.19s-1.32,4.19-2.79,5.47a6.67,6.67,0,0,1-5.4,1.56c-1.48-9.39-7.12-22.83-10.86-27.37-.21-.26-1-1.44-1.89-1.44a1.45,1.45,0,0,0-1.45,1.45,2.28,2.28,0,0,0,.7,1.41c4.08,4.95,8.74,15.31,10.67,25.85-2.87.5-3.11,1.08-3,1.92.08.62.54,1.2,1.92,1.2,1.63,0,3.26,0,4.89-.13a11.06,11.06,0,0,0,7.88-3.81c2.17-2.44,4.41-4.81,6.64-7.2C157.05,188.16,157,187.51,155.68,187Z"/><path class="cls-8" d="M175.45,117.23c-1.11-4.79-2.41-8.57-4.64-10.51-4.42-3.83-11.46-2-13.12,2.92-1.27,3.77,2,15.67,2.71,24.06.59,7.08-.41,12.09-1.23,17.09-.86,5.22,1.08,9.64,7.36,9.41,6.62-.25,8.43-4.5,10.22-16.91A74,74,0,0,0,175.45,117.23Zm-3.24,15.27c-.27,11.81-1.55,16.59-1.81,17.62-.17.68-1,5.13-3.69,5.13a2.38,2.38,0,0,1-2.37-2.37,46.2,46.2,0,0,1,.7-4.73c1.1-5.17,1.39-16.93-2.07-33.17-.49-2.29-.71-4.31,2.14-4.81a3.46,3.46,0,0,1,3.61,2.29C171.57,119.82,172.27,130.21,172.21,132.5Z"/><path class="cls-8" d="M167.18,60.9a11.26,11.26,0,0,0,.92-1.29,6.91,6.91,0,0,0,.75-1.8c0-.08.05-.17.08-.27s0-.21.06-.3a6.05,6.05,0,0,0,.11-.66c0-.19.05-.38.07-.67,0-.14,0-.39,0-.49s0-.31,0-.41,0-.2,0-.31,0-.21,0-.26a9,9,0,0,0-.23-1.17,6.67,6.67,0,0,0-.23-.72c-.09-.21-.18-.43-.29-.65a6,6,0,0,0-.42-.76c-.06-.11-.17-.26-.24-.37l-.24-.33-.21-.26-.33-.38-.39-.38c-.09-.09-.23-.21-.39-.34l-.31-.25c-.23-.16-.42-.29-.65-.43a7.17,7.17,0,0,0-.67-.37,8.7,8.7,0,0,0-.85-.36,8.13,8.13,0,0,0-1.29-.33,10.07,10.07,0,0,0-1.26-.14c-.22,0-.45,0-.63,0s-.49,0-.76.08l-.58.1c-.23,0-.49.11-.71.18s-.84.35-.88.36a3.35,3.35,0,0,1-1.36.44H156l-.15,0a3.29,3.29,0,0,1-2.82-1.61l0,0a2.17,2.17,0,0,1-.12-.23,1.36,1.36,0,0,1-.1-.21.59.59,0,0,0,0-.08c0-.1-.07-.24-.1-.38s0-.1,0-.15h0c0-.12,0-.37,0-.54h0s0,0,0,0,0,0,0-.05a3.83,3.83,0,0,1,0-.53,4.94,4.94,0,0,1,.15-.56,2.83,2.83,0,0,1,.16-.36c0-.07.19-.33.25-.41a2.79,2.79,0,0,1,.35-.42,2.25,2.25,0,0,1,.57-.45,3.8,3.8,0,0,1,.42-.22l.11-.05a2.63,2.63,0,0,1,.62-.2,3.48,3.48,0,0,1,1.16,0,2.57,2.57,0,0,1,.69.19,4.26,4.26,0,0,1,.69.38,2.68,2.68,0,0,1,.38.32,2.33,2.33,0,0,1,.38.44c.12.17.23.37.26.41.13-.35,3.38-3.08,3.73-3.44a10.35,10.35,0,0,0-1.18-1.27,9.7,9.7,0,0,0-1.74-1.19c-.23-.11-.75-.33-1-.43a8.17,8.17,0,0,0-.86-.25,7,7,0,0,0-.94-.15,6.64,6.64,0,0,0-1.83,0,8.11,8.11,0,0,0-2.48.66A9.81,9.81,0,0,0,150.25,39c-.14.14-.43.42-.7.73a7.87,7.87,0,0,0-.64.85,5.27,5.27,0,0,0-.42.76,7.56,7.56,0,0,0-.62,1.6,7.25,7.25,0,0,0-.19.85c0,.24-.06.6-.08.89a5.89,5.89,0,0,0,0,1,10.56,10.56,0,0,0,.16,1.22,6.53,6.53,0,0,0,.23.82,4.62,4.62,0,0,0,.23.62,4.51,4.51,0,0,0,.25.55,5.35,5.35,0,0,0,.33.57q.12.19.36.54a3.14,3.14,0,0,0,.29.38c.15.14.27.31.41.47s.42.41.71.66a11.11,11.11,0,0,0,1,.74,8.8,8.8,0,0,0,1.07.54,11.48,11.48,0,0,0,1.19.4,7.55,7.55,0,0,0,1.11.19,6.94,6.94,0,0,0,1.37,0,11.72,11.72,0,0,0,1.48-.21,20.14,20.14,0,0,1,3-.93H161a3.54,3.54,0,0,1,.46,0,4.37,4.37,0,0,1,.57.17,2.72,2.72,0,0,1,.46.21,3.23,3.23,0,0,1,.43.29,2.52,2.52,0,0,1,.35.33,2.35,2.35,0,0,1,.33.41,2.47,2.47,0,0,1,.29.53s0,0,0,0,0,0,0,.05a2.21,2.21,0,0,1,.15.5.5.5,0,0,1,0,.13.06.06,0,0,0,0,0,3.4,3.4,0,0,1,0,.45.51.51,0,0,1,0,.13c0,.07,0,.14,0,.21v0a1.1,1.1,0,0,0,0,.18,3.3,3.3,0,0,1-6.25,1c-.28.25-3.68,3.25-3.81,3.32.09.07.21.29.58.7a8.7,8.7,0,0,0,.86.86,8.38,8.38,0,0,0,1.1.78,6.32,6.32,0,0,0,1.25.61,7.11,7.11,0,0,0,.89.29,11.45,11.45,0,0,0,1.19.21,6.56,6.56,0,0,0,.79.05c.43,0,.81,0,.85,0l.74.14a11.57,11.57,0,0,1,1.35.41c2.38.9,4.31.37,6.79.62a3.85,3.85,0,0,0,1.71-.25Z"/><path class="cls-2" d="M155.7,130.72l-12.24.33c0,1.73,0,4.7-.1,6.43l5.48.21a97.32,97.32,0,0,1-1.22,16.5c-.7,4.29-1.51,10.61-6.27,10-3.74-.5-2.66-5.52-2.3-11.25.2-3.09.91-18.79.06-29.59-.36-4.63-1.47-13.25-1.47-13.94a4.63,4.63,0,0,1,.43-2.22,4.32,4.32,0,0,1,3.75-2.35c4.74-.15,5.35,5,6,8.62.26,1.44.78,6.87,1.13,12l6.51-.1c0-6.72-2-18.86-4.54-22.57-2.11-3.11-5.36-4.5-9.46-4.31s-5.45,1.1-6.9,2.38a11,11,0,0,0-3.34,9.28c2.15,21.9,2.63,27,.94,44.89-1,10.65,2.3,15.27,8.76,15.68a10,10,0,0,0,9.7-4.87C155.78,156.94,155.9,131.4,155.7,130.72Z"/><path class="cls-2" d="M119,150.56c.66-2.95,1.24-6,1.74-9.19a165.27,165.27,0,0,0,1.36-33.4c0-.29-7.43-1-9.34-1.49l1.48-6.39c6,1.13,12.37-1.53,12.37-1.53,3.18,7.17,4,26.89,1.13,45.51-2.49,15.92-7.25,29.55-11.66,36.13l-5-5.28c1.7-6.16,2-15,1.12-19.13L103,171.89c-1,0-6.76-4.14-6.76-4.14,14.06-23,12.77-28.15,15.52-39.9,0-.09.09-.37.07-.28-.07.28,5.33,2,5.33,2s2,20.12,1.81,21"/><g class="cls-9"><path class="cls-2" d="M119.52,134.9c2.75-13.43,3.27-11.13.72-24.77-2.06-.53-2.77-1.25-4.69-1.75-.64-.16-1.27-.36-1.92-.53s-2.67-.5-2.55-1.21c.17-.91-.18-2.53,0-3.43.12-.61,1.73-3.39,1.83-4,.35-2.09,1.15-.87,3.18-.65A19.14,19.14,0,0,0,122.8,98c.78-.19,1.62.82,2.36.49.93-.42,2.56-2.88,2.91-1.93s1.06,4.4,1.24,5.35c.49,2.61.58,6.78.83,9.42a123.72,123.72,0,0,1,.57,15.16c-.07,2.6.14,5,0,7.62-.08,1.52.25,4.2,0,5.72-.23,1.71-.9,1.09-1.23,2.79-.51,2.59-.34,6.44-.91,9-.31,1.45-.4,2.49-.79,3.91-1.4,5.06.44,9.44-1.43,14.35-1,2.72-5.85,6-6.88,8.72a33.39,33.39,0,0,1-1.08,3.91c-.65-.43-4.61-2.39-5-2.79-1.18-1.27-1.29.78-2.38-.56-2.8,2.74-2.53-4-2.41-4.4.82-2.3.49-5.27,1-7.59.71-3.34,1.19-2.59,1.13-5.89,0-.31.79-2,.73-2.35a6.21,6.21,0,0,1,0,.75c-3.06,5.37-.92,12.42-4,17.8-1.56.43-6.59-.89-8-1.43-1.18-.47-6.3-6.4-6.72-7.62-.11-.34,2.42-4.38,2.64-4.74,1.57-2.62,3-1.8,4.55-4.41.13-.22-.06-3.91.1-4.11,1.37-1.73,2.82-1.77,3.62-3.79s.42-4.11,1.15-6.07,1-5,1.51-7.1c.75-3.17,2.42-4.55,3-7.75.13-.7.74-1.44.79-2.15.09-1,1.67-2,2.65-1.84s1.91,1.57,2.88,1.85a2.2,2.2,0,0,1,1.6,1.87c.7,4.13,2,6,2.13,10.17C119.64,143,119.3,132.31,119.52,134.9Z"/></g><path class="cls-3" d="M99.58,100.19c-2.4,2.46-3.82,4.88-6.54,6.94,0,0-.43-3.63-.58-7.17-.44-10.57-9-19.21-18.9-19.21-.08,0,13.35,8.43,12.41,25.08-.09,1.48-.28,5.22-.28,5.22a39.52,39.52,0,0,1-9,3.71c.75,2.33.64,7.44.64,7.44a32.93,32.93,0,0,0,9.79-4.81s2.29,10.45,6.72,15l4.47-6.58c-4.23-7.11-4.2-11.59-4.2-11.59a46.59,46.59,0,0,0,8.78-10.39A45.8,45.8,0,0,1,99.58,100.19Z"/><g class="cls-10"><path class="cls-3" d="M85.87,123c-1.33,1-1.28-1.27-2.54-.43-1.69,1.13-6,3.54-6.29,3.39s-4.5-2.5-4.49-5.11c0-3.55-2.39-3.67-2.43-4.84,0,0,10.49-6.7,10.62-6.8-.06-1.26,4-5.78,3.78-7.46A49.12,49.12,0,0,0,83,94.29c-.47-1.62-6-4.09-7-5.3a35.28,35.28,0,0,0-3-3.37c-1.19-1.18-.54-4.76-.76-4.87.26-1,3.89-1.22,4.75-1,3.58.9,6,1,9.12,3.37,2.64,2.09,8.65,5.19,9.48,8.48s3.32-2.81,3.81.56c.14.9-3.94,5.6-3.81,6.8,2.63-1.88,2.84-.25,5.54-2,.36.29,1.86,7,2.63,8.05,0,0-1.28,1.44-1.86,2s-1,6.37-2.5,7.66c-1.06.9-.33,2.17-1,2.7h0c.68,2.76,1.57,8.26,1.77,8.53-.35.75-.66,3.8-1.58,5.16s-4.6,2.27-4.6,2.27C93.46,132.65,86.5,130.46,85.87,123Z"/></g></g></svg>