<svg xmlns="http://www.w3.org/2000/svg" viewBox="0 0 612 364.6"><defs><style>.cls-1{fill:#ef3e2d;}.cls-1,.cls-2,.cls-3,.cls-4,.cls-5,.cls-6{stroke:#231f20;stroke-miterlimit:10;}.cls-1,.cls-2{stroke-width:2px;}.cls-2,.cls-4,.cls-6{fill:#fff;}.cls-3,.cls-5{fill:#238351;}.cls-3,.cls-4{stroke-width:1.5px;}</style></defs><title>web_xingones</title><g id="green"><path class="cls-1" d="M124.76,218H107.28a.75.75,0,0,1-.75-.75V120a.78.78,0,0,1,.19-.51l6.89-7.59a.76.76,0,0,1,.55-.24h17.48a.74.74,0,0,1,.75.75v97.24a.73.73,0,0,1-.19.5l-6.88,7.59A.77.77,0,0,1,124.76,218Z"/><path class="cls-1" d="M282.4,206.86a33.81,33.81,0,0,1-13.17,9.35,45.38,45.38,0,0,1-17.08,3.14q-15.85,0-24.63-10.5t-9-30.54V160.62q0-20.31,8.3-31.28a27,27,0,0,1,5.3-5.32.73.73,0,0,0,.17-.18c.46-.76,3.58-5.69,7.65-8.25s8.87-5.27,18.4-5.27c10,0,21.06,5.61,25.41,11.48s5.73,18.64,5.95,20.86a.75.75,0,0,1-.19.57l-6.86,7.56a.73.73,0,0,1-.56.25H265a.75.75,0,0,1-.74-.7q-.81-8.82-3.61-12.09-2.9-3.42-9.09-3.41a15,15,0,0,0-4.53.64.76.76,0,0,0-.48.46,25.47,25.47,0,0,0-1.2,4.33,99.14,99.14,0,0,0-1,18.45l.18,15.94c.42,11.3,4.5,17.42,10.28,19.34a26.38,26.38,0,0,0,8.17.8.76.76,0,0,0,.72-.75V182a.75.75,0,0,0-.75-.75H251.51a.76.76,0,0,1-.75-.75V166.58a.78.78,0,0,1,.19-.5l6.89-7.59a.73.73,0,0,1,.55-.25H289a.76.76,0,0,1,.75.75v39.53a.7.7,0,0,1-.2.5Z"/><path class="cls-1" d="M360.26,177.7q0,19.78-8.75,30.71t-24.28,10.94q-15.47,0-24.31-10.84t-9-30.34v-16.8q0-20.25,8.78-31.63t24.38-11.37q15.34,0,24.18,11.17t9,31.35Zm-18.63-16.47q0-13.29-3.54-19.78a12.61,12.61,0,0,0-21.91-.23q-3.54,6.24-3.66,19V177.7q0,12.9,3.6,19t11.11,6.11a11.72,11.72,0,0,0,10.8-6q3.54-6,3.6-18.53Z"/><path class="cls-1" d="M499.93,175.47H472.09a.76.76,0,0,0-.75.75v24.56a.76.76,0,0,0,.75.75h33.13a.73.73,0,0,1,.57.26l6.64,7.65a.75.75,0,0,1,0,1l-6.63,7.31a.73.73,0,0,1-.56.25h-51.7a.76.76,0,0,1-.76-.75V120a.74.74,0,0,1,.2-.51L459.8,112a.73.73,0,0,1,.68-.23l44.7,7.93a.79.79,0,0,1,.44.25l6.69,7.78a.76.76,0,0,1,0,1L505.66,136a.73.73,0,0,1-.55.25h-33a.75.75,0,0,0-.75.75v21.71a.76.76,0,0,0,.75.76h27.84a.76.76,0,0,1,.56.24l6.61,7.2a.75.75,0,0,1,0,1l-6.61,7.3A.8.8,0,0,1,499.93,175.47Z"/><path class="cls-1" d="M81.63,160.1l21-47.38a.75.75,0,0,0-.69-1H82.15a.76.76,0,0,0-.56.24l-7,7.7a.58.58,0,0,0-.15.25L68,137.56a.75.75,0,0,1-1.41,0l-9.31-25.4a.73.73,0,0,0-.7-.49H25.31a.78.78,0,0,0-.56.24l-6.69,7.39a.74.74,0,0,0-.09.9,18.73,18.73,0,0,0,8.43,7c2.91,1.11,5.07,3.28,7.52,5a.81.81,0,0,1,.25.3L50,168.15a.72.72,0,0,1,0,.61L28.5,216.94a.76.76,0,0,0,.69,1.06h20a.73.73,0,0,0,.56-.25l7-7.69a.92.92,0,0,0,.15-.25l6.67-18.38a.75.75,0,0,1,1.41,0l9.58,26.08a.76.76,0,0,0,.71.49H96a.73.73,0,0,0,.56-.25l6.75-7.44a.75.75,0,0,0,.13-.81L81.63,160.71A.81.81,0,0,1,81.63,160.1Z"/><path class="cls-1" d="M178.31,120V135.5a.75.75,0,0,0,.75.76h6.66a.74.74,0,0,1,.75.75v18.16a.75.75,0,0,1-1.44.29l-18.28-43.33a.75.75,0,0,0-.69-.46H139.63a.76.76,0,0,0-.55.24l-6.89,7.59a.78.78,0,0,0-.19.51V135.5a.75.75,0,0,0,.75.76h7.19a.75.75,0,0,1,.75.75v80.24a.76.76,0,0,0,.75.75h17.48a.73.73,0,0,0,.56-.25l6.88-7.59a.74.74,0,0,0,.2-.5V174.59a.75.75,0,0,1,1.44-.29l18.22,43.24a.74.74,0,0,0,.69.46h17.73a.73.73,0,0,0,.56-.25l6.88-7.59a.74.74,0,0,0,.2-.5V112.42a.75.75,0,0,0-.75-.75H185.94a.8.8,0,0,0-.56.24l-6.88,7.59A.78.78,0,0,0,178.31,120Z"/><path class="cls-1" d="M411.2,120V135.5a.76.76,0,0,0,.75.76h6.67a.75.75,0,0,1,.75.75v43.52a.75.75,0,0,1-1.45.29l-25.7-60.94v-.16h-.07l-18.81-7.85a.76.76,0,0,0-.85.19l-6.75,7.44a.78.78,0,0,0-.19.51V135.5a.75.75,0,0,0,.75.76h6.53a.74.74,0,0,1,.75.75v80.24a.76.76,0,0,0,.76.75h17.48a.73.73,0,0,0,.55-.25l6.85-7.55a.73.73,0,0,0,.19-.6L392.86,159a.75.75,0,0,1,1.44-.39l24.81,58.91a.75.75,0,0,0,.69.46h17.74a.73.73,0,0,0,.55-.25l6.86-7.56a.75.75,0,0,0,.19-.58l-7.27-73.32V120.22a.74.74,0,0,0-.46-.69L419,111.87a.74.74,0,0,0-.84.19l-6.75,7.44A.74.74,0,0,0,411.2,120Z"/><path class="cls-1" d="M571.63,118.5s-21-.13-26.66-.13q-12.69,0-20.93,7.52t-8.24,20a27.51,27.51,0,0,0,6.06,17.79q6.06,7.51,19.89,13.13,7.57,3.3,10.45,6.37t2.88,9.08q0,11-9.73,11-7,0-10.1-3.85t-3.1-12a.74.74,0,0,0-.3-.6l-10.48-7.45a.75.75,0,0,0-1,.11l-6.65,7.33a.82.82,0,0,0-.21.53,34.31,34.31,0,0,0,4.14,16.91,28.27,28.27,0,0,0,11.46,11.2,33.87,33.87,0,0,0,16.23,3.92q13.14,0,20.78-7.22t7.64-20q0-11.69-6.1-19.24t-19.54-12.76q-7.71-3.51-10.74-6.78a10.51,10.51,0,0,1-3-7.32,12,12,0,0,1,2.72-8.27,9.57,9.57,0,0,1,7.58-3.07l15.14,0c8.63,0,11.4-.54,14.19-1.7,6.29-2.61,6.67-9.28,12.18-12.47,4.53-2.62,7.57-8.74,7.57-9.21S573,118.5,573,118.5Z"/><path class="cls-2" d="M131.85,210H114.37a.55.55,0,0,1-.54-.55V112.21a.54.54,0,0,1,.54-.54h17.48a.54.54,0,0,1,.54.54V209.4A.55.55,0,0,1,131.85,210Z"/><path class="cls-2" d="M289.7,198.6a.57.57,0,0,1-.14.37,33.88,33.88,0,0,1-13,9.19,45.38,45.38,0,0,1-17.08,3.14q-15.85,0-24.63-10.5t-9-30.54V152.57q0-20.31,8.31-31.29t24.21-11q15,0,22.58,7.89t8.76,24.17a.56.56,0,0,1-.55.61h-17a.54.54,0,0,1-.53-.51q-.8-9-3.62-12.28t-9.1-3.41q-7.51,0-10.92,5.87t-3.54,18.7v17.82q0,13.42,3.76,19.54t12.34,6.11a15.31,15.31,0,0,0,8.91-2.37l1.64-1.21V173.77a.54.54,0,0,0-.55-.54H258.61a.55.55,0,0,1-.55-.55V158.79a.55.55,0,0,1,.55-.55h30.54a.55.55,0,0,1,.55.55Z"/><path class="cls-2" d="M367.56,169.65q0,19.77-8.74,30.71T334.53,211.3q-15.46,0-24.31-10.84t-9-30.34V153.31q0-20.25,8.78-31.62t24.38-11.37q15.34,0,24.18,11.17t9,31.35Zm-18.63-16.47q0-13.31-3.53-19.78a12.62,12.62,0,0,0-21.92-.23q-3.54,6.24-3.66,19v17.48q0,12.89,3.6,19t11.11,6.11a11.72,11.72,0,0,0,10.8-6q3.54-6,3.6-18.53Z"/><path class="cls-2" d="M507,167.42H479.19a.55.55,0,0,0-.55.55v25a.55.55,0,0,0,.55.55h33.13a.55.55,0,0,1,.55.54V209.4a.55.55,0,0,1-.55.55h-51.7a.55.55,0,0,1-.54-.55V112.21a.54.54,0,0,1,.54-.54H512.2a.54.54,0,0,1,.54.54v15.45a.54.54,0,0,1-.54.54h-33a.55.55,0,0,0-.55.55v22.13a.55.55,0,0,0,.55.54H507a.55.55,0,0,1,.54.55v14.91A.54.54,0,0,1,507,167.42Z"/><path class="cls-2" d="M81.59,160.18l21.16-47.75a.54.54,0,0,0-.49-.76H82.19a.54.54,0,0,0-.51.35L70,144a.55.55,0,0,1-1,0L57.07,111.67H26a.54.54,0,0,0-.46.84,18.58,18.58,0,0,0,8.18,6.66c2.93,1.11,5.1,3.3,7.57,5a.65.65,0,0,1,.18.22l15.89,35.76a.56.56,0,0,1,0,.44L35.68,209.18a.55.55,0,0,0,.5.77H56.49a.55.55,0,0,0,.51-.36L68.92,177a.55.55,0,0,1,1,0l12,32.6a.57.57,0,0,0,.52.36h20.31a.55.55,0,0,0,.5-.77L81.6,160.62A.52.52,0,0,1,81.59,160.18Z"/><path class="cls-2" d="M185.61,112.21v15.45a.54.54,0,0,0,.54.54h7.08a.55.55,0,0,1,.55.55V173.5a.55.55,0,0,1-1.05.21l-26.17-62H139.84a.54.54,0,0,0-.54.54v15.45a.54.54,0,0,0,.54.54h7.61a.55.55,0,0,1,.54.55V209.4a.55.55,0,0,0,.55.55H166a.55.55,0,0,0,.55-.55V148.18a.55.55,0,0,1,1.05-.21l26,61.64a.54.54,0,0,0,.5.34h17.66a.55.55,0,0,0,.55-.55V112.21a.55.55,0,0,0-.55-.54H186.15A.54.54,0,0,0,185.61,112.21Z"/><path class="cls-2" d="M418.5,112.21v15.45a.55.55,0,0,0,.55.54h7.07a.55.55,0,0,1,.55.55V173.5a.55.55,0,0,1-1.05.21l-26.1-62H373.39a.54.54,0,0,0-.54.54v15.45a.54.54,0,0,0,.54.54h6.95a.55.55,0,0,1,.55.55V209.4a.55.55,0,0,0,.54.55h17.48a.55.55,0,0,0,.54-.55V148.18a.55.55,0,0,1,1.05-.21l26,61.64a.53.53,0,0,0,.5.34h17.66a.55.55,0,0,0,.54-.55V112.21a.54.54,0,0,0-.54-.54H419.05A.55.55,0,0,0,418.5,112.21Z"/><path class="cls-2" d="M578.93,110.45s-21-.13-26.66-.13q-12.69,0-20.93,7.52t-8.24,19.95a27.51,27.51,0,0,0,6.06,17.79q6.06,7.51,19.89,13.12,7.58,3.31,10.45,6.38t2.88,9.08q0,11-9.73,11-7,0-10.1-3.84t-3.09-11.81a.55.55,0,0,0-.54-.55H521.39a.57.57,0,0,0-.56.57A34,34,0,0,0,525,196.18a28.27,28.27,0,0,0,11.46,11.2,33.92,33.92,0,0,0,16.23,3.92q13.14,0,20.78-7.23t7.64-20q0-11.68-6.09-19.24T555.43,152q-7.71-3.51-10.73-6.78a10.5,10.5,0,0,1-3-7.33,12,12,0,0,1,2.72-8.26,9.59,9.59,0,0,1,7.58-3.08c3.45,0,16.75,0,16.75,0,8.36,0,10.45-5.94,16.24-8.16a19.85,19.85,0,0,0,8.79-7.17.54.54,0,0,0-.46-.85Z"/><path class="cls-3" d="M419.11,281.83a7,7,0,0,0-1.48-4.83,16.78,16.78,0,0,0-5.38-3.4c-4.76-2-8.17-4.31-10.26-7a15,15,0,0,1-3.12-9.47,13.88,13.88,0,0,1,4.25-10.61,15.1,15.1,0,0,1,10.79-4,14.9,14.9,0,0,1,7.78,2,13.47,13.47,0,0,1,5.25,5.72c.61,1.22,3.56,2.92,5,3.71a.72.72,0,0,1,.17,1.12L429,258.48a.68.68,0,0,1-.5.22h-8.57a.71.71,0,0,1-.69-.7,8.73,8.73,0,0,0-1.4-4.89,4.77,4.77,0,0,0-4.09-1.92,4.85,4.85,0,0,0-3.9,1.64,6.49,6.49,0,0,0-1.4,4.4,5.69,5.69,0,0,0,1.56,3.89,17.65,17.65,0,0,0,5.52,3.6l0,0q6.93,2.76,10.06,6.78a16.15,16.15,0,0,1,3.14,10.24q0,6.83-3.94,10.66c-2.63,2.57-6.19,3.85-10.71,3.85a17,17,0,0,1-8.36-2.09,14.75,14.75,0,0,1-5.91-6,18.57,18.57,0,0,1-2.13-8.86.74.74,0,0,1,.2-.51l3.37-3.61a.69.69,0,0,1,.91-.08l4.85,3.69a.74.74,0,0,1,.27.57q.06,4.24,1.59,6.21c1.07,1.37,2.8,2.05,5.21,2.05Q419.11,287.68,419.11,281.83Z"/><path class="cls-3" d="M465.48,252.05H458.8a.74.74,0,0,0-.73.75V291a.73.73,0,0,1-.2.51l-3.58,3.83a.71.71,0,0,1-.52.23H445.2a.74.74,0,0,1-.73-.75v-42a.74.74,0,0,0-.72-.75H433.67a.73.73,0,0,1-.72-.74v-7.76a.74.74,0,0,1,.2-.51l3.58-3.83a.76.76,0,0,1,.53-.23h31.81a.74.74,0,0,1,.72.75v7.75a.75.75,0,0,1-.2.52L466,251.83A.75.75,0,0,1,465.48,252.05Z"/><path class="cls-3" d="M503.74,274.11q0,10.51-4.5,16.34t-12.52,5.82q-8,0-12.53-5.77t-4.62-16.14v-8.95q0-10.77,4.52-16.82a16.06,16.06,0,0,1,25-.11q4.56,5.94,4.62,16.68Zm-9.6-8.77q0-7.06-1.82-10.52a6.41,6.41,0,0,0-11.3-.13q-1.81,3.33-1.88,10.11v9.31q0,6.86,1.85,10.11a6.17,6.17,0,0,0,5.73,3.25,6,6,0,0,0,5.57-3.18q1.81-3.18,1.85-9.86Z"/><path class="cls-3" d="M525,276.44h-.76v14.67a.44.44,0,0,1-.11.29l-3.77,4a.39.39,0,0,1-.29.13h-9a.4.4,0,0,1-.4-.41V243.42a.44.44,0,0,1,.11-.29l3.7-3.95a.39.39,0,0,1,.43-.1l11,4.15a.27.27,0,0,0,.13,0q7.14,0,11,4.12T541,259.06c0,6.75-3.91,10.43-8.34,13.19a.42.42,0,0,0-.11.6L546.17,291a.41.41,0,0,1,0,.53l-3.64,3.89a.41.41,0,0,1-.29.13h-9.84a.41.41,0,0,1-.37-.27Zm-4.76-9.21a.41.41,0,0,0,.41.41h5a4.87,4.87,0,0,0,4.3-2.1,9.85,9.85,0,0,0,1.43-5.62q0-7.86-5.57-7.87h-5.19a.41.41,0,0,0-.41.41Z"/><path class="cls-3" d="M559.87,265.49a.4.4,0,0,0,.76,0L562.9,258l4.45-14.68a.42.42,0,0,1,.1-.17l3.7-4a.39.39,0,0,1,.51-.06l5.86,3.9a.42.42,0,0,1,.16.5l-12.53,32.89a.39.39,0,0,0,0,.26l3.9,14.33a.42.42,0,0,1-.1.4l-3.72,4a.41.41,0,0,1-.29.13H555.8a.41.41,0,0,1-.4-.41V276.66a.4.4,0,0,0,0-.15l-12.6-33a.42.42,0,0,1,.08-.44l3.59-3.83a.4.4,0,0,1,.51-.06l6,4a.38.38,0,0,1,.16.23Z"/><path class="cls-4" d="M423.11,277.56a7,7,0,0,0-1.48-4.83,16.78,16.78,0,0,0-5.38-3.4c-4.76-2-8.17-4.31-10.26-7a15,15,0,0,1-3.12-9.47,13.88,13.88,0,0,1,4.25-10.61,15.08,15.08,0,0,1,10.79-4,14.9,14.9,0,0,1,7.78,2,13.47,13.47,0,0,1,5.25,5.72,18.5,18.5,0,0,1,1.84,8.07.34.34,0,0,1-.33.34h-8.89a.32.32,0,0,1-.32-.33,9.07,9.07,0,0,0-1.41-5.26,4.78,4.78,0,0,0-4.09-1.92,4.85,4.85,0,0,0-3.9,1.64,6.49,6.49,0,0,0-1.4,4.4,5.69,5.69,0,0,0,1.56,3.89,17.59,17.59,0,0,0,5.53,3.61h0q6.93,2.76,10.07,6.78a16.15,16.15,0,0,1,3.14,10.24q0,6.83-3.94,10.66T418.1,292a17,17,0,0,1-8.36-2.09,14.69,14.69,0,0,1-5.91-6,18.53,18.53,0,0,1-2.13-8.78.38.38,0,0,1,.36-.38H411a.32.32,0,0,1,.32.33q.06,4.28,1.59,6.25c1.07,1.36,2.8,2,5.21,2Q423.11,283.41,423.11,277.56Z"/><path class="cls-4" d="M469.47,247.78H458.39a.33.33,0,0,0-.32.33V291a.32.32,0,0,1-.32.33h-9a.32.32,0,0,1-.32-.33V248.11a.32.32,0,0,0-.32-.33h-10.9a.29.29,0,0,1-.3-.3v-8.17a.32.32,0,0,1,.32-.33h32.2a.32.32,0,0,1,.32.33v8.14A.32.32,0,0,1,469.47,247.78Z"/><path class="cls-4" d="M507.74,269.84q0,10.52-4.5,16.34T490.72,292q-8,0-12.53-5.77t-4.62-16.14v-8.95q0-10.77,4.52-16.82a16.06,16.06,0,0,1,25-.11q4.56,5.94,4.62,16.68Zm-9.6-8.77q0-7.06-1.82-10.52a6.41,6.41,0,0,0-11.3-.13q-1.81,3.33-1.88,10.11v9.31c0,4.57.61,7.94,1.85,10.11a6.17,6.17,0,0,0,5.73,3.25,6,6,0,0,0,5.57-3.18q1.81-3.18,1.85-9.86Z"/><path class="cls-4" d="M528.75,272.17h-4.22a.33.33,0,0,0-.32.33V291a.32.32,0,0,1-.32.33H515a.33.33,0,0,1-.32-.33V239.31A.33.33,0,0,1,515,239h14.95q7.2,0,11.12,4.12T545,254.79q0,10.25-6.64,14.44a.32.32,0,0,0-.13.39l8.2,21.16v.5H536.32a.32.32,0,0,1-.3-.21l-7-18.69A.32.32,0,0,0,528.75,272.17ZM524.21,263a.33.33,0,0,0,.32.33h5.12a4.87,4.87,0,0,0,4.3-2.1,9.85,9.85,0,0,0,1.43-5.62q0-7.86-5.57-7.87h-5.28a.33.33,0,0,0-.32.33Z"/><path class="cls-4" d="M564.56,261.47l6.75-22.25a.32.32,0,0,1,.3-.24h9.72a.33.33,0,0,1,.29.45l-12.5,32.83a.43.43,0,0,0,0,.12V291a.32.32,0,0,1-.32.33h-9.06a.32.32,0,0,1-.32-.33V272.38a.43.43,0,0,0,0-.12l-12.53-32.83a.33.33,0,0,1,.29-.45h9.71a.33.33,0,0,1,.31.24l6.78,22.25A.32.32,0,0,0,564.56,261.47Z"/><path class="cls-5" d="M33.93,75.8H30.65a.17.17,0,0,0-.17.17V94.72a.16.16,0,0,1-.06.13L28.28,96.7a.21.21,0,0,1-.11,0H23.69a.17.17,0,0,1-.17-.17V76a.17.17,0,0,0-.17-.17H18a.17.17,0,0,1-.17-.18v-4a.19.19,0,0,1,.05-.13l2.15-1.84a.16.16,0,0,1,.11,0h15.9a.18.18,0,0,1,.17.18v4a.16.16,0,0,1-.06.13L34,75.75A.16.16,0,0,1,33.93,75.8Z"/><path class="cls-5" d="M53,96.74H48.5a.18.18,0,0,1-.17-.17V86.13a.17.17,0,0,0-.17-.17H43.81a.18.18,0,0,0-.17.17v8.59a.16.16,0,0,1-.06.13L41.44,96.7a.21.21,0,0,1-.11,0H36.86a.18.18,0,0,1-.17-.17V71.64a.16.16,0,0,1,.06-.13l2.15-1.84a.16.16,0,0,1,.11,0h4.46a.17.17,0,0,1,.17.18v9.84a.18.18,0,0,0,.17.17h4.35a.17.17,0,0,0,.17-.17v-8a.16.16,0,0,1,.06-.13l2.15-1.84a.16.16,0,0,1,.11,0H55.1a.18.18,0,0,1,.17.18V94.72a.16.16,0,0,1-.06.13L53.06,96.7A.21.21,0,0,1,53,96.74Z"/><path class="cls-5" d="M68.75,85.84H63.91a.18.18,0,0,0-.17.17v4.4a.17.17,0,0,0,.17.17h8.33a.18.18,0,0,1,.17.17v4a.16.16,0,0,1-.06.13L70.21,96.7a.25.25,0,0,1-.12,0H57a.18.18,0,0,1-.17-.17V71.64a.16.16,0,0,1,.06-.13L59,69.67a.18.18,0,0,1,.12,0h13.1a.18.18,0,0,1,.17.18v4a.16.16,0,0,1-.06.13l-2.15,1.84a.16.16,0,0,1-.11,0H63.91a.17.17,0,0,0-.17.17v3.67a.18.18,0,0,0,.17.17h7a.18.18,0,0,1,.17.17v3.85A.2.2,0,0,1,71,84L68.86,85.8A.15.15,0,0,1,68.75,85.84Z"/><path class="cls-6" d="M36.07,73.86H30.65a.18.18,0,0,0-.17.17v20.6a.16.16,0,0,1-.17.17H25.94a.16.16,0,0,1-.17-.17V74a.18.18,0,0,0-.17-.17H20.28a.16.16,0,0,1-.17-.17V69.8a.17.17,0,0,1,.17-.18H36.07a.18.18,0,0,1,.17.18v3.89A.17.17,0,0,1,36.07,73.86Z"/><path class="cls-6" d="M55.1,94.8H50.75a.17.17,0,0,1-.17-.17V84.2a.17.17,0,0,0-.17-.17h-6.6a.18.18,0,0,0-.17.17V94.63a.16.16,0,0,1-.17.17H39.11a.17.17,0,0,1-.17-.17V69.8a.18.18,0,0,1,.17-.18h4.36a.17.17,0,0,1,.17.18v9.84a.18.18,0,0,0,.17.17h6.6a.17.17,0,0,0,.17-.17V69.8a.18.18,0,0,1,.17-.18H55.1a.18.18,0,0,1,.17.18V94.63A.17.17,0,0,1,55.1,94.8Z"/><path class="cls-6" d="M70.9,83.91h-7a.17.17,0,0,0-.17.17v6.33a.17.17,0,0,0,.17.17h8.33a.18.18,0,0,1,.17.17v3.88a.17.17,0,0,1-.17.17h-13a.17.17,0,0,1-.17-.17V69.8a.18.18,0,0,1,.17-.18h13a.18.18,0,0,1,.17.18v3.89a.17.17,0,0,1-.17.17h-8.3a.18.18,0,0,0-.17.17v5.61a.18.18,0,0,0,.17.17h7a.18.18,0,0,1,.17.17v3.76A.18.18,0,0,1,70.9,83.91Z"/></g></svg>