<svg xmlns="http://www.w3.org/2000/svg" viewBox="0 0 360.24 246.29"><defs><style>.cls-1{fill:#ef3e2d;}.cls-1,.cls-2{stroke:#231f20;stroke-miterlimit:10;stroke-width:0.75px;}.cls-2{fill:#fff;}</style></defs><title>web_xingones</title><g id="green"><path class="cls-1" d="M93.23,146.83H84.84a.36.36,0,0,1-.36-.36V99.82a.34.34,0,0,1,.09-.24l3.3-3.65a.4.4,0,0,1,.27-.12h8.39a.37.37,0,0,1,.36.37v46.65a.34.34,0,0,1-.09.24l-3.31,3.65A.36.36,0,0,1,93.23,146.83Z"/><path class="cls-1" d="M168.86,141.49a16.25,16.25,0,0,1-6.32,4.49,21.78,21.78,0,0,1-8.19,1.5q-7.6,0-11.82-5t-4.33-14.66V119.3q0-9.73,4-15a13.06,13.06,0,0,1,2.54-2.55.2.2,0,0,0,.08-.08,13.6,13.6,0,0,1,3.67-4,14.81,14.81,0,0,1,8.84-2.53c4.78,0,10.1,2.69,12.19,5.51s2.74,8.94,2.85,10a.35.35,0,0,1-.09.28L169,114.59a.4.4,0,0,1-.27.12h-8.18a.36.36,0,0,1-.35-.34q-.39-4.23-1.73-5.8a5.44,5.44,0,0,0-4.37-1.64,7.38,7.38,0,0,0-2.17.31.39.39,0,0,0-.23.22,13,13,0,0,0-.58,2.08,47.6,47.6,0,0,0-.45,8.85l.08,7.65c.21,5.42,2.16,8.36,4.94,9.28a12.66,12.66,0,0,0,3.92.38.35.35,0,0,0,.34-.36v-5.76a.36.36,0,0,0-.36-.36H154a.37.37,0,0,1-.36-.37v-6.69a.36.36,0,0,1,.09-.24l3.31-3.64a.37.37,0,0,1,.26-.12H172a.36.36,0,0,1,.36.36v19a.36.36,0,0,1-.09.24Z"/><path class="cls-1" d="M206.22,127.5q0,9.48-4.2,14.73t-11.65,5.25q-7.43,0-11.66-5.2t-4.3-14.55v-8.07q0-9.72,4.21-15.17T190.31,99a14,14,0,0,1,11.61,5.36q4.25,5.35,4.3,15Zm-8.94-7.9c0-4.26-.56-7.42-1.7-9.49a6.05,6.05,0,0,0-10.51-.12q-1.69,3-1.76,9.12v8.39q0,6.18,1.73,9.12a5.77,5.77,0,0,0,5.33,2.93,5.61,5.61,0,0,0,5.18-2.87c1.14-1.91,1.71-4.87,1.73-8.89Z"/><path class="cls-1" d="M273.23,126.43H259.88a.36.36,0,0,0-.36.36v11.78a.36.36,0,0,0,.36.36h15.89a.37.37,0,0,1,.28.13l3.18,3.67a.36.36,0,0,1,0,.48l-3.18,3.51a.39.39,0,0,1-.27.11H251a.36.36,0,0,1-.36-.36V99.82a.34.34,0,0,1,.09-.24L254,96a.37.37,0,0,1,.33-.11l21.44,3.81a.3.3,0,0,1,.21.12l3.21,3.73a.37.37,0,0,1,0,.48l-3.18,3.5a.36.36,0,0,1-.27.12H259.88a.36.36,0,0,0-.36.36v10.42a.36.36,0,0,0,.36.36h13.36a.37.37,0,0,1,.26.12l3.17,3.45a.37.37,0,0,1,0,.49l-3.18,3.5A.34.34,0,0,1,273.23,126.43Z"/><path class="cls-1" d="M72.53,119.05,82.61,96.32a.37.37,0,0,0-.33-.51h-9.5a.4.4,0,0,0-.27.12l-3.35,3.7a.41.41,0,0,0-.07.11L66,108.24a.36.36,0,0,1-.68,0L60.84,96.05a.38.38,0,0,0-.34-.24h-15a.4.4,0,0,0-.27.12L42,99.48a.35.35,0,0,0,0,.43,9,9,0,0,0,4,3.37,16.93,16.93,0,0,1,3.61,2.4.33.33,0,0,1,.12.14l7.6,17.09a.39.39,0,0,1,0,.3L47,146.33a.36.36,0,0,0,.33.5H57a.39.39,0,0,0,.27-.11L60.6,143a.36.36,0,0,0,.08-.12l3.19-8.81a.36.36,0,0,1,.68,0l4.6,12.51a.36.36,0,0,0,.34.23h9.92a.39.39,0,0,0,.27-.11l3.23-3.58a.35.35,0,0,0,.07-.38L72.53,119.34A.37.37,0,0,1,72.53,119.05Z"/><path class="cls-1" d="M118.92,99.82v7.43a.36.36,0,0,0,.36.36h3.2a.36.36,0,0,1,.36.36v8.72a.37.37,0,0,1-.7.14L113.37,96a.35.35,0,0,0-.33-.23H100.36a.4.4,0,0,0-.27.12l-3.3,3.65a.34.34,0,0,0-.09.24v7.43a.36.36,0,0,0,.36.36h3.45a.36.36,0,0,1,.36.36v38.5a.36.36,0,0,0,.36.36h8.39a.35.35,0,0,0,.26-.11l3.31-3.65a.34.34,0,0,0,.09-.24V126a.36.36,0,0,1,.69-.14l8.74,20.74a.36.36,0,0,0,.34.22h8.5a.37.37,0,0,0,.27-.11l3.3-3.65a.35.35,0,0,0,.1-.24V96.18a.37.37,0,0,0-.36-.37H122.58a.4.4,0,0,0-.27.12L119,99.58A.34.34,0,0,0,118.92,99.82Z"/><path class="cls-1" d="M230.66,99.82v7.43a.36.36,0,0,0,.36.36h3.2a.36.36,0,0,1,.36.36v20.89a.36.36,0,0,1-.69.14L221.55,99.75v-.07h0l-9-3.77a.37.37,0,0,0-.41.09l-3.24,3.58a.34.34,0,0,0-.09.24v7.43a.36.36,0,0,0,.36.36h3.13a.36.36,0,0,1,.36.36v38.5a.36.36,0,0,0,.36.36h8.39a.39.39,0,0,0,.27-.11l3.28-3.63a.32.32,0,0,0,.09-.28l-3.14-24.27a.36.36,0,0,1,.69-.19l11.91,28.26a.34.34,0,0,0,.33.22h8.51a.39.39,0,0,0,.27-.11l3.28-3.63a.37.37,0,0,0,.1-.28l-3.49-35.18V99.92a.35.35,0,0,0-.22-.33l-8.84-3.68A.37.37,0,0,0,234,96l-3.23,3.58A.35.35,0,0,0,230.66,99.82Z"/><path class="cls-1" d="M307.64,99.09S297.55,99,294.85,99a14.33,14.33,0,0,0-10.05,3.61,12.36,12.36,0,0,0-3.95,9.57,13.21,13.21,0,0,0,2.91,8.54q2.91,3.6,9.54,6.3a15.31,15.31,0,0,1,5,3.06,6.14,6.14,0,0,1,1.38,4.35q0,5.28-4.66,5.28c-2.24,0-3.86-.61-4.85-1.85s-1.46-3.11-1.48-5.74a.41.41,0,0,0-.15-.29l-5-3.57a.37.37,0,0,0-.48.05l-3.19,3.52a.39.39,0,0,0-.09.26,16.42,16.42,0,0,0,2,8.11,13.54,13.54,0,0,0,5.5,5.37,16.17,16.17,0,0,0,7.79,1.88q6.3,0,10-3.46t3.66-9.62a14.21,14.21,0,0,0-2.92-9.23q-2.92-3.63-9.38-6.12a16.69,16.69,0,0,1-5.15-3.26,5,5,0,0,1-1.45-3.51,5.76,5.76,0,0,1,1.3-4,4.6,4.6,0,0,1,3.63-1.47l7.27,0c4.14,0,5.47-.26,6.81-.82,3-1.25,3.2-4.45,5.84-6a10,10,0,0,0,3.63-4.42c0-.23-9.95,3.45-9.95,3.45Z"/><path class="cls-2" d="M96.63,143H88.24a.26.26,0,0,1-.26-.26V96.08a.27.27,0,0,1,.26-.27h8.39a.27.27,0,0,1,.26.27v46.63A.26.26,0,0,1,96.63,143Z"/><path class="cls-2" d="M172.36,137.52a.28.28,0,0,1-.06.18,16.26,16.26,0,0,1-6.25,4.41,21.68,21.68,0,0,1-8.2,1.51q-7.6,0-11.82-5t-4.33-14.65v-8.49q0-9.75,4-15t11.62-5.26q7.17,0,10.83,3.79t4.2,11.59a.27.27,0,0,1-.26.29h-8.14a.26.26,0,0,1-.26-.24q-.39-4.3-1.74-5.89a5.39,5.39,0,0,0-4.36-1.64,5.6,5.6,0,0,0-5.24,2.82q-1.64,2.82-1.7,9v8.55q0,6.45,1.8,9.37t5.93,2.94a7.33,7.33,0,0,0,4.27-1.14l.79-.58v-8.39a.27.27,0,0,0-.27-.26h-5.71a.27.27,0,0,1-.27-.26v-6.67a.27.27,0,0,1,.27-.26H172.1a.26.26,0,0,1,.26.26Z"/><path class="cls-2" d="M209.72,123.64q0,9.48-4.19,14.73t-11.65,5.25q-7.42,0-11.67-5.2t-4.3-14.56V115.8q0-9.72,4.21-15.18a15.26,15.26,0,0,1,23.3-.09q4.25,5.35,4.3,15Zm-8.94-7.91q0-6.37-1.69-9.49a6.06,6.06,0,0,0-10.52-.11q-1.69,3-1.75,9.12v8.39q0,6.18,1.72,9.11a5.76,5.76,0,0,0,5.34,2.93,5.61,5.61,0,0,0,5.18-2.86c1.13-1.91,1.7-4.88,1.72-8.89Z"/><path class="cls-2" d="M276.64,122.57H263.28a.26.26,0,0,0-.26.26v12a.26.26,0,0,0,.26.26h15.9a.26.26,0,0,1,.26.26v7.38a.26.26,0,0,1-.26.26H254.37a.26.26,0,0,1-.26-.26V96.08a.27.27,0,0,1,.26-.27h24.75a.27.27,0,0,1,.26.27v7.41a.26.26,0,0,1-.26.26H263.28a.26.26,0,0,0-.26.26v10.62a.26.26,0,0,0,.26.26h13.36a.26.26,0,0,1,.26.26v7.15A.27.27,0,0,1,276.64,122.57Z"/><path class="cls-2" d="M72.51,119.09,82.67,96.18a.27.27,0,0,0-.24-.37H72.8a.25.25,0,0,0-.24.18l-5.63,15.35a.27.27,0,0,1-.5,0L60.75,95.81H45.83a.26.26,0,0,0-.22.41,8.91,8.91,0,0,0,3.93,3.19,17.46,17.46,0,0,1,3.62,2.42.28.28,0,0,1,.09.1l7.63,17.16a.26.26,0,0,1,0,.21l-10.4,23.3a.26.26,0,0,0,.24.37h9.75a.25.25,0,0,0,.24-.17l5.73-15.64a.26.26,0,0,1,.49,0l5.75,15.64a.26.26,0,0,0,.24.17h9.75a.26.26,0,0,0,.24-.37L72.52,119.3A.22.22,0,0,1,72.51,119.09Z"/><path class="cls-2" d="M122.42,96.08v7.41a.26.26,0,0,0,.26.26h3.4a.26.26,0,0,1,.26.26v21.47a.26.26,0,0,1-.5.1L113.28,95.81H100.46a.27.27,0,0,0-.26.27v7.41a.26.26,0,0,0,.26.26h3.65a.26.26,0,0,1,.26.26v38.7a.26.26,0,0,0,.26.26H113a.26.26,0,0,0,.26-.26V113.34a.26.26,0,0,1,.5-.11l12.46,29.58a.26.26,0,0,0,.24.16H135a.26.26,0,0,0,.26-.26V96.08a.27.27,0,0,0-.26-.27H122.68A.27.27,0,0,0,122.42,96.08Z"/><path class="cls-2" d="M234.17,96.08v7.41a.26.26,0,0,0,.26.26h3.39a.26.26,0,0,1,.26.26v21.47a.26.26,0,0,1-.5.1L225.06,95.81H212.52a.27.27,0,0,0-.26.27v7.41a.26.26,0,0,0,.26.26h3.33a.27.27,0,0,1,.27.26v38.7a.26.26,0,0,0,.26.26h8.38a.26.26,0,0,0,.26-.26V113.34a.27.27,0,0,1,.51-.11L238,142.81a.25.25,0,0,0,.24.16h8.47a.26.26,0,0,0,.26-.26V96.08a.27.27,0,0,0-.26-.27H234.43A.26.26,0,0,0,234.17,96.08Z"/><path class="cls-2" d="M311.14,95.23s-10.08-.06-12.79-.06a14.33,14.33,0,0,0-10.05,3.61,12.36,12.36,0,0,0-3.95,9.57,13.16,13.16,0,0,0,2.91,8.53q2.91,3.62,9.54,6.3a15.73,15.73,0,0,1,5,3.06,6.18,6.18,0,0,1,1.38,4.36q0,5.28-4.67,5.28-3.36,0-4.85-1.85c-.95-1.19-1.45-3.08-1.48-5.66a.27.27,0,0,0-.26-.27h-8.41a.28.28,0,0,0-.27.28,16.37,16.37,0,0,0,2,8,13.56,13.56,0,0,0,5.5,5.38,16.31,16.31,0,0,0,7.79,1.88q6.3,0,10-3.47t3.67-9.62a14.25,14.25,0,0,0-2.93-9.23c-1.95-2.41-5.07-4.46-9.38-6.12a16.7,16.7,0,0,1-5.15-3.25,5.05,5.05,0,0,1-1.45-3.52,5.75,5.75,0,0,1,1.3-4A4.58,4.58,0,0,1,298.2,103l8,0c4,0,5-2.85,7.79-3.91a9.57,9.57,0,0,0,4.21-3.44.26.26,0,0,0-.22-.41Z"/></g></svg>